<?xml version="1.0" encoding="UTF-8"?>
<svg xmlns="http://www.w3.org/2000/svg" version="1.1" viewBox="0 0 991.5 887.6">
  <defs>
    <style>
      .cls-1 {
        fill: #6cc;
        isolation: isolate;
        opacity: .2;
      }
    </style>
  </defs>
  <!-- Generator: Adobe Illustrator 28.7.1, SVG Export Plug-In . SVG Version: 1.2.0 Build 142)  -->
  <g>
    <g id="Layer_1">
      <path class="cls-1" d="M754.6,887.6c-3.5,0-7-.1-10.5-.3l-531.3-34.8c-71.7-4.7-131.1-57.5-141.3-125.5L1.6,257.5c-5.8-38.8,4.6-77.5,29.4-108.8,24.7-31.3,60.7-51.5,101.4-56.9L817.2,1.4c47.9-6.3,94.9,8.8,129.1,41.3,34.2,32.6,50.2,77.5,43.7,123.2l-83.6,594.7c-10.2,72.9-75.9,126.9-151.9,126.9h0ZM838.5,49.9c-4.7,0-9.4.3-14.1.9L139.5,141.2c-26.8,3.5-50.5,16.8-66.8,37.5-16.3,20.7-23.2,46.1-19.3,71.7l69.9,469.6c6.7,44.8,45.8,79.6,93.1,82.7l531.3,34.8c2.3.2,4.6.2,6.9.2,50.1,0,93.3-35.6,100.1-83.7l83.6-594.7c4.2-30.1-6.3-59.8-28.8-81.2-19.2-18.2-44.5-28.2-71-28.2h0Z"/>
    </g>
  </g>
</svg>