<svg width="313" height="442" viewBox="0 0 313 442" fill="none" xmlns="http://www.w3.org/2000/svg">
<mask id="mask0_90_3397" style="mask-type:alpha" maskUnits="userSpaceOnUse" x="0" y="0" width="313" height="442">
<rect width="313" height="442" fill="#D9D9D9"/>
</mask>
<g mask="url(#mask0_90_3397)">
<path opacity="0.2" d="M131.023 415C129.036 415 127.049 414.937 125.046 414.795L-177.746 394.03C-218.625 391.219 -252.47 359.717 -258.242 319.104L-298.112 38.7434C-301.408 15.5472 -295.462 -7.52279 -281.379 -26.2188C-267.295 -44.9147 -246.777 -56.9945 -223.593 -60.1842L166.698 -114.156C193.982 -117.93 220.793 -108.93 240.286 -89.4756C259.78 -70.0217 268.864 -43.2094 265.205 -15.8918L217.56 339.19C211.725 382.724 174.3 414.984 131.023 414.984V415ZM178.81 -85.1806C176.145 -85.1806 173.464 -84.9911 170.783 -84.6279L-219.508 -30.6717C-234.79 -28.5558 -248.306 -20.6131 -257.596 -8.28073C-266.885 4.05167 -270.796 19.2579 -268.62 34.5432L-228.782 314.92C-224.981 341.685 -202.664 362.449 -175.727 364.297L127.065 385.061C128.39 385.156 129.699 385.203 131.008 385.203C159.538 385.203 184.188 363.933 188.052 335.242L235.697 -19.8394C238.11 -37.8406 232.133 -55.526 219.279 -68.3321C208.35 -79.2275 193.935 -85.149 178.81 -85.149V-85.1806Z" fill="#7CC7C0"/>
</g>
</svg>
