<svg width="288" height="361" viewBox="0 0 288 361" fill="none" xmlns="http://www.w3.org/2000/svg">
<mask id="mask0_90_3386" style="mask-type:alpha" maskUnits="userSpaceOnUse" x="0" y="0" width="288" height="361">
<rect width="288" height="361" fill="#D9D9D9"/>
</mask>
<g mask="url(#mask0_90_3386)">
<path opacity="0.2" d="M455.023 530C453.036 530 451.049 529.937 449.046 529.795L146.254 509.03C105.375 506.219 71.53 474.717 65.7577 434.104L25.8881 153.743C22.5919 130.547 28.5376 107.477 42.6213 88.7812C56.7051 70.0853 77.2234 58.0055 100.407 54.8158L490.698 0.843826C517.982 -2.93011 544.793 6.07049 564.286 25.5244C583.78 44.9783 592.864 71.7906 589.205 99.1082L541.56 454.19C535.725 497.724 498.3 529.984 455.023 529.984V530ZM502.81 29.8194C500.145 29.8194 497.464 30.0089 494.783 30.3721L104.492 84.3283C89.2096 86.4442 75.6936 94.3869 66.4044 106.719C57.1151 119.052 53.2038 134.258 55.3803 149.543L95.2184 429.92C99.0193 456.685 121.336 477.449 148.273 479.297L451.065 500.061C452.39 500.156 453.699 500.203 455.008 500.203C483.538 500.203 508.188 478.933 512.052 450.242L559.697 95.1606C562.11 77.1594 556.133 59.474 543.279 46.6679C532.35 35.7725 517.935 29.851 502.81 29.851V29.8194Z" fill="#7CC7C0"/>
</g>
</svg>
