<svg width="24" height="24" viewBox="0 0 24 24" fill="none" xmlns="http://www.w3.org/2000/svg">
<path d="M12.0003 17.0639C11.8114 17.0639 11.6344 17.0347 11.4691 16.9761C11.3038 16.9175 11.1503 16.817 11.0087 16.6744L5.90866 11.5744C5.62533 11.291 5.48933 10.9605 5.50066 10.5827C5.51199 10.2049 5.64799 9.87435 5.90866 9.59102C6.19199 9.30769 6.52869 9.16035 6.91874 9.14902C7.3088 9.13769 7.64502 9.27321 7.92741 9.5556L10.5837 12.2119V2.08269C10.5837 1.6813 10.7197 1.34508 10.9917 1.07402C11.2637 0.802965 11.5999 0.666965 12.0003 0.666021C12.4008 0.665076 12.7375 0.801076 13.0104 1.07402C13.2834 1.34697 13.4189 1.68319 13.417 2.08269V12.2119L16.0732 9.5556C16.3566 9.27227 16.6933 9.13627 17.0833 9.1476C17.4734 9.15894 17.8096 9.30674 18.092 9.59102C18.3517 9.87435 18.4877 10.2049 18.5 10.5827C18.5123 10.9605 18.3763 11.291 18.092 11.5744L12.992 16.6744C12.8503 16.816 12.6969 16.9166 12.5316 16.9761C12.3663 17.0356 12.1892 17.0649 12.0003 17.0639ZM3.50033 23.3327C2.72116 23.3327 2.05438 23.0555 1.49999 22.5011C0.945603 21.9467 0.667937 21.2795 0.666992 20.4994V17.666C0.666992 17.2646 0.802992 16.9284 1.07499 16.6574C1.34699 16.3863 1.68321 16.2503 2.08366 16.2494C2.4841 16.2484 2.8208 16.3844 3.09374 16.6574C3.36669 16.9303 3.50221 17.2665 3.50033 17.666V20.4994H20.5003V17.666C20.5003 17.2646 20.6363 16.9284 20.9083 16.6574C21.1803 16.3863 21.5165 16.2503 21.917 16.2494C22.3174 16.2484 22.6541 16.3844 22.9271 16.6574C23.2 16.9303 23.3355 17.2665 23.3337 17.666V20.4994C23.3337 21.2785 23.0565 21.9458 22.5021 22.5011C21.9477 23.0564 21.2804 23.3336 20.5003 23.3327H3.50033Z" fill="black"/>
</svg>
