<?xml version="1.0" encoding="UTF-8"?>
<svg xmlns="http://www.w3.org/2000/svg" version="1.1" viewBox="0 0 18 20">
  <defs>
    <style>
      .cls-1 {
        fill: #99c;
      }
    </style>
  </defs>
  <!-- Generator: Adobe Illustrator 28.7.1, SVG Export Plug-In . SVG Version: 1.2.0 Build 142)  -->
  <g>
    <g id="Layer_1">
      <path class="cls-1" d="M14.8.7c-.8,0-1.4.3-2,.8-.5.5-.8,1.2-.8,2s0,.3,0,.6l-6.5,3.8c-.2-.2-.5-.4-.9-.5s-.7-.2-1-.2c-.8,0-1.4.3-2,.8-.5.5-.8,1.2-.8,2s.3,1.4.8,2c.5.5,1.2.8,2,.8s.7,0,1-.2c.3-.1.6-.3.9-.5l6.5,3.8c0,.1,0,.2,0,.3,0,.1,0,.2,0,.3,0,.8.3,1.4.8,2,.5.5,1.2.8,2,.8s1.4-.3,2-.8c.5-.5.8-1.2.8-2s-.3-1.4-.8-2c-.5-.5-1.2-.8-2-.8s-.7,0-1,.2c-.3.1-.6.3-.9.5l-6.5-3.8c0-.1,0-.2,0-.3,0-.1,0-.2,0-.3,0-.1,0-.2,0-.3,0-.1,0-.2,0-.3l6.5-3.8c.2.2.5.4.9.5.3.1.7.2,1,.2.8,0,1.4-.3,2-.8.5-.5.8-1.2.8-2s-.3-1.4-.8-2c-.5-.5-1.2-.8-2-.8Z"/>
    </g>
  </g>
</svg>