<?xml version="1.0" encoding="UTF-8"?>
<svg xmlns="http://www.w3.org/2000/svg" width="31.166" height="31.166" viewBox="0 0 31.166 31.166">
  <g id="Group_124748" data-name="Group 124748" transform="translate(-597.84 -3584.714)">
    <rect id="Rectangle_3109" data-name="Rectangle 3109" width="31.166" height="31.166" rx="3" transform="translate(597.84 3584.713)" fill="#126abf"></rect>
    <path id="Path_46394" data-name="Path 46394" d="M14,14.372H11.066V24.45H14Zm1.374,0V24.45H18.3V18.037l.733-.458.733-.183a1.466,1.466,0,0,1,.825.183l.366.366a1.1,1.1,0,0,1,.183.458v6.138h2.84v-6.23a3.848,3.848,0,0,0-.55-1.924,3.665,3.665,0,0,0-1.466-1.466,4.672,4.672,0,0,0-1.924-.458,3.756,3.756,0,0,0-1.924.366v-.458ZM11.25,10.25a1.832,1.832,0,0,0-.55,1.283,1.741,1.741,0,0,0,.55,1.283,1.649,1.649,0,0,0,1.283.55,1.814,1.814,0,0,0,1.283-3.115,1.741,1.741,0,0,0-1.283-.55,1.649,1.649,0,0,0-1.283.55" transform="translate(595.852 3582.811)" fill="#fff"></path>
  </g>
</svg>
