<svg width="110" height="24" viewBox="0 0 110 24" fill="none" xmlns="http://www.w3.org/2000/svg">
<path d="M17.9602 21.1767C12.8459 21.1767 8.7011 17.0477 8.7011 11.9545C8.7011 6.8611 12.8459 2.7361 17.9602 2.7361C19.7629 2.7361 21.4459 3.248 22.8676 4.1352L17.9602 11.9545L27.1989 6.6432C26.1951 5.0509 24.7555 3.6788 23.0147 2.6376C20.7996 1.3172 17.7182 0.5 14.311 0.5C9.4506 0.5 5.1866 2.2585 2.8087 4.892C1.0482 6.8388 0 9.289 0 11.9544C0 14.6217 1.0482 17.0737 2.8087 19.0218C5.1928 21.6586 9.3933 23.4069 14.1735 23.4069C18.953 23.4069 23.1522 21.6573 25.5379 19.0218C25.6685 18.8767 25.795 18.7302 25.9146 18.5783L25.5544 17.2339C23.8782 19.616 21.1021 21.1767 17.9602 21.1767Z" fill="#01062E"/>
<path d="M48.5887 22.8525L44.7112 8.45011C44.0883 6.12271 41.9598 4.41211 39.4257 4.41211C38.7684 4.41211 38.1387 4.52901 37.5543 4.74071L29.2067 7.76301H37.7922L39.2593 13.2184C37.8362 11.9988 35.9827 11.2568 33.9532 11.2568C29.923 11.2568 26.6602 13.9457 26.6602 17.2627C26.6602 20.5799 29.923 23.2728 33.9532 23.2728C36.8544 23.2728 39.4202 21.8586 41.0028 19.6859L41.8539 22.8525H48.5887ZM36.7609 20.6155C34.9019 20.6155 33.3949 19.1164 33.3949 17.2627C33.3949 15.4117 34.9019 13.9112 36.7609 13.9112C38.6199 13.9112 40.1283 15.4117 40.1283 17.2627C40.1283 19.1164 38.6199 20.6155 36.7609 20.6155Z" fill="#01062E"/>
<path d="M64.4009 4.41455C63.8921 4.41455 63.4109 4.52645 62.9819 4.72705L57.6221 7.21405C57.3568 5.62545 55.9708 4.41455 54.2988 4.41455C53.7928 4.41455 53.3102 4.52645 52.8757 4.72705L46.332 7.76295H50.9328V22.8526H57.6675V9.44165C57.6675 8.51635 58.4197 7.76305 59.3519 7.76305C60.2787 7.76305 61.0363 8.51635 61.0363 9.44165V22.8526H67.768V7.76295C67.768 5.91235 66.26 4.41455 64.4009 4.41455Z" fill="#01062E"/>
<path d="M89.6522 13.911C89.6522 19.1559 85.3832 23.4068 80.1172 23.4068C74.8462 23.4068 70.5742 19.1559 70.5742 13.911C70.5742 8.66745 74.8462 4.41455 80.1172 4.41455C85.3832 4.41455 89.6522 8.66755 89.6522 13.911ZM80.5112 7.29665C80.2122 6.17925 79.0582 5.51585 77.9362 5.81625C76.8152 6.11545 76.1462 7.26475 76.4472 8.38205L79.7182 20.5251C80.0202 21.6436 81.1712 22.3062 82.2932 22.0105C83.4152 21.708 84.0822 20.5592 83.7812 19.4422L80.5112 7.29665Z" fill="#01062E"/>
<path d="M106.634 4.41455C106.124 4.41455 105.64 4.52645 105.204 4.72705L99.8495 7.21405C99.5855 5.62545 98.1995 4.41455 96.5275 4.41455C96.0215 4.41455 95.5385 4.52645 95.1025 4.72705L88.5615 7.76295H93.1615V22.8526H99.8945V9.44165C99.8945 8.51635 100.649 7.76305 101.581 7.76305C102.51 7.76305 103.263 8.51635 103.263 9.44165V22.8526H110V7.76295C110 5.91235 108.49 4.41455 106.634 4.41455Z" fill="#01062E"/>
</svg>
