<svg width="100" height="30" viewBox="0 0 100 30" fill="none" xmlns="http://www.w3.org/2000/svg">
<path fill-rule="evenodd" clip-rule="evenodd" d="M5.09141 29.5001C-9.16099 25.4223 10.5989 9.6725 14.6442 6.235C19.1788 3.3591 25.2553 -2.15669 31.0814 1.9998C31.0814 6.235 27.7587 3.7579 25.5739 3.7579C20.2371 6.3922 3.63491 18.6258 4.44281 25.0235C6.46831 28.0622 21.8529 23.6642 25.4999 22.9452C28.4168 22.6269 31.089 22.4678 33.5165 22.4678C34.3282 23.8008 34.8953 24.9991 35.2177 26.0626C35.0584 26.1412 34.8934 26.3041 34.8138 26.4614C24.527 26.9388 14.8092 28.8598 5.09141 29.5001ZM87.511 27.9386C85.434 25.6526 84.273 23.7316 83.061 21.732C81.662 22.4397 81.03 23.3721 80.131 24.1248C79.847 25.074 79.875 26.5513 79.676 27.6465C78.703 27.7252 77.81 27.5511 76.837 27.6297C76.757 25.1526 76.888 22.3891 76.888 19.9121C73.89 24.7089 72.467 27.4219 66.476 25.3436C65.583 23.1025 65.259 21.8274 65.179 20.2266C64.934 20.2266 64.695 20.2266 64.451 20.3053C61.862 24.1416 57.9703 29.8989 53.3561 24.7819C49.1458 27.742 46.8757 28.3767 43.9626 24.6247C38.6997 28.0622 36.8392 27.2646 35.377 21.9847C35.6217 16.3903 36.3499 7.9144 39.5077 3.8366H40.8049C41.4535 4.5555 42.1021 5.2745 42.7507 5.9934C42.3468 9.2737 37.4879 21.1029 39.9173 23.5013C45.1802 23.5013 46.8757 14.2222 55.7002 16.6992C56.2976 18.2663 54.8866 23.608 58.0841 23.5238C60.235 23.4676 62.391 16.9913 62.994 15.2669C64.832 14.8569 66.397 16.7835 68.337 18.1428C68.416 19.5807 68.416 20.6198 69.389 22.5408C73.924 22.5408 76.029 14.8681 77.571 11.5879C77.975 9.75111 78.464 7.9088 78.948 6.1507C80.08 5.9934 80.973 5.1902 81.861 7.3471C81.537 10.8633 80.262 15.705 80.49 20.075C82.436 18.4742 88.745 12.0653 91.738 12.6214C91.791 13.741 91.738 14.7801 91.579 15.7387C88.62 16.8228 86.851 18.3618 85.832 19.429C85.73 21.5241 89.872 24.0461 89.872 26.0345C89.872 26.6692 89.343 27.214 88.586 27.9667C88.353 28.2026 87.761 28.197 87.511 27.9218V27.9386ZM91.499 27.4219C90.771 26.4614 90.771 26.3041 90.93 25.6638C92.552 25.1021 94.896 24.7033 96.193 23.0238C95.385 20.4682 91.579 22.3049 91.579 18.1484C93.28 15.2725 96.193 14.0705 99.675 15.031C99.755 15.5084 99.834 15.9915 99.92 16.5476C97.894 17.1093 96.762 16.4689 95.385 17.5081C95.385 19.1089 97.735 18.946 99.675 20.3053C101.456 25.6638 95.385 26.7815 91.493 27.4219H91.499ZM49.601 24.2259C48.4858 24.2652 47.8031 23.3384 47.8201 22.625C47.8713 20.3783 51.4501 18.6483 52.3604 19.0976C52.4401 20.2997 52.3547 21.35 52.4344 22.6307C52.0304 22.9396 50.8128 24.1809 49.601 24.2202V24.2259Z" fill="#01062E"/>
</svg>
