<svg width="126" height="94" viewBox="0 0 126 94" fill="none" xmlns="http://www.w3.org/2000/svg">
<path fill-rule="evenodd" clip-rule="evenodd" d="M23.0882 5.97824C22.6379 3.69583 20.8058 2.54229 18.5696 2.54229C14.7281 2.54229 13.1011 5.70682 13.1011 9.07337C13.1011 12.7576 14.7281 15.8312 18.5912 15.8312C21.418 15.8312 23.045 13.8418 23.2486 11.1753H25.3953C24.9881 15.1989 22.4806 17.6401 18.4108 17.6401C13.3941 17.6401 10.9529 13.9327 10.9529 9.23221C10.9529 4.55327 13.6208 0.734863 18.5928 0.734863C21.9593 0.734863 24.7399 2.54229 25.2364 5.97824H23.0897M27.1287 5.5711H28.9361V8.03549H28.9824C29.9077 6.15867 31.1954 5.23183 33.2758 5.29968V7.33535C30.1791 7.33535 29.0502 9.0965 29.0502 12.0575V17.2546H27.1287V5.57265M39.1622 15.8327C41.1732 15.8327 42.8017 14.2504 42.8017 11.4252C42.8017 8.57833 41.1732 6.99607 39.1622 6.99607C37.1497 6.99607 35.5227 8.57833 35.5227 11.4252C35.5227 14.2504 37.1497 15.8327 39.1622 15.8327ZM39.1622 5.30122C42.868 5.30122 44.8343 7.99077 44.8343 11.4252C44.8343 14.838 42.868 17.5275 39.1622 17.5275C35.4564 17.5275 33.4901 14.838 33.4901 11.4252C33.4901 7.99077 35.4564 5.30122 39.1622 5.30122ZM57.7176 17.2577H55.6835L53.3116 7.96763H53.2653L50.9151 17.2577H48.8362L45.0841 5.57265H47.2093L49.8525 15.131H49.8988L52.2491 5.57265H54.351L56.7907 15.131H56.837L59.4587 5.57265H61.4481L57.7176 17.2577ZM62.7235 5.57265H64.5324V7.42633H64.5771C65.3914 5.97978 66.7023 5.30122 68.374 5.30122C71.4475 5.30122 72.3959 7.06392 72.3959 9.57303V17.2577H70.4759V9.34633C70.4759 7.92291 69.5722 6.99607 68.1025 6.99607C65.7739 6.99607 64.645 8.5552 64.645 10.6572V17.2577H62.7235V5.5711M23.0897 29.7184C22.6379 27.436 20.8073 26.284 18.5712 26.284C14.7281 26.284 13.1011 29.4485 13.1011 32.8151C13.1011 36.4978 14.7281 39.5728 18.5912 39.5728C21.418 39.5728 23.045 37.5834 23.2486 34.9155H25.3953C24.9881 38.9405 22.4806 41.3803 18.4108 41.3803C13.3941 41.3803 10.9529 37.6729 10.9529 32.9739C10.9529 28.295 13.6208 24.4766 18.5928 24.4766C21.9593 24.4766 24.7399 26.284 25.2364 29.7199L23.0897 29.7184ZM32.2903 39.5728C34.3013 39.5728 35.9283 37.9906 35.9283 35.1653C35.9283 32.3185 34.3013 30.7362 32.2888 30.7362C30.2778 30.7362 28.6508 32.3185 28.6508 35.1653C28.6508 37.9906 30.2778 39.5728 32.2903 39.5728ZM32.2903 29.0398C35.9961 29.0398 37.9624 31.7309 37.9624 35.1653C37.9624 38.5781 35.9961 41.2677 32.2903 41.2677C28.5829 41.2677 26.6167 38.5781 26.6167 35.1653C26.6167 31.7309 28.5829 29.0398 32.2903 29.0398ZM39.6912 29.3128H41.4986V31.0292H41.5449C42.4023 29.7184 43.7132 29.0398 45.3186 29.0398C46.742 29.0398 48.0528 29.6058 48.5263 31.0292C48.9196 30.4158 49.4616 29.9117 50.102 29.5639C50.7423 29.2161 51.4602 29.0358 52.1889 29.0398C54.516 29.0398 56.0752 30.0129 56.0752 32.4311V40.9963H54.1536V33.3363C54.1536 31.8898 53.7712 30.7378 51.8944 30.7378C50.0407 30.7378 48.8439 31.9129 48.8439 33.7203V40.9993H46.9224V33.3363C46.9224 31.8219 46.4474 30.7378 44.731 30.7378C42.4486 30.7378 41.6112 32.8397 41.6112 33.7203V40.9993H39.6912V29.3128ZM58.4285 29.3113H60.2359V31.0277H60.2822C61.1397 29.7168 62.4505 29.0383 64.0559 29.0383C65.4793 29.0383 66.7902 29.6043 67.2636 31.0277C67.6569 30.4142 68.199 29.9102 68.8393 29.5624C69.4797 29.2146 70.1976 29.0343 70.9263 29.0383C73.2534 29.0383 74.8125 30.0114 74.8125 32.4295V40.9947H72.891V33.3363C72.891 31.8898 72.507 30.7378 70.6317 30.7378C68.7796 30.7378 67.5813 31.9129 67.5813 33.7203V40.9993H65.6598V33.3363C65.6598 31.8219 65.1848 30.7378 63.4683 30.7378C61.1859 30.7378 60.3485 32.8397 60.3485 33.7203V40.9993H58.4285V29.3113ZM85.2715 34.0349C85.1805 32.2028 83.8018 30.7347 81.905 30.7347C79.8924 30.7347 78.6942 32.2491 78.5585 34.0349H85.2715ZM87.1252 37.2889C86.604 39.8643 84.7503 41.2661 82.1301 41.2661C78.4012 41.2661 76.6385 38.6907 76.5259 35.1191C76.5259 31.6152 78.8314 29.0398 82.016 29.0398C86.1521 29.0398 87.4182 32.9045 87.3056 35.7298H78.56C78.4921 37.7639 79.6441 39.5698 82.198 39.5698C83.7802 39.5698 84.8875 38.8018 85.2268 37.2873H87.1237L87.1252 37.2889ZM88.8524 29.3113H90.6614V31.7741H90.7077C91.633 29.8988 92.9207 28.972 95.0011 29.0398V31.0739C91.9044 31.0739 90.7755 32.8366 90.7755 35.7976V40.9947H88.854L88.8524 29.3113ZM103.791 33.0618C103.498 31.5937 102.481 30.7347 100.898 30.7347C98.1193 30.7347 97.2603 32.9261 97.2603 35.2995C97.2603 37.4462 98.2319 39.5713 100.673 39.5713C102.527 39.5713 103.634 38.4872 103.881 36.7229H105.849C105.418 39.5713 103.634 41.2661 100.695 41.2661C97.1246 41.2661 95.2262 38.7802 95.2262 35.298C95.2262 31.7972 97.0336 29.0398 100.741 29.0398C103.384 29.0398 105.509 30.2828 105.781 33.0618H103.791ZM107.565 40.9947H109.487V29.3113H107.565V40.9947ZM107.565 27.2077H109.487V24.859H107.565V27.2077ZM119.125 34.9602C118.379 35.5031 116.932 35.5262 115.645 35.7513C114.38 35.978 113.294 36.4299 113.294 37.8533C113.294 39.1179 114.378 39.5713 115.554 39.5713C118.086 39.5713 119.125 37.989 119.125 36.9265V34.9602ZM122.243 40.9485C121.904 41.152 121.475 41.2661 120.865 41.2661C119.87 41.2661 119.238 40.7233 119.238 39.4572C118.175 40.7002 116.752 41.2661 115.125 41.2661C113 41.2661 111.26 40.3162 111.26 37.989C111.26 35.3442 113.226 34.7798 115.214 34.3958C117.339 33.9886 119.147 34.1244 119.147 32.6778C119.147 31.0061 117.77 30.7347 116.548 30.7347C114.921 30.7347 113.723 31.2313 113.634 32.9492H111.712C111.826 30.0561 114.062 29.0398 116.662 29.0398C118.763 29.0398 121.045 29.5133 121.045 32.2491V38.2605C121.045 39.1642 121.045 39.5713 121.656 39.5713C121.815 39.5713 121.995 39.5482 122.243 39.4572V40.9485ZM123.665 40.9947H125.585V24.8606H123.665V40.9947ZM21.0787 53.3228C20.8305 51.0173 19.2929 50.0226 17.0784 50.0226C15.2709 50.0226 13.462 50.6795 13.462 52.78C13.462 54.7694 16.0374 55.0624 18.6375 55.6515C21.2129 56.2375 23.7899 57.1412 23.7899 60.3058C23.7899 63.7417 20.4218 65.1204 17.4855 65.1204C13.8691 65.1204 10.8187 63.3577 10.8187 59.4252H12.8513C12.8513 62.1363 15.1121 63.3114 17.5533 63.3114C19.4965 63.3114 21.6432 62.7023 21.6432 60.3736C21.6432 58.1591 19.0678 57.7751 16.4908 57.2091C13.9154 56.6446 11.3153 55.8982 11.3153 52.9373C11.3153 49.6617 14.23 48.2152 17.1693 48.2152C20.4696 48.2152 22.9772 49.7743 23.1129 53.3228H21.0772M33.7029 57.7751C33.6119 55.9445 32.2332 54.4748 30.3348 54.4748C28.3239 54.4748 27.1271 55.9908 26.9899 57.7751H33.7029ZM35.5551 61.029C35.0354 63.6045 33.1817 65.0078 30.5615 65.0078C26.8326 65.0078 25.0699 62.4309 24.9558 58.8592C24.9558 55.3569 27.2613 52.78 30.4474 52.78C34.5835 52.78 35.8496 56.6446 35.7371 59.4699H26.9899C26.922 61.5056 28.0756 63.3114 30.6294 63.3114C32.2101 63.3114 33.3174 62.5434 33.6567 61.029H35.5551ZM37.2839 53.0514H39.0928V55.5158H39.1375C40.0628 53.639 41.3521 52.7137 43.4309 52.78V54.8156C40.3358 54.8156 39.2054 56.5783 39.2054 59.5378V64.7349H37.2839V53.0514ZM50.3584 64.7364H48.3011L43.9614 53.0514H46.1097L49.3853 62.7917H49.4315L52.6176 53.0514H54.6286L50.3568 64.7364M55.9009 64.7364H57.8225V53.0514H55.9009V64.7364ZM55.9009 50.9494H57.8225V48.5992H55.9009V50.9494ZM68.1951 56.8035C67.9021 55.3338 66.8842 54.4748 65.302 54.4748C62.523 54.4748 61.6625 56.6678 61.6625 59.0396C61.6625 61.1879 62.634 63.3114 65.0768 63.3114C66.9305 63.3114 68.0378 62.2273 68.2845 60.4646H70.2523C69.8221 63.3114 68.0362 65.0078 65.0984 65.0078C61.5283 65.0078 59.6299 62.5203 59.6299 59.0396C59.6299 55.5389 61.4373 52.78 65.1447 52.78C67.7879 52.78 69.9131 54.023 70.1845 56.8035H68.1951ZM80.0544 57.7751C79.9649 55.9445 78.5862 54.4748 76.6878 54.4748C74.6768 54.4748 73.4801 55.9908 73.3428 57.7751H80.0559H80.0544ZM81.9081 61.029C81.3883 63.6045 79.5346 65.0078 76.9145 65.0078C73.1855 65.0078 71.4228 62.4309 71.3087 58.8592C71.3087 55.3569 73.6143 52.78 76.8004 52.78C80.9365 52.78 82.2026 56.6446 82.09 59.4699H73.3428C73.275 61.5056 74.4285 63.3114 76.9824 63.3114C78.5631 63.3114 79.6704 62.5434 80.0096 61.029H81.9081ZM0.207031 88.6308H1.79084V0.788839H0.207031V88.6308ZM22.9494 77.4423C22.9263 74.6047 21.4288 73.6964 18.6591 73.6964C16.6604 73.6964 14.5261 74.6263 14.5261 76.9427C14.5261 78.6684 15.8893 79.2127 17.2511 79.6214L18.9768 80.1442C21.2021 80.8243 23.3349 81.5507 23.3349 84.2757C23.3349 85.8641 22.3356 89.2692 17.0691 89.2692C13.4373 89.2692 10.7817 87.5204 10.9621 83.594H12.5058C12.347 86.7493 14.2331 87.9522 17.1832 87.9522C19.2945 87.9522 21.7912 86.9082 21.7912 84.4793C21.7912 82.1861 19.5659 81.7774 17.7739 81.2561L16.1839 80.778C14.2994 80.2352 12.9824 79.0986 12.9824 77.0105C12.9824 73.7643 15.8431 72.3794 18.7269 72.3794C22.0179 72.3794 24.6751 73.6964 24.4946 77.4423H22.9494ZM43.4032 76.8748C46.3996 76.8748 47.8523 78.8025 47.8523 81.6648C47.8523 85.2519 45.3772 89.2692 41.4508 89.2692C39.611 89.2692 38.0225 88.4981 37.7033 86.5905H37.6571L36.2306 93.265H34.7994L38.2508 77.2156H39.5447L39.0913 79.3269H39.1375C40.1353 77.7816 41.3382 76.8748 43.4047 76.8748H43.4032ZM55.7513 76.8748C58.7493 76.8748 60.202 78.8025 60.202 81.6648C60.202 85.2519 57.7268 89.2692 53.7989 89.2692C51.9607 89.2692 50.3707 88.4981 50.053 86.5905H50.0067L48.5802 93.265H47.1491L50.6005 77.2156H51.8944L51.4394 79.3269H51.4857C52.485 77.7816 53.6864 76.8748 55.7513 76.8748ZM28.0108 77.2141L26.3761 84.7753C26.2773 85.161 26.2239 85.557 26.2173 85.9551C26.2173 87.4988 27.3986 88.0663 28.6693 88.0663C30.7358 88.0663 32.6188 86.2049 33.2557 83.2316L34.5496 77.2156H35.9792L33.4593 88.9284H32.1423L32.5509 86.7956H32.5047C31.621 88.1789 30.0773 89.2692 28.3285 89.2692C26.2851 89.2692 24.7877 88.3609 24.7877 86.114C24.7877 85.7515 24.8555 85.2735 24.9681 84.7291L26.5812 77.2156L28.0108 77.2141ZM43.2659 78.0777C39.9749 78.0777 38.1583 81.7789 38.1583 84.6828C38.1583 86.7262 39.338 88.0663 41.4277 88.0663C44.7186 88.0663 46.4212 84.4345 46.4212 81.5738C46.4212 79.5767 45.4234 78.0777 43.2659 78.0777ZM55.6156 78.0777C52.3231 78.0777 50.5079 81.7789 50.5079 84.6828C50.5079 86.7262 51.6877 88.0663 53.7773 88.0663C57.0683 88.0663 58.7709 84.4345 58.7709 81.5738C58.7709 79.5767 57.7731 78.0777 55.6156 78.0777ZM74.2311 76.8748C77.0456 76.8748 78.6803 78.7131 78.6803 81.4381C78.6803 82.0951 78.6572 82.7536 78.5677 83.4583H69.3964C69.349 83.7582 69.3258 84.0615 69.327 84.3651C69.327 86.4779 70.4173 88.0663 72.7321 88.0663C74.5951 88.0663 76.0247 86.8634 76.5691 85.1609H78.0002C77.2291 87.7718 75.434 89.2692 72.6643 89.2692C69.5769 89.2692 67.8974 87.34 67.8974 84.2988C67.8974 80.5976 70.2122 76.8748 74.2311 76.8748ZM65.2187 72.7202L61.7226 88.9284H60.2915L63.7876 72.7202H65.2187ZM67.7617 77.2156L65.2403 88.9284H63.8107L66.3306 77.2156H67.7617ZM86.7165 77.0784L86.3988 78.508C86.1274 78.508 85.8545 78.4864 85.5815 78.4864C83.0169 78.5326 81.6536 80.5992 81.1771 82.7998L79.86 88.9284H78.4305L80.9504 77.2156H82.2458L81.6536 79.916H81.6999C82.6082 78.235 83.8558 77.0321 85.9454 77.0553C86.1953 77.0553 86.4667 77.0553 86.7165 77.0784ZM74.0492 78.0777C71.6896 78.0777 70.0765 80.0748 69.5769 82.2539H77.2276C77.2276 81.9378 77.2507 81.6417 77.2507 81.3471C77.2507 79.3947 76.0247 78.0777 74.0492 78.0777ZM68.7379 72.7202L68.2383 75.0134H66.8071L67.3068 72.7202H68.7379Z" fill="white"/>
</svg>
