<svg width="50" height="60" viewBox="0 0 50 60" fill="none" xmlns="http://www.w3.org/2000/svg">
<path d="M50 23.7038C48.5215 10.3585 37.7954 0 25 0C12.2046 0 1.47846 10.3585 0 23.7038V56.7715C0.00223072 57.6267 0.342771 58.4462 0.947244 59.0511C1.55172 59.656 2.371 59.9972 3.22615 60H46.7739C47.629 59.9972 48.4483 59.656 49.0528 59.0511C49.6572 58.4462 49.9978 57.6267 50 56.7715V23.7038Z" fill="white"/>
<path d="M16.6401 44.4753C16.8278 43.9907 17.0162 43.5061 17.2316 43.0223C17.4193 42.5915 17.6078 42.1607 17.8224 41.7576C17.9839 41.4076 18.1724 41.0853 18.3608 40.7353C18.5755 40.3584 18.7901 39.9815 19.0055 39.6323C19.2478 39.2553 19.4624 38.8523 19.7047 38.5015C20.1885 37.8023 20.6724 37.103 21.1832 36.4307C21.5055 36 21.8547 35.5692 22.2047 35.1384C22.4462 34.843 22.6885 34.5738 22.9301 34.3046C23.2811 33.9033 23.6397 33.5086 24.0055 33.1207C24.4578 32.6412 24.9239 32.1749 25.4032 31.7223C25.6455 31.4799 25.9139 31.2376 26.1832 30.9953L26.2101 30.9684C26.4255 30.8069 26.6132 30.6184 26.8278 30.4576C26.9893 30.323 27.1239 30.1884 27.2847 30.0538C27.5808 29.8115 27.877 29.5961 28.1724 29.3815C28.6136 29.0405 29.0614 28.7082 29.5155 28.3846C29.9993 28.0615 30.5101 27.7384 30.9939 27.4161C31.6932 26.9315 32.4455 26.5546 33.1708 26.1515C33.624 25.909 34.0909 25.6932 34.5693 25.5053C35.1339 25.2638 35.7255 25.0215 36.2893 24.833C36.7739 24.6446 37.2839 24.51 37.7947 24.4023C38.1716 24.3223 38.5478 24.2146 38.9239 24.133H39.0047C39.3539 24.133 39.677 24.0261 39.9993 24.0261C40.2947 24.0261 40.6178 23.9723 40.9132 23.9453C40.9401 23.9453 40.9939 23.9184 41.0478 23.9184C40.9401 23.7569 40.8324 23.6223 40.7247 23.4876C40.537 23.2461 40.3485 23.003 40.1339 22.7884C39.8109 22.4384 39.4616 22.1161 39.1393 21.793C38.9778 21.6315 38.8162 21.4969 38.6547 21.3623C38.3055 21.1199 37.9832 20.8515 37.607 20.6623C37.2039 20.4476 36.7732 20.2323 36.3162 20.0976L35.5909 19.9361C35.2139 19.8284 34.8378 19.8553 34.4616 19.8015C34.1924 19.7753 33.897 19.8284 33.6285 19.8284C33.2255 19.8553 32.8485 19.9361 32.4724 20.0169C32.0955 20.0976 31.747 20.2592 31.3701 20.3938C30.6716 20.6361 30.0262 21.0123 29.4085 21.3892C28.9508 21.6584 28.5208 21.9815 28.0908 22.3046C27.7678 22.5461 27.4455 22.7615 27.1501 23.0307C26.8539 23.2461 26.5855 23.5153 26.3162 23.7569C25.9939 24.053 25.6447 24.3492 25.3216 24.6446C25.0524 24.9138 24.7839 25.21 24.5424 25.4792C24.1932 25.8561 23.8432 26.2053 23.5208 26.6092C23.1716 27.0123 22.8485 27.443 22.5262 27.8738C22.1493 28.3846 21.747 28.8961 21.397 29.4338C20.9401 30.1338 20.4024 30.8061 19.7308 31.3446C18.9121 32.0367 17.9468 32.5335 16.9078 32.7976C16.3303 32.9588 15.7335 33.0401 15.1339 33.0392H14.5693C14.2201 33.0392 13.8431 32.9853 13.5208 32.9315C12.7416 32.77 12.0155 32.5284 11.3162 32.1246C10.5609 31.7002 9.88729 31.1446 9.32699 30.4838C9.2193 30.3492 9.11161 30.2146 8.97776 30.053C8.95084 30.2415 8.97776 30.3761 9.00468 30.5107C9.11238 31.0215 9.16622 31.533 9.27391 32.0438C9.48853 33.0392 9.75699 34.0084 10.107 34.9769C10.9502 37.2717 12.1575 39.4158 13.6824 41.3269C14.0855 41.8115 14.4885 42.3223 14.9185 42.8061C15.1339 43.0753 15.3755 43.3446 15.6178 43.5869L16.5855 44.5553C16.5855 44.4476 16.6124 44.4476 16.6393 44.4746L16.6401 44.4753ZM23.1185 17.1923V14.4215C23.1185 14.3407 23.0916 14.2599 23.1724 14.1792C23.2262 14.233 23.2524 14.2869 23.3062 14.3407C23.8447 15.1207 24.3547 15.9015 24.8924 16.6815C25.027 16.8699 25.1616 17.0584 25.2693 17.2199H26.0485C26.0755 17.193 26.0755 17.193 26.0755 17.1661C26.0755 17.1392 26.1024 17.1392 26.1024 17.1123V12.3499C26.1024 12.3499 26.1024 12.323 26.0755 12.323L26.0485 12.2961H25.1347V14.5023C25.1347 14.7446 25.1616 14.9869 25.1078 15.2284H25.0539C24.3756 14.2463 23.7036 13.2598 23.0378 12.2692H22.177V17.1384L22.2039 17.1653C22.4993 17.1923 22.7947 17.1923 23.1178 17.1923H23.1185ZM18.0647 12.2961C18.0647 12.4038 18.0378 12.5115 18.0378 12.5923V16.8969C18.0378 17.0046 18.0378 17.1123 18.1185 17.193C18.7901 17.2469 21.3439 17.2199 21.5324 17.1661V16.7353C21.5324 16.6007 21.5593 16.4392 21.5055 16.2776H19.0055V15.0938H19.7047C19.9462 15.0938 20.1885 15.1207 20.4031 15.0669C20.457 14.6099 20.4301 14.3407 20.3493 14.1523H19.0055C18.9516 13.8023 18.9785 13.3184 19.0324 13.1299H21.3439C21.3978 12.8338 21.3708 12.4299 21.3439 12.2684C20.2685 12.2961 19.1939 12.2961 18.0647 12.2961ZM30.9947 7.13072V6.24149C30.9408 6.24149 30.9139 6.21456 30.887 6.21456H27.8232C27.7693 6.21456 27.7432 6.24149 27.6893 6.24149C27.6355 6.48379 27.6355 10.8953 27.6893 11.0846C27.9308 11.1384 30.9685 11.1115 31.157 11.0846V10.2499H28.6293C28.5755 9.92687 28.6032 9.25456 28.657 9.09302H30.0001V8.17841H28.6293V7.15687C29.4085 7.12995 30.1885 7.12995 30.9947 7.12995V7.13072ZM36.3439 51.2284C36.2632 51.1476 36.1824 51.1746 36.1024 51.1746H35.1616C35.1078 51.1746 35.027 51.1746 34.9462 51.1476C34.9462 50.7984 34.9193 50.4753 34.9732 50.1253H36.7478C36.9355 50.1253 37.1509 50.1523 37.3385 50.0984C37.3924 49.6676 37.3655 49.3723 37.2847 49.2376H34.1662C34.1124 49.2376 34.0862 49.2646 34.0055 49.2646V54.1069L34.0324 54.1346L34.0593 54.1615C34.597 54.1884 37.3116 54.1884 37.5001 54.1346C37.527 53.8653 37.527 53.5961 37.5001 53.3007H34.9732C34.9462 52.87 34.9462 52.3046 35.0001 52.1161H35.9139C36.0485 52.1161 36.2101 52.1438 36.3447 52.09L36.3439 51.2284ZM14.6508 51.1746H13.6831C13.5485 51.1746 13.387 51.2015 13.2262 51.1476V50.6369C13.2262 50.4753 13.1993 50.3138 13.2524 50.1523C14.0324 50.1253 14.8116 50.1523 15.5908 50.1523C15.6447 49.7753 15.6185 49.4261 15.537 49.2376H12.3924C12.3655 49.2376 12.3116 49.2646 12.2847 49.2646C12.2578 49.2915 12.2578 49.3184 12.2578 49.3184V54.0807L12.2847 54.1076L12.3116 54.1346H15.1616C15.3493 54.1346 15.5378 54.1615 15.7262 54.1076V53.7038C15.7262 53.5692 15.7524 53.4346 15.6993 53.273H13.1993V52.09H13.8708C14.1131 52.09 14.3278 52.1169 14.5701 52.063C14.6508 51.7669 14.6508 51.4976 14.6508 51.1746ZM9.24776 16.2776H7.55391C7.28468 16.2776 6.9893 16.3046 6.69391 16.2507V15.0938H8.09161C8.14545 14.7984 8.14545 14.3676 8.06468 14.1792H6.69391C6.64007 13.7484 6.66699 13.3453 6.72084 13.1569H8.2793C8.52161 13.1569 8.79007 13.1838 9.0593 13.1299V12.3223C9.0593 12.2961 9.0593 12.2961 9.03238 12.2961H5.80622L5.7793 12.323V17.1661L5.80622 17.193C6.10237 17.2199 9.03238 17.2199 9.22084 17.1661C9.22084 17.1392 9.24776 17.1123 9.24776 17.0853V16.2776ZM17.3116 13.3184C17.0962 12.5646 16.5055 12.2415 15.7793 12.1876C15.4658 12.16 15.1505 12.2157 14.8655 12.3492C14.2208 12.6184 13.8708 13.2376 14.0862 13.9646C14.1939 14.2876 14.4093 14.5292 14.7047 14.6907C15.0539 14.8792 15.4031 14.9869 15.7524 15.1215C15.9678 15.2015 16.2101 15.2553 16.3985 15.4446C16.6131 15.6861 16.6131 16.0361 16.3447 16.2238C16.1667 16.3546 15.9454 16.4124 15.7262 16.3853C15.4031 16.3584 15.1078 16.2238 14.8924 15.9284C14.8116 15.8207 14.7308 15.713 14.677 15.6053C14.3816 15.713 14.1131 15.8207 13.8439 15.9284C14.0055 16.413 14.2747 16.7623 14.6778 17.0046C15.2155 17.3276 15.7793 17.3546 16.3708 17.193C16.8278 17.0853 17.2047 16.8161 17.4193 16.3584C17.5001 16.143 17.527 15.9276 17.527 15.7123C17.5001 15.3092 17.3385 14.9599 17.0162 14.7176C16.747 14.5023 16.4516 14.3946 16.1293 14.2599C15.8601 14.1523 15.5908 14.0715 15.3224 13.9638C15.1347 13.883 15.027 13.7761 15.0001 13.5607C15.1078 13.2376 15.2424 13.1299 15.5647 13.1299H15.7262C16.0216 13.1299 16.237 13.2376 16.4247 13.4799C16.4785 13.5338 16.5055 13.5876 16.5324 13.6415C16.7478 13.5069 17.0162 13.4261 17.3116 13.3184ZM10.8062 13.6415C10.7793 13.3184 10.9408 13.1299 11.237 13.103H11.5055C11.8008 13.103 12.0162 13.2107 12.1778 13.453C12.2047 13.5069 12.2578 13.5607 12.3116 13.6146C12.5808 13.5338 12.8501 13.4261 13.0916 13.3453C13.0647 13.0761 12.9301 12.9146 12.7955 12.7261C12.5262 12.4307 12.2047 12.2953 11.8278 12.2153C11.3771 12.1345 10.9123 12.2105 10.5108 12.4307C9.73161 12.8338 9.59699 13.9099 10.2685 14.5023C10.457 14.6638 10.6455 14.7715 10.8608 14.8523C11.1293 14.9599 11.4247 15.0399 11.6939 15.1476C11.8555 15.2284 12.0431 15.2823 12.1778 15.3899C12.4731 15.6323 12.3655 16.0092 12.1508 16.1976C11.9729 16.3284 11.7516 16.3862 11.5324 16.3592C11.1555 16.3315 10.8601 16.1707 10.6455 15.8476C10.5916 15.7669 10.5378 15.6861 10.4839 15.5784C10.2147 15.713 9.9193 15.7669 9.67776 15.9015V16.0361C9.89315 16.5207 10.2155 16.8969 10.7262 17.1123C11.2101 17.3007 11.6939 17.3007 12.1778 17.193C12.5539 17.1123 12.8762 16.9238 13.0916 16.5738C13.1993 16.3853 13.2531 16.1969 13.307 15.9815C13.387 15.5515 13.2531 15.1746 12.9839 14.8523C12.7685 14.6099 12.4731 14.4484 12.1778 14.3407C11.8816 14.233 11.5855 14.1523 11.317 14.0446C11.1016 13.9638 10.9139 13.8561 10.8062 13.6415ZM44.3547 13.3184C44.1932 12.8338 43.8978 12.4846 43.4139 12.323C43.0109 12.1615 42.6347 12.1615 42.2316 12.2423C41.5855 12.3769 40.9139 12.9146 41.0755 13.8561C41.1293 14.1523 41.2909 14.3946 41.5324 14.583C41.8555 14.8253 42.2578 14.933 42.6347 15.0938C42.8762 15.1746 43.1185 15.2553 43.3332 15.3899C43.6832 15.6323 43.6562 16.1169 43.2524 16.3053C42.9032 16.4669 42.5539 16.4392 42.2047 16.2515C41.9624 16.1169 41.8278 15.8746 41.6939 15.6323C41.4247 15.7399 41.1293 15.8476 40.8601 15.9284V16.0361C41.0216 16.4392 41.2632 16.7892 41.6401 17.0046C42.3385 17.4076 43.0647 17.4076 43.7901 17.0584C44.4362 16.7623 44.7047 15.9015 44.4085 15.2284C44.2209 14.8253 43.8978 14.5823 43.5216 14.4215C43.1985 14.2869 42.8493 14.1792 42.527 14.0446C42.3699 13.9907 42.2239 13.9086 42.0962 13.8023C41.9085 13.6407 41.9624 13.3453 42.1778 13.2107C42.5001 13.0223 43.0109 13.103 43.2793 13.3723C43.3601 13.453 43.4139 13.5338 43.4947 13.6146C43.7901 13.5069 44.0593 13.4261 44.3547 13.3184ZM18.1455 7.26456C17.9839 6.91456 17.7424 6.61841 17.3924 6.43072C16.9355 6.16149 16.4247 6.10764 15.9139 6.21533C15.537 6.2961 15.2155 6.48456 14.9731 6.77995C14.5162 7.29149 14.3816 7.93687 14.3278 8.58302C14.3278 8.77149 14.3547 8.93302 14.3547 9.12149C14.3547 9.44456 14.4624 9.71302 14.5701 10.0092C14.8655 10.7623 15.457 11.1661 16.2631 11.2199C16.8555 11.2469 17.3924 11.0584 17.7955 10.6007C17.9301 10.4123 18.0916 10.2507 18.1455 10.0084C17.8493 9.90072 17.5808 9.79302 17.2847 9.68533C17.2047 9.79302 17.1508 9.90072 17.0693 9.98226C16.8278 10.2515 16.5055 10.4392 16.1024 10.2776C15.8062 10.1699 15.6178 9.92841 15.5108 9.63226C15.2955 9.09379 15.2955 8.55533 15.4301 7.99072C15.4839 7.80225 15.5647 7.58764 15.6993 7.4261C16.0216 6.96841 16.7478 6.94149 17.1508 7.4261C17.2047 7.50687 17.2847 7.56072 17.3385 7.64149L18.0647 7.31841C18.0916 7.31841 18.1185 7.29149 18.1455 7.26456ZM10.6185 50.6638C10.9139 50.5561 11.1562 50.4215 11.4516 50.2869C11.317 49.9638 11.1285 49.6946 10.8601 49.533C10.618 49.3601 10.3402 49.2437 10.0472 49.1926C9.7541 49.1414 9.45329 49.1568 9.16699 49.2376C8.79007 49.3184 8.46776 49.5338 8.22622 49.83C7.87622 50.2869 7.71545 50.7984 7.63391 51.363C7.58007 51.8476 7.63391 52.3323 7.76853 52.7892C7.90314 53.2469 8.14545 53.623 8.52161 53.8923C8.97853 54.2153 9.4893 54.2961 10.027 54.1884C10.7262 54.0538 11.1293 53.623 11.4247 53.0038C11.1016 52.8961 10.8331 52.7353 10.5647 52.7084C10.4301 52.843 10.3493 52.9776 10.2155 53.0853C9.78468 53.4623 9.24776 53.3007 8.97853 52.9776C8.65545 52.5738 8.60161 52.1161 8.57545 51.6323C8.57545 51.5246 8.60238 51.4169 8.6293 51.3092C8.65622 50.9861 8.76314 50.6907 8.95237 50.4484C9.27391 50.0176 9.97315 49.9638 10.2955 50.3407C10.4031 50.4484 10.5108 50.5292 10.6185 50.6638ZM31.1024 50.1523V49.6953C31.1024 49.5607 31.1293 49.3992 31.0755 49.2646C31.0485 49.2646 31.0216 49.2376 30.9947 49.2376H28.0108C27.957 49.2376 27.9032 49.2646 27.8493 49.2646C27.7955 49.5607 27.8224 53.9461 27.8493 54.1338H28.737V52.09H29.7308C29.8924 52.09 30.0532 52.1169 30.2416 52.063V51.6323C30.2416 51.4977 30.2678 51.3361 30.2147 51.1746H28.7624V50.1523H31.1008H31.1024ZM20.027 9.22841V11.1392C20.3501 11.1392 20.6455 11.1661 20.9678 11.1392V9.47072C20.9678 9.28226 21.0216 9.14764 21.1024 9.01302C21.6401 8.15226 22.1508 7.29149 22.6885 6.43072C22.7155 6.40379 22.7155 6.34995 22.7424 6.26918H21.8001C21.7462 6.26918 21.6662 6.34995 21.6385 6.40379C21.397 6.80687 21.1285 7.23764 20.8862 7.64149C20.7785 7.82918 20.6447 8.04456 20.5101 8.25995C20.2678 7.90995 20.0793 7.58764 19.8916 7.26456C19.7039 6.94149 19.4885 6.61841 19.3001 6.29533C18.9778 6.24149 18.4131 6.24149 18.2516 6.32302L20.027 9.22841ZM24.8924 49.2646C24.8116 49.2646 24.7308 49.2376 24.677 49.2376H21.3708C21.2901 49.2376 21.237 49.2646 21.1555 49.2646V50.1523C21.3708 50.2061 21.6131 50.1792 21.8278 50.1792H22.5539V54.1076C22.8493 54.1615 23.3332 54.1615 23.5216 54.0807V50.1792C23.9785 50.1523 24.4355 50.2061 24.8924 50.1253V49.2646ZM26.6132 12.323C26.6132 12.6184 26.5593 12.9153 26.667 13.2107H28.0108V16.8969C28.0108 16.9776 28.0108 17.0853 28.0378 17.193H28.9516C29.0055 16.8969 28.9785 16.6546 28.9785 16.3853V13.9907C28.9785 13.7215 28.9516 13.4523 29.0055 13.1838H30.3493C30.4032 12.9146 30.4032 12.4576 30.3493 12.2961C29.8116 12.2423 26.8278 12.2692 26.6132 12.323ZM38.1993 16.2776V12.2692H37.2578C37.2578 12.323 37.2316 12.3507 37.2316 12.3769V17.1399L37.2578 17.1669C37.2847 17.1669 37.2847 17.1938 37.3116 17.1938H40.5385L40.5655 17.1399V16.7361C40.5655 16.6015 40.5924 16.4399 40.5385 16.2784H38.2001L38.1993 16.2776ZM32.8232 49.2646C32.527 49.2107 32.0693 49.2376 31.9085 49.2915C31.8547 49.6146 31.8816 53.973 31.9355 54.1607C32.2847 54.2146 32.6885 54.1884 32.8493 54.1346V49.453C32.8493 49.3723 32.8232 49.3184 32.8232 49.2646ZM25.7524 49.2915V54.1607C26.0755 54.1884 26.3447 54.1607 26.667 54.1607C26.667 54.0538 26.6939 53.973 26.6939 53.8653V49.5338C26.6939 49.4261 26.6939 49.3184 26.5862 49.2376H25.8062C25.8062 49.2376 25.8062 49.2646 25.7524 49.2915ZM30.9678 12.2961C30.9139 12.7807 30.9408 17.0038 30.9947 17.193H31.8547V12.2961H30.9678Z" fill="white"/>
<path d="M23.1724 6.26916C23.2262 6.26916 23.3062 6.24224 23.3878 6.24224H25.3224C25.6724 6.24224 26.0216 6.29608 26.317 6.48455C26.6132 6.64608 26.7739 6.91532 26.8555 7.23762C26.9093 7.42609 26.9355 7.61455 26.8816 7.82993C26.8278 8.09916 26.6939 8.3407 26.4785 8.50224C26.4516 8.52916 26.4247 8.55609 26.4247 8.58301V8.60993C26.4785 8.63685 26.5324 8.6907 26.5862 8.71762C26.9093 8.93301 27.0701 9.25609 27.097 9.63224C27.1239 10.0361 27.0162 10.3861 26.7478 10.6815C26.6132 10.843 26.4247 10.9776 26.2093 11.0315C26.0216 11.1122 25.8062 11.1392 25.5916 11.1392H23.1993C23.1455 10.9507 23.1185 6.56531 23.1724 6.26916ZM24.1131 10.2776H25.5108C25.7801 10.2776 26.0216 10.1161 26.0755 9.9007C26.1831 9.55147 25.9947 9.20147 25.6447 9.1207C25.5647 9.09378 25.4839 9.09378 25.4301 9.09378H24.1124L24.1131 10.2776ZM24.1131 8.15224C24.1401 8.15224 24.167 8.17916 24.1939 8.17916H25.2955C25.4032 8.17916 25.5378 8.15224 25.6455 8.12532C25.887 8.04455 26.0216 7.74839 25.9408 7.47916C25.8601 7.23762 25.6716 7.15685 25.4301 7.15685H24.1393C24.1131 7.50685 24.1131 7.82916 24.1131 8.15224ZM23.1185 17.1922H22.2308C22.2308 17.1661 22.2039 17.1661 22.2039 17.1661V12.2961C22.4993 12.2692 22.7947 12.2961 23.0639 12.2961C23.7362 13.2915 24.4078 14.2599 25.0793 15.2553H25.1332C25.187 15.013 25.1608 14.7707 25.1608 14.5292V12.323H26.0747L26.1016 12.3499C26.1016 12.3499 26.1285 12.3499 26.1285 12.3769V17.1384C26.1285 17.1661 26.1285 17.1661 26.1016 17.1922C26.1016 17.2199 26.0747 17.2199 26.0747 17.2461H25.2947C25.187 17.0845 25.0532 16.8969 24.9185 16.7084C24.3808 15.9284 23.8701 15.1476 23.3324 14.3676C23.3055 14.3138 23.2516 14.2599 23.1985 14.2061C23.1178 14.2869 23.1447 14.3676 23.1447 14.4484V16.9238C23.1178 16.9776 23.1178 17.0853 23.1178 17.193L23.1185 17.1922ZM32.7155 9.36301V11.1392C32.3924 11.1661 32.097 11.1392 31.8008 11.1392L31.7739 11.1122V6.37685C31.7739 6.34993 31.7739 6.32301 31.8008 6.24224C31.8816 6.24224 31.9355 6.21531 32.0162 6.21531H34.0055C34.2747 6.21531 34.5701 6.24224 34.8385 6.34993C35.3493 6.56532 35.6185 6.91455 35.6993 7.47993C35.7262 7.74916 35.7262 8.01839 35.6455 8.25993C35.5378 8.63685 35.2955 8.90609 34.9732 9.12147C34.9193 9.14762 34.8655 9.17532 34.7847 9.20147C35.0808 9.8207 35.4032 10.4661 35.6993 11.0853C35.5378 11.1392 35.0001 11.1661 34.6508 11.1122L33.7632 9.33609C33.387 9.36301 33.0647 9.36301 32.7155 9.36301ZM32.7155 7.12993V8.39455C32.7693 8.39455 32.7955 8.42147 32.7955 8.42147H34.1401C34.1939 8.42147 34.2478 8.39455 34.3016 8.39455C34.5432 8.31378 34.6778 8.07147 34.6778 7.77609C34.6778 7.37224 34.4355 7.15685 34.0593 7.12993H32.7155ZM19.6508 52.2238C19.9462 52.843 20.2685 53.4884 20.5647 54.1076C20.5108 54.1346 20.5108 54.1346 20.4839 54.1346H19.5162C19.2208 53.5423 18.9247 52.9499 18.6024 52.3315H17.6078C17.5808 52.9238 17.6078 53.5161 17.6078 54.1346H16.6939C16.667 54.1076 16.667 54.1076 16.6401 54.1076V49.3184C16.6401 49.2915 16.6401 49.2915 16.667 49.2646L16.6939 49.2107C16.7478 49.2107 16.8016 49.1838 16.8555 49.1838H18.7901C19.0324 49.1838 19.2747 49.2376 19.5162 49.2915C20.0808 49.4261 20.4839 49.8838 20.5378 50.5023C20.5647 50.7446 20.5378 50.9869 20.4839 51.2023C20.3762 51.6053 20.1347 51.8746 19.8116 52.09C19.7847 52.1707 19.7047 52.1976 19.6508 52.2238ZM17.6078 51.4169H19.0324C19.0862 51.4169 19.1401 51.3899 19.1939 51.3899C19.5431 51.2823 19.6508 50.9053 19.5431 50.5561C19.4893 50.3138 19.3278 50.1523 18.9247 50.1253C18.6831 50.0984 18.4408 50.1253 18.1993 50.1253H17.607V51.4176L17.6078 51.4169ZM38.3601 54.1615C38.3062 53.8384 38.3332 49.4799 38.3601 49.2646C38.4139 49.2646 38.4947 49.2376 38.5755 49.2376C39.0055 49.2376 39.4355 49.2107 39.8385 49.2376C40.2424 49.2646 40.6455 49.2915 41.0216 49.453C41.5862 49.6953 41.9624 50.1253 42.1778 50.6907C42.3116 51.0399 42.3393 51.4169 42.3393 51.7938C42.3393 52.1976 42.2578 52.6015 42.097 52.9776C41.8008 53.5961 41.2901 53.973 40.6185 54.1346C40.4301 54.1884 40.2155 54.1884 40.0001 54.1884H38.5755C38.5216 54.1615 38.4408 54.1615 38.3601 54.1615ZM39.3278 53.2738C39.6778 53.2469 40.0001 53.3007 40.3224 53.2469C40.7532 53.1661 41.0216 52.9507 41.2101 52.5738C41.4785 51.9815 41.4785 51.3899 41.2101 50.8253C41.0485 50.5023 40.8062 50.2599 40.4301 50.2061C40.0808 50.1253 39.7047 50.1792 39.3278 50.1792V53.2738ZM35.4839 16.1707H33.6293C33.4947 16.5199 33.3601 16.8699 33.2262 17.193H32.2578C32.2578 17.1122 32.2578 17.0584 32.2847 17.0046C32.5808 16.2507 32.877 15.4707 33.1724 14.7176C33.4678 13.9099 33.7901 13.1299 34.0862 12.2961H35.027C35.3501 13.1038 35.6455 13.9099 35.9678 14.7176C36.2908 15.5253 36.5862 16.3315 36.9085 17.1392C36.747 17.2199 36.237 17.2199 35.9139 17.1661C35.7524 16.843 35.6185 16.5199 35.4839 16.1707ZM34.5701 13.7222C34.4624 13.8561 34.0316 14.8522 33.9516 15.2553H35.1885C34.9732 14.7445 34.7847 14.233 34.5701 13.7222ZM18.0647 12.2961H21.3708C21.4247 12.4576 21.4247 12.8345 21.3708 13.1569H19.0593C19.0055 13.3453 18.9785 13.8292 19.0324 14.1799H20.3762C20.457 14.3676 20.4839 14.6369 20.4301 15.0938C20.1885 15.1207 19.9462 15.0938 19.7316 15.1207H19.0316V16.3053H21.5316C21.5855 16.4669 21.5593 16.6284 21.5593 16.7622V17.193C21.3708 17.2469 18.817 17.2738 18.1455 17.2199C18.0647 17.1392 18.0647 17.0315 18.0647 16.9238V12.6184C18.0378 12.4845 18.0647 12.4038 18.0647 12.2961ZM30.9947 7.1307H28.6293V8.15224H30.0001V9.06762C29.5432 9.09378 29.0862 9.06762 28.6562 9.06762C28.6024 9.22916 28.6024 9.90147 28.6293 10.2238H31.1562V11.0584C30.9678 11.1122 27.9301 11.1122 27.6885 11.0584C27.6347 10.8699 27.6347 6.4307 27.6885 6.21531C27.7155 6.21531 27.7685 6.18839 27.8224 6.18839H30.887C30.9139 6.18839 30.9408 6.18839 30.9947 6.21531V7.1307ZM36.3439 51.2284V52.063C36.2101 52.1438 36.0485 52.09 35.9139 52.09H35.0001C34.9462 52.2776 34.9462 52.843 34.9732 53.2738H37.5001C37.5001 53.5692 37.527 53.8384 37.5001 54.1076C37.2847 54.1615 34.5693 54.1615 34.0593 54.1346C34.0593 54.1346 34.0324 54.1346 34.0324 54.1076C34.0324 54.1076 34.0055 54.1076 34.0055 54.0807V49.2376C34.0593 49.2107 34.1132 49.2107 34.167 49.2107H37.2847C37.3655 49.3723 37.3924 49.6415 37.3385 50.0723C37.1508 50.1261 36.9624 50.0984 36.7478 50.0984H34.9732C34.9462 50.4484 34.9732 50.7715 34.9462 51.1215C35.027 51.1215 35.1078 51.1476 35.1616 51.1476H36.1024C36.1832 51.1746 36.2901 51.1476 36.3439 51.2284ZM14.6508 51.1746V52.063C14.4085 52.1169 14.1939 52.09 13.9516 52.09H13.2793V53.2738H15.7793C15.8601 53.4353 15.8062 53.5692 15.8062 53.7046V54.1076C15.6185 54.1615 15.4301 54.1346 15.2424 54.1346H12.3924L12.3655 54.1076C12.3655 54.1076 12.3385 54.1076 12.3385 54.0807V49.3184C12.3385 49.2915 12.3655 49.2915 12.3655 49.2646C12.3924 49.2646 12.4193 49.2376 12.4731 49.2376H15.6185C15.6993 49.4261 15.6993 49.7761 15.6724 50.153C14.8924 50.1792 14.1131 50.153 13.3339 50.153C13.2801 50.3146 13.3062 50.4753 13.3062 50.6369V51.1476C13.4678 51.2015 13.6024 51.1746 13.7631 51.1746H14.6508ZM9.24776 16.2776V17.0584C9.24776 17.0853 9.24776 17.1122 9.22084 17.1392C9.03238 17.193 6.10237 17.193 5.80622 17.1661L5.7793 17.1392V12.2961L5.80622 12.2692H9.03237C9.0593 12.2692 9.0593 12.2692 9.08622 12.2961V13.1038C8.81699 13.1569 8.57545 13.1299 8.30622 13.1299H6.74776C6.69391 13.3184 6.66699 13.7492 6.72084 14.153H8.09161C8.17237 14.3407 8.17237 14.7715 8.11853 15.0669H6.72084V16.2245C7.01622 16.2507 7.28468 16.2245 7.58084 16.2507H8.41391C8.65622 16.2776 8.95238 16.2776 9.24776 16.2776ZM17.3116 13.3184C17.0162 13.4261 16.7478 13.5069 16.4785 13.5876C16.4247 13.5338 16.3978 13.4799 16.3708 13.4261C16.1831 13.2107 15.9678 13.0761 15.6724 13.0761H15.5108C15.2155 13.0761 15.0539 13.1838 14.9462 13.5069C14.9731 13.7222 15.0808 13.8299 15.2693 13.9099C15.5378 14.0176 15.8062 14.1253 16.0755 14.2061C16.3985 14.3138 16.6939 14.4484 16.9624 14.6638C17.2855 14.933 17.4731 15.2561 17.4731 15.6592C17.4731 15.8745 17.4731 16.1169 17.3655 16.3053C17.1778 16.7622 16.8008 17.0315 16.317 17.1392C15.7262 17.2738 15.1616 17.2469 14.6239 16.9507C14.2208 16.7084 13.9516 16.3584 13.7901 15.8738C14.0862 15.7661 14.3547 15.6592 14.6239 15.5515C14.7047 15.6592 14.7855 15.7669 14.8393 15.8745C15.0539 16.1707 15.3224 16.3053 15.6724 16.3315C15.8878 16.3584 16.1024 16.3046 16.2901 16.1699C16.5593 15.9822 16.5593 15.6053 16.3439 15.3899C16.1562 15.2015 15.9408 15.1476 15.6993 15.0669C15.3493 14.933 14.9731 14.8253 14.6508 14.6361C14.3547 14.4745 14.1401 14.2599 14.0324 13.9099C13.817 13.1838 14.167 12.5653 14.8116 12.2961C15.0969 12.1625 15.4124 12.1067 15.7262 12.1345C16.5055 12.2422 17.0701 12.5653 17.3116 13.3184ZM10.8062 13.6415C10.9139 13.8569 11.1024 13.9369 11.317 14.0184C11.6131 14.1261 11.9093 14.2061 12.1778 14.3138C12.4731 14.4215 12.7685 14.583 12.9839 14.8253C13.2531 15.1484 13.387 15.5253 13.307 15.9553C13.2793 16.1707 13.2262 16.3584 13.0916 16.5476C12.8762 16.8969 12.5531 17.0853 12.1778 17.1661C11.6931 17.2738 11.2101 17.2738 10.7262 17.0853C10.2155 16.8699 9.89238 16.5199 9.67776 16.0084V15.8745C9.9193 15.7399 10.2155 15.6592 10.4839 15.5515C10.5378 15.6592 10.5916 15.7399 10.6455 15.8207C10.8608 16.1438 11.1562 16.3053 11.5324 16.3315C11.7478 16.3315 11.9631 16.3046 12.1508 16.1699C12.3662 16.0084 12.4739 15.6053 12.1778 15.363C12.0431 15.2553 11.8547 15.1745 11.6931 15.1207C11.4247 15.013 11.1293 14.933 10.8601 14.8253C10.6447 14.7445 10.4301 14.6369 10.2685 14.4753C9.59699 13.883 9.73161 12.8069 10.5108 12.4038C10.913 12.1857 11.3771 12.1098 11.8278 12.1884C12.2047 12.2692 12.5539 12.4038 12.7955 12.6992C12.957 12.8607 13.0647 13.0492 13.0916 13.3184C12.8224 13.3992 12.5808 13.5069 12.3116 13.5876C12.2578 13.5338 12.2316 13.4799 12.1778 13.4261C12.0162 13.1838 11.8008 13.0761 11.5055 13.0761H11.2362C10.9408 13.1299 10.8062 13.3184 10.8062 13.6415ZM44.3547 13.3184C44.0593 13.4261 43.7901 13.5069 43.5216 13.5876C43.4408 13.5069 43.387 13.3992 43.3062 13.3453C43.037 13.0761 42.527 12.9953 42.2047 13.1838C41.9624 13.3184 41.9085 13.5876 42.1239 13.7761C42.2316 13.8838 42.3932 13.9638 42.5539 14.0176C42.877 14.1522 43.2262 14.2599 43.5485 14.3945C43.9255 14.5561 44.2478 14.7984 44.4355 15.2022C44.7316 15.8745 44.4624 16.7084 43.817 17.0315C43.0916 17.3815 42.3924 17.3815 41.667 16.9776C41.2901 16.7622 41.0485 16.4122 40.887 16.0084V15.9007C41.1562 15.793 41.4255 15.6853 41.7208 15.6053C41.8547 15.8476 41.9893 16.063 42.2316 16.2238C42.5809 16.4122 42.9301 16.4661 43.2793 16.2776C43.3632 16.2379 43.4352 16.1769 43.4882 16.1007C43.5412 16.0246 43.5734 15.9359 43.5816 15.8434C43.5897 15.751 43.5736 15.658 43.5347 15.5738C43.4959 15.4895 43.4357 15.4168 43.3601 15.363C43.1447 15.2015 42.9032 15.1476 42.6616 15.0669C42.2847 14.933 41.8816 14.8253 41.5593 14.5561C41.317 14.3676 41.1562 14.1253 41.1024 13.8292C40.9139 12.9145 41.5862 12.3499 42.2578 12.2153C42.6521 12.1336 43.0613 12.1616 43.4408 12.2961C43.8978 12.4845 44.1939 12.8345 44.3547 13.3184ZM18.1455 7.26455C18.1185 7.29147 18.0916 7.31839 18.0378 7.34532C17.7955 7.45301 17.5808 7.5607 17.3116 7.66839C17.2316 7.58762 17.1778 7.50685 17.1239 7.45301C16.7208 6.96839 15.9947 7.02224 15.6724 7.45301C15.5378 7.61455 15.457 7.80224 15.4031 8.01762C15.2685 8.55609 15.2685 9.1207 15.4839 9.65916C15.5916 9.95532 15.7793 10.1707 16.0755 10.3053C16.4785 10.4669 16.8008 10.3053 17.0431 10.0092C17.1239 9.92839 17.1778 9.8207 17.2585 9.71301C17.527 9.8207 17.8224 9.92839 18.1185 10.0361C18.0647 10.2776 17.9031 10.4669 17.7685 10.6284C17.3655 11.1122 16.8547 11.3007 16.237 11.2469C15.4301 11.193 14.8655 10.7892 14.5431 10.0361C14.4355 9.73993 14.3278 9.4707 14.3278 9.14762C14.3278 8.95993 14.2739 8.7707 14.3008 8.60916C14.3547 7.93685 14.4893 7.31839 14.947 6.80685C15.1885 6.51147 15.5108 6.32224 15.887 6.24224C16.1352 6.17659 16.3942 6.16183 16.6482 6.19884C16.9023 6.23586 17.1463 6.32388 17.3655 6.45762C17.7424 6.61916 17.9839 6.88839 18.1455 7.26455ZM10.6185 50.6638C10.535 50.5596 10.4451 50.4607 10.3493 50.3676C10.0262 49.9907 9.32776 50.0176 9.00545 50.4753C8.82431 50.7293 8.71291 51.0264 8.68237 51.3369C8.68237 51.4446 8.62853 51.5515 8.62853 51.6592C8.65622 52.1438 8.71007 52.6284 9.03237 53.0046C9.30161 53.3276 9.83853 53.4892 10.2685 53.1123C10.3762 53.0046 10.4839 52.8699 10.6185 52.7353C10.9139 52.7623 11.1831 52.9238 11.4785 53.0315C11.1831 53.6499 10.7793 54.0807 10.0808 54.2153C9.54238 54.323 9.03237 54.2153 8.57545 53.9192C8.17237 53.6499 7.95699 53.273 7.82237 52.8161C7.68853 52.3584 7.63468 51.8746 7.68853 51.3899C7.74237 50.8253 7.90391 50.3138 8.2793 49.8561C8.51628 49.5569 8.84855 49.3479 9.22084 49.2638C9.81161 49.103 10.3762 49.2107 10.9139 49.5607C11.1562 49.7223 11.3708 49.9915 11.5055 50.3146C11.1562 50.4215 10.887 50.5561 10.6185 50.6638ZM31.1024 50.1523H28.7639V51.1753H30.2155C30.2955 51.3369 30.2424 51.4984 30.2424 51.6323V52.063C30.0808 52.1438 29.8924 52.09 29.7316 52.09H28.737V54.1346H27.8493C27.7955 53.9461 27.7955 49.5607 27.8493 49.2646C27.9032 49.2646 27.957 49.2376 28.0108 49.2376H30.9947C31.0216 49.2376 31.0485 49.2376 31.0755 49.2646C31.1562 49.3992 31.1024 49.5607 31.1024 49.6953V50.1523ZM20.027 9.22839C19.4355 8.25993 18.8439 7.26455 18.2524 6.29608C18.4139 6.21532 19.0055 6.21531 19.3008 6.26916C19.4893 6.59224 19.6778 6.91532 19.8931 7.23762C20.0808 7.5607 20.2685 7.88378 20.5108 8.23301C20.6455 7.9907 20.7801 7.80224 20.8878 7.61455C21.1293 7.2107 21.3708 6.77993 21.6401 6.37608C21.667 6.32224 21.7478 6.24224 21.8016 6.24224C22.097 6.21531 22.4193 6.24224 22.7424 6.24224C22.7155 6.32301 22.7155 6.37685 22.6885 6.40378C22.1501 7.26455 21.6401 8.12532 21.1024 8.98685C21.0176 9.12446 20.9712 9.2822 20.9678 9.44378V11.1122C20.6447 11.1392 20.3493 11.1122 20.027 11.1122C20.0001 10.8969 20.027 10.6815 20.027 10.4661V9.22839ZM24.8924 49.2646V50.1523C24.4355 50.233 23.9785 50.1523 23.5216 50.2061V54.1076C23.3331 54.1615 22.8493 54.1884 22.5539 54.1346V50.2061H21.8278C21.6124 50.2061 21.3708 50.233 21.1562 50.1792V49.2923C21.237 49.2923 21.3178 49.2653 21.3716 49.2653H24.6778C24.7316 49.2384 24.8116 49.2384 24.8932 49.2653L24.8924 49.2646ZM26.6132 12.323C26.8285 12.2692 29.8385 12.2692 30.3224 12.2961C30.3762 12.4576 30.3762 12.9145 30.3224 13.1838H28.9785C28.9516 13.4799 28.9516 13.7222 28.9516 13.9915V16.3853C28.9516 16.6546 28.9785 16.923 28.9247 17.1922C28.6293 17.2192 28.3332 17.1922 28.0108 17.1922C28.0108 17.0846 27.9839 16.9769 27.9839 16.8961V13.2099H26.6401C26.5593 12.8869 26.6132 12.5915 26.6132 12.3222V12.323ZM38.1993 16.2776H40.5108C40.5647 16.4392 40.5378 16.6007 40.5378 16.7353V17.1392C40.5108 17.1661 40.5108 17.1661 40.5108 17.193H37.2847C37.2578 17.193 37.2578 17.193 37.2308 17.1661L37.2047 17.1392V12.3769C37.2047 12.3499 37.2047 12.323 37.2316 12.2692C37.527 12.2422 37.8493 12.2692 38.1724 12.2692C38.1993 12.6184 38.1724 12.9415 38.1724 13.2915V15.2561C38.1993 15.6053 38.1993 15.9284 38.1993 16.2776ZM32.8232 49.2646C32.8232 49.3184 32.8493 49.3723 32.8493 49.453V54.1346C32.6878 54.1884 32.2847 54.2153 31.9355 54.1615C31.8816 54 31.8816 49.6146 31.9085 49.2915C32.0701 49.2107 32.5008 49.2107 32.8232 49.2646ZM25.7524 49.2915C25.8062 49.2646 25.8062 49.2376 25.8332 49.2376H26.6132C26.7208 49.3184 26.7208 49.4261 26.7208 49.5338V53.8653C26.7208 53.9461 26.6939 54.0538 26.6939 54.1615H25.7793C25.7524 52.52 25.7524 50.9061 25.7524 49.2915ZM30.9678 12.2961H31.8547V17.193C31.5593 17.2199 31.2632 17.193 30.9947 17.193C30.9408 17.0045 30.9139 12.7799 30.9678 12.2961ZM16.8816 39.8476C17.436 36.4299 18.74 33.1772 20.7001 30.323V30.2153C20.4039 30.5653 20.0816 30.9153 19.7055 31.2107C18.8867 31.9028 17.9214 32.3997 16.8824 32.6638C16.3049 32.8252 15.7081 32.9067 15.1085 32.9061H14.5439C14.1947 32.9061 13.8178 32.8522 13.4955 32.7984C12.7162 32.6369 11.9901 32.3946 11.2908 31.9907C10.5355 31.5663 9.86191 31.0107 9.30161 30.3499C9.19391 30.2153 9.08622 30.0807 8.95237 29.9192C8.92545 30.1076 8.95238 30.2422 8.9793 30.3769C9.08699 30.8876 9.14084 31.3992 9.24853 31.9099C9.46391 32.9061 9.73238 33.8746 10.0816 34.843C10.9248 37.1379 12.1321 39.282 13.657 41.193C14.0601 41.6776 14.4631 42.1884 14.8931 42.6722C15.1085 42.9415 15.3501 43.2107 15.5924 43.453C15.8878 43.7761 16.2108 44.0715 16.5062 44.3946C16.5062 42.8876 16.6139 41.3815 16.8831 39.8476H16.8816Z" fill="#3704FF"/>
<path d="M40.1076 22.6814C39.7845 22.3314 39.4353 22.0091 39.1129 21.6861C38.9514 21.5245 38.7899 21.3899 38.6283 21.2553C38.2791 21.013 37.9568 20.7445 37.5806 20.5553C37.1776 20.3407 36.7476 20.1253 36.2899 19.9907L35.5645 19.8291C35.1876 19.7214 34.8114 19.7491 34.4353 19.6953C34.166 19.6684 33.8706 19.7222 33.6022 19.7222C33.1991 19.7491 32.8222 19.8299 32.446 19.9099C32.0691 19.9907 31.7206 20.1522 31.3437 20.2868C30.6453 20.5291 29.9999 20.9061 29.3822 21.2822C28.9245 21.5514 28.4945 21.8745 28.0645 22.1976C27.7414 22.4391 27.4191 22.6545 27.1237 22.9237C26.8276 23.1391 26.5591 23.4084 26.2899 23.6499C25.9676 23.9461 25.6183 24.2422 25.2952 24.5384C25.026 24.8076 24.7576 25.103 24.516 25.3722C24.1668 25.7491 23.8168 26.0984 23.4945 26.5022C23.1482 26.9119 22.8165 27.3337 22.4999 27.7668C22.1229 28.2776 21.7206 28.7891 21.3706 29.3276C21.1552 29.6507 20.9406 29.9461 20.6991 30.2153V30.323C18.8437 33.013 17.4729 36.2422 16.8545 39.8476C16.5934 41.3486 16.4765 42.8712 16.5052 44.3945L16.5591 44.4484C16.586 44.4753 16.6129 44.4753 16.6129 44.4753C16.8006 43.9907 16.9891 43.5061 17.2045 43.0222C17.3922 42.5914 17.5806 42.1607 17.7952 41.7576C17.9568 41.4076 18.1452 41.0853 18.3337 40.7353C18.5483 40.3584 18.7629 39.9814 18.9783 39.6322C19.2206 39.2553 19.4352 38.8522 19.6776 38.5014C20.1551 37.8004 20.648 37.11 21.156 36.4307C21.4783 35.9999 21.8276 35.5691 22.1776 35.1384C22.4191 34.843 22.6614 34.5737 22.9029 34.3045C23.254 33.9032 23.6125 33.5086 23.9783 33.1207C24.4307 32.6412 24.8968 32.1748 25.376 31.7222C25.6183 31.4799 25.8868 31.2376 26.156 30.9953L26.1829 30.9684C26.3983 30.8068 26.586 30.6184 26.8006 30.4576C26.9622 30.323 27.0968 30.1884 27.2576 30.0537C27.5537 29.8114 27.8499 29.5961 28.1453 29.3814C28.5867 29.0407 29.0347 28.7086 29.4891 28.3853C29.9737 28.0622 30.4837 27.7391 30.9676 27.4168C31.6668 26.9322 32.4191 26.5553 33.1445 26.1522C33.5976 25.9097 34.0646 25.6939 34.5429 25.5061C35.1076 25.2645 35.6991 25.0222 36.2629 24.8337C36.7476 24.6453 37.2576 24.5107 37.7683 24.403C38.1453 24.323 38.5214 24.2153 38.8976 24.1337H38.9783C39.3276 24.1337 39.6506 24.0268 39.9729 24.0268C40.2683 24.0268 40.5914 23.973 40.8868 23.9461C40.9137 23.9461 40.9676 23.9191 41.0214 23.9191C40.9202 23.7708 40.8124 23.627 40.6983 23.4884C40.5299 23.1996 40.332 22.9292 40.1076 22.6814Z" fill="#3704FF" fill-opacity="0.5"/>
</svg>
