<svg width="569" height="301" viewBox="0 0 569 301" fill="none" xmlns="http://www.w3.org/2000/svg">
<g clip-path="url(#clip0_2743_35870)">
<path opacity="0.4" d="M568.33 150.422C568.33 233.498 500.987 300.843 417.915 300.843C334.843 300.843 267.5 233.498 267.5 150.422C267.5 67.3461 334.843 0 417.915 0C500.987 0 568.33 67.3461 568.33 150.422ZM302.081 150.422C302.081 214.397 353.942 266.26 417.915 266.26C481.888 266.26 533.749 214.397 533.749 150.422C533.749 86.4459 481.888 34.5832 417.915 34.5832C353.942 34.5832 302.081 86.4459 302.081 150.422Z" fill="#3704FF"/>
<path opacity="0.4" d="M301.33 150.422C301.33 233.498 233.987 300.843 150.915 300.843C67.8432 300.843 0.5 233.498 0.5 150.422C0.5 67.3461 67.8432 0 150.915 0C233.987 0 301.33 67.3461 301.33 150.422ZM35.0816 150.422C35.0816 214.397 86.9423 266.26 150.915 266.26C214.888 266.26 266.749 214.397 266.749 150.422C266.749 86.4459 214.888 34.5832 150.915 34.5832C86.9423 34.5832 35.0816 86.4459 35.0816 150.422Z" fill="#3704FF"/>
<path d="M267.182 139.076C267.182 112.419 277.866 89.1346 292.407 67.2503C306.948 45.366 326.968 27.6726 350.472 15.9315C373.978 4.19049 400.149 -1.18864 426.378 0.32979C452.609 1.8481 477.984 10.211 499.976 24.5859C521.97 38.9607 539.814 58.8461 551.733 82.262C563.653 105.678 569.23 131.807 567.911 158.05C566.593 184.292 558.423 209.731 544.217 231.833C533.137 249.073 518.686 263.813 501.797 275.205C493.881 280.546 483.374 277.158 478.977 268.681C474.582 260.202 477.987 249.863 485.716 244.255C497.328 235.829 507.315 225.288 515.127 213.134C526.067 196.113 532.358 176.522 533.373 156.314C534.389 136.105 530.093 115.983 520.915 97.9505C511.736 79.9181 497.994 64.6045 481.057 53.5345C464.12 42.4646 444.579 36.0244 424.38 34.8551C404.18 33.6858 384.027 37.8282 365.926 46.8699C347.824 55.9115 332.961 70.178 321.763 87.0309C310.565 103.883 304.045 121.424 302.723 141.614L267.182 139.076Z" fill="#3704FF"/>
<path d="M302.722 141.614C302.722 173.984 297.589 199.338 281.306 226.937C265.025 254.535 240.354 276.212 210.892 288.811C181.43 301.408 148.714 304.266 117.513 296.971C91.9472 290.993 68.4933 278.454 49.3999 260.72C42.4026 254.221 43.3174 243.219 50.5757 237.013C57.8338 230.807 68.6757 231.78 75.8919 238.034C90.0318 250.29 107 258.997 125.386 263.296C149.415 268.914 174.608 266.713 197.297 257.011C219.985 247.311 238.985 230.617 251.523 209.362C264.061 188.109 269.662 163.628 267.181 139.076L302.722 141.614Z" fill="#3704FF"/>
<path d="M86.8929 162V140.522H93.9274C96.0993 140.522 97.9924 140.964 99.6069 141.848C101.221 142.732 102.471 143.981 103.355 145.596C104.239 147.191 104.681 149.075 104.681 151.246C104.681 153.399 104.239 155.283 103.355 156.897C102.471 158.512 101.221 159.77 99.6069 160.674C97.9924 161.558 96.0993 162 93.9274 162H86.8929ZM89.7182 159.405H93.9562C95.5515 159.405 96.9257 159.069 98.0789 158.396C99.2514 157.724 100.155 156.782 100.789 155.571C101.423 154.341 101.74 152.899 101.74 151.246C101.74 149.574 101.414 148.133 100.76 146.922C100.126 145.711 99.2225 144.779 98.0501 144.125C96.8969 143.453 95.5323 143.116 93.9562 143.116H89.7182V159.405ZM107.445 162V146.461H110.126V162H107.445ZM107.445 143.981V140.522H110.126V143.981H107.445ZM119.351 162.346C117.794 162.346 116.439 161.962 115.286 161.193C114.132 160.424 113.315 159.386 112.835 158.079L114.968 157.041C115.41 157.964 116.016 158.694 116.785 159.232C117.553 159.77 118.409 160.04 119.351 160.04C120.196 160.04 120.898 159.838 121.455 159.434C122.013 159.031 122.291 158.502 122.291 157.848C122.291 157.387 122.157 157.022 121.888 156.753C121.638 156.465 121.33 156.244 120.965 156.09C120.6 155.917 120.264 155.792 119.956 155.715L117.621 155.052C116.218 154.648 115.189 154.072 114.536 153.322C113.902 152.573 113.585 151.698 113.585 150.699C113.585 149.776 113.815 148.978 114.276 148.306C114.757 147.614 115.401 147.076 116.208 146.691C117.035 146.307 117.957 146.115 118.976 146.115C120.34 146.115 121.561 146.461 122.637 147.153C123.733 147.844 124.511 148.815 124.972 150.064L122.781 151.073C122.435 150.266 121.916 149.632 121.225 149.171C120.533 148.69 119.754 148.45 118.889 148.45C118.101 148.45 117.477 148.652 117.015 149.055C116.554 149.44 116.323 149.93 116.323 150.526C116.323 150.968 116.439 151.333 116.669 151.621C116.9 151.89 117.179 152.102 117.505 152.255C117.832 152.39 118.149 152.505 118.457 152.601L120.994 153.351C122.262 153.716 123.243 154.283 123.935 155.052C124.646 155.821 125.001 156.743 125.001 157.82C125.001 158.685 124.761 159.463 124.28 160.155C123.8 160.847 123.137 161.385 122.291 161.769C121.446 162.154 120.465 162.346 119.351 162.346ZM135.219 162.346C133.7 162.346 132.345 161.99 131.154 161.279C129.981 160.568 129.059 159.597 128.386 158.367C127.713 157.137 127.377 155.753 127.377 154.216C127.377 152.659 127.713 151.275 128.386 150.064C129.059 148.854 129.981 147.893 131.154 147.181C132.345 146.47 133.7 146.115 135.219 146.115C136.237 146.115 137.189 146.297 138.073 146.662C138.957 147.028 139.735 147.518 140.408 148.133C141.081 148.748 141.571 149.469 141.878 150.295L139.485 151.448C139.12 150.641 138.563 149.987 137.813 149.488C137.064 148.969 136.199 148.709 135.219 148.709C134.277 148.709 133.421 148.95 132.653 149.43C131.903 149.911 131.307 150.564 130.865 151.391C130.423 152.217 130.202 153.168 130.202 154.245C130.202 155.283 130.423 156.224 130.865 157.07C131.307 157.897 131.903 158.55 132.653 159.031C133.421 159.511 134.277 159.751 135.219 159.751C136.199 159.751 137.064 159.501 137.813 159.002C138.563 158.483 139.12 157.8 139.485 156.955L141.878 158.166C141.571 158.973 141.081 159.694 140.408 160.328C139.735 160.943 138.957 161.433 138.073 161.798C137.189 162.163 136.237 162.346 135.219 162.346ZM152.263 162.346C150.764 162.346 149.409 162 148.198 161.308C146.987 160.597 146.026 159.626 145.315 158.396C144.604 157.166 144.248 155.773 144.248 154.216C144.248 152.659 144.594 151.275 145.286 150.064C145.997 148.854 146.958 147.893 148.169 147.181C149.38 146.47 150.744 146.115 152.263 146.115C153.762 146.115 155.117 146.47 156.328 147.181C157.539 147.873 158.49 148.825 159.182 150.036C159.893 151.246 160.249 152.64 160.249 154.216C160.249 155.792 159.883 157.195 159.153 158.425C158.423 159.636 157.452 160.597 156.241 161.308C155.05 162 153.723 162.346 152.263 162.346ZM152.263 159.751C153.224 159.751 154.089 159.511 154.857 159.031C155.645 158.55 156.261 157.887 156.703 157.041C157.164 156.196 157.394 155.254 157.394 154.216C157.394 153.159 157.164 152.227 156.703 151.419C156.261 150.593 155.645 149.939 154.857 149.459C154.089 148.959 153.224 148.709 152.263 148.709C151.283 148.709 150.398 148.959 149.61 149.459C148.842 149.939 148.227 150.593 147.765 151.419C147.304 152.227 147.073 153.159 147.073 154.216C147.073 155.254 147.304 156.196 147.765 157.041C148.227 157.887 148.842 158.55 149.61 159.031C150.398 159.511 151.283 159.751 152.263 159.751ZM167.289 162L161.205 146.461H164.204L169.076 159.607H168.038L172.939 146.461H175.938L169.826 162H167.289ZM184.705 162.346C183.205 162.346 181.87 161.99 180.697 161.279C179.525 160.568 178.602 159.597 177.93 158.367C177.257 157.118 176.921 155.725 176.921 154.187C176.921 152.63 177.247 151.246 177.901 150.036C178.573 148.825 179.477 147.873 180.611 147.181C181.764 146.47 183.052 146.115 184.474 146.115C185.627 146.115 186.646 146.326 187.53 146.749C188.433 147.153 189.193 147.71 189.808 148.421C190.442 149.113 190.922 149.911 191.249 150.814C191.595 151.698 191.768 152.621 191.768 153.582C191.768 153.793 191.749 154.033 191.71 154.302C191.691 154.552 191.662 154.792 191.624 155.023H178.881V152.717H190.067L188.799 153.755C188.971 152.755 188.875 151.861 188.51 151.073C188.145 150.285 187.607 149.661 186.896 149.199C186.185 148.738 185.377 148.508 184.474 148.508C183.571 148.508 182.744 148.738 181.995 149.199C181.245 149.661 180.659 150.324 180.236 151.189C179.832 152.034 179.669 153.043 179.746 154.216C179.669 155.35 179.842 156.349 180.265 157.214C180.707 158.06 181.322 158.723 182.11 159.203C182.917 159.665 183.792 159.895 184.733 159.895C185.771 159.895 186.646 159.655 187.357 159.175C188.068 158.694 188.645 158.079 189.087 157.33L191.336 158.483C191.028 159.194 190.548 159.847 189.894 160.443C189.26 161.02 188.501 161.481 187.616 161.827C186.752 162.173 185.781 162.346 184.705 162.346ZM194.764 162V146.461H197.387V149.315L197.099 148.911C197.464 148.027 198.022 147.374 198.771 146.951C199.521 146.509 200.434 146.288 201.51 146.288H202.461V148.825H201.106C200.011 148.825 199.127 149.171 198.454 149.863C197.781 150.535 197.445 151.496 197.445 152.746V162H194.764ZM205.179 168.343C204.833 168.343 204.487 168.314 204.141 168.256C203.795 168.198 203.469 168.102 203.161 167.968V165.575C203.372 165.613 203.632 165.652 203.939 165.69C204.266 165.748 204.583 165.777 204.891 165.777C205.794 165.777 206.477 165.575 206.938 165.171C207.418 164.787 207.87 164.114 208.293 163.153L209.273 160.818L209.215 163.153L202.584 146.461H205.496L210.657 159.722H209.792L214.924 146.461H217.893L210.888 163.845C210.561 164.672 210.138 165.421 209.619 166.094C209.119 166.786 208.504 167.334 207.774 167.737C207.044 168.141 206.179 168.343 205.179 168.343Z" fill="#01062E"/>
<path d="M365.893 162V140.522H372.927C375.099 140.522 376.992 140.964 378.607 141.848C380.221 142.732 381.471 143.981 382.355 145.596C383.239 147.191 383.681 149.075 383.681 151.246C383.681 153.399 383.239 155.283 382.355 156.897C381.471 158.512 380.221 159.77 378.607 160.674C376.992 161.558 375.099 162 372.927 162H365.893ZM368.718 159.405H372.956C374.552 159.405 375.926 159.069 377.079 158.396C378.251 157.724 379.155 156.782 379.789 155.571C380.423 154.341 380.74 152.899 380.74 151.246C380.74 149.574 380.414 148.133 379.76 146.922C379.126 145.711 378.223 144.779 377.05 144.125C375.897 143.453 374.532 143.116 372.956 143.116H368.718V159.405ZM393.595 162.346C392.096 162.346 390.76 161.99 389.587 161.279C388.415 160.568 387.492 159.597 386.82 158.367C386.147 157.118 385.811 155.725 385.811 154.187C385.811 152.63 386.137 151.246 386.791 150.036C387.464 148.825 388.367 147.873 389.501 147.181C390.654 146.47 391.942 146.115 393.364 146.115C394.517 146.115 395.536 146.326 396.42 146.749C397.323 147.153 398.083 147.71 398.698 148.421C399.332 149.113 399.812 149.911 400.139 150.814C400.485 151.698 400.658 152.621 400.658 153.582C400.658 153.793 400.639 154.033 400.6 154.302C400.581 154.552 400.552 154.792 400.514 155.023H387.771V152.717H398.957L397.689 153.755C397.862 152.755 397.765 151.861 397.4 151.073C397.035 150.285 396.497 149.661 395.786 149.199C395.075 148.738 394.267 148.508 393.364 148.508C392.461 148.508 391.634 148.738 390.885 149.199C390.135 149.661 389.549 150.324 389.126 151.189C388.722 152.034 388.559 153.043 388.636 154.216C388.559 155.35 388.732 156.349 389.155 157.214C389.597 158.06 390.212 158.723 391 159.203C391.807 159.665 392.682 159.895 393.624 159.895C394.661 159.895 395.536 159.655 396.247 159.175C396.958 158.694 397.535 158.079 397.977 157.33L400.226 158.483C399.918 159.194 399.438 159.847 398.784 160.443C398.15 161.02 397.391 161.481 396.507 161.827C395.642 162.173 394.671 162.346 393.595 162.346ZM403.654 162V140.176H406.335V162H403.654ZM409.995 162V146.461H412.677V162H409.995ZM409.995 143.981V140.522H412.677V143.981H409.995ZM420.661 162L414.578 146.461H417.577L422.449 159.607H421.411L426.312 146.461H429.31L423.198 162H420.661ZM438.077 162.346C436.578 162.346 435.243 161.99 434.07 161.279C432.898 160.568 431.975 159.597 431.302 158.367C430.63 157.118 430.293 155.725 430.293 154.187C430.293 152.63 430.62 151.246 431.274 150.036C431.946 148.825 432.85 147.873 433.984 147.181C435.137 146.47 436.425 146.115 437.847 146.115C439 146.115 440.019 146.326 440.903 146.749C441.806 147.153 442.565 147.71 443.18 148.421C443.815 149.113 444.295 149.911 444.622 150.814C444.968 151.698 445.141 152.621 445.141 153.582C445.141 153.793 445.122 154.033 445.083 154.302C445.064 154.552 445.035 154.792 444.997 155.023H432.254V152.717H443.44L442.171 153.755C442.344 152.755 442.248 151.861 441.883 151.073C441.518 150.285 440.98 149.661 440.269 149.199C439.557 148.738 438.75 148.508 437.847 148.508C436.943 148.508 436.117 148.738 435.367 149.199C434.618 149.661 434.032 150.324 433.609 151.189C433.205 152.034 433.042 153.043 433.119 154.216C433.042 155.35 433.215 156.349 433.638 157.214C434.08 158.06 434.695 158.723 435.483 159.203C436.29 159.665 437.165 159.895 438.106 159.895C439.144 159.895 440.019 159.655 440.73 159.175C441.441 158.694 442.018 158.079 442.46 157.33L444.708 158.483C444.401 159.194 443.92 159.847 443.267 160.443C442.633 161.02 441.873 161.481 440.989 161.827C440.124 162.173 439.154 162.346 438.077 162.346ZM448.137 162V146.461H450.76V149.315L450.472 148.911C450.837 148.027 451.394 147.374 452.144 146.951C452.894 146.509 453.807 146.288 454.883 146.288H455.834V148.825H454.479C453.384 148.825 452.5 149.171 451.827 149.863C451.154 150.535 450.818 151.496 450.818 152.746V162H448.137ZM458.552 168.343C458.206 168.343 457.86 168.314 457.514 168.256C457.168 168.198 456.841 168.102 456.534 167.968V165.575C456.745 165.613 457.005 165.652 457.312 165.69C457.639 165.748 457.956 165.777 458.264 165.777C459.167 165.777 459.849 165.575 460.311 165.171C460.791 164.787 461.243 164.114 461.666 163.153L462.646 160.818L462.588 163.153L455.957 146.461H458.869L464.03 159.722H463.165L468.297 146.461H471.266L464.26 163.845C463.934 164.672 463.511 165.421 462.992 166.094C462.492 166.786 461.877 167.334 461.147 167.737C460.416 168.141 459.551 168.343 458.552 168.343Z" fill="#01062E"/>
</g>
<defs>
<clipPath id="clip0_2743_35870">
<rect width="568" height="301" fill="white" transform="translate(0.5)"/>
</clipPath>
</defs>
</svg>
