<svg width="110" height="34" viewBox="0 0 110 34" fill="none" xmlns="http://www.w3.org/2000/svg">
<path fill-rule="evenodd" clip-rule="evenodd" d="M88.448 18.6615C88.26 18.1867 88.072 18.0445 87.789 18.0445C87.601 18.0445 87.46 18.0918 87.131 18.234C86.519 18.5193 85.719 18.7565 84.967 18.7565C83.461 18.7565 82.52 18.2821 82.52 16.6204V7.9343H87.036C87.789 7.9343 88.072 7.64979 88.072 6.89009V5.3714C88.072 4.61179 87.789 4.3273 87.036 4.3273H82.52V1.4319C82.52 0.672196 82.238 0.387695 81.485 0.387695H79.604C78.851 0.387695 78.569 0.672196 78.569 1.4319V16.5255C78.569 20.8449 81.156 22.4585 84.684 22.4585C86.001 22.4585 87.601 22.0314 88.73 21.462C89.106 21.272 89.248 21.0821 89.248 20.8449C89.248 20.6077 89.2 20.5124 89.106 20.2278L88.448 18.6615ZM19.8133 2.8083C19.5313 2.5234 19.3427 2.42879 19.1076 2.42879C18.8256 2.42879 18.637 2.5234 18.3078 2.8555L15.4381 5.5614C13.8858 4.4695 11.9574 3.8524 9.88717 3.8524C4.75947 3.8524 0.478867 7.6971 0.478867 13.1553C0.478867 18.6139 4.75947 22.4585 9.88717 22.4585C15.0148 22.4585 19.2958 18.6139 19.2958 13.1553C19.2958 11.4467 18.8725 9.88039 18.1668 8.55169L21.0837 5.7037C21.4125 5.4188 21.4597 5.1342 21.4597 4.9439C21.4597 4.6594 21.3656 4.5172 21.0364 4.1374L19.8133 2.8083ZM31.5737 3.8524C26.4464 3.8524 22.1654 7.6971 22.1654 13.1553C22.1654 18.6139 26.4464 22.4585 31.5737 22.4585C36.7014 22.4585 40.9819 18.6139 40.9819 13.1553C40.9819 7.6971 36.7014 3.8524 31.5737 3.8524ZM70.195 11.3994C67.749 10.4975 66.667 10.2603 66.667 8.8835C66.667 7.6498 67.655 7.175 69.019 7.175C70.101 7.175 71.089 7.4598 72.265 8.2668C72.5 8.4091 72.689 8.599 72.971 8.599C73.159 8.599 73.347 8.5041 73.535 8.2192L74.429 6.93769C74.664 6.55789 74.759 6.41569 74.759 6.22569C74.759 5.94089 74.617 5.7986 74.288 5.5614C72.736 4.4695 71.277 3.8524 68.831 3.8524C65.82 3.8524 62.8567 5.6559 62.8567 9.1684C62.8567 11.8738 64.2212 13.108 67.655 14.4371C69.772 15.2441 71.466 15.8134 71.466 17.2852C71.466 18.5193 70.478 19.1363 68.925 19.1363C67.561 19.1363 66.244 18.6139 64.7383 17.2375C64.5032 17.0476 64.3153 16.8576 64.0326 16.8576C63.7506 16.8576 63.6096 17.0003 63.3742 17.2852L62.2924 18.5666C62.151 18.7565 62.01 18.946 62.01 19.1836C62.01 19.4208 62.151 19.6108 62.4334 19.8957C64.0799 21.5569 66.338 22.4585 68.831 22.4585C72.924 22.4585 75.417 20.2278 75.417 16.9526C75.417 13.82 73.3 12.5386 70.195 11.3994ZM100.114 3.8524C94.986 3.8524 90.612 7.6971 90.612 13.1553C90.612 18.6139 94.986 22.4585 100.114 22.4585C105.242 22.4585 109.616 18.6139 109.616 13.1553C109.616 7.6971 105.242 3.8524 100.114 3.8524ZM58.5289 4.3273H56.6473C55.8947 4.3273 55.612 4.61179 55.612 5.3714V14.6743C55.612 17.6174 53.8718 18.7565 51.7547 18.7565C49.5912 18.7565 47.8971 17.6174 47.8971 14.6743V5.3714C47.8971 4.61179 47.6151 4.3273 46.8626 4.3273H44.981C44.228 4.3273 43.9457 4.61179 43.9457 5.3714V14.6743C43.9457 19.7054 47.3332 22.4585 51.7547 22.4585C56.1767 22.4585 59.5642 19.7054 59.5642 14.6743V5.3714C59.5642 4.61179 59.2814 4.3273 58.5289 4.3273ZM9.88717 18.7565C6.82927 18.7565 4.33646 16.2406 4.33646 13.1553C4.33646 10.0704 6.82927 7.5548 9.88717 7.5548C12.945 7.5548 15.4381 10.0704 15.4381 13.1553C15.4381 16.2406 12.945 18.7565 9.88717 18.7565ZM31.5737 18.7565C28.5158 18.7565 26.0227 16.2406 26.0227 13.1553C26.0227 10.0704 28.5158 7.5548 31.5737 7.5548C34.6315 7.5548 37.1247 10.0704 37.1247 13.1553C37.1247 16.2406 34.6315 18.7565 31.5737 18.7565ZM100.114 18.7565C97.056 18.7565 94.563 16.2406 94.563 13.1553C94.563 10.0704 97.056 7.5548 100.114 7.5548C103.172 7.5548 105.665 10.0704 105.665 13.1553C105.665 16.2406 103.172 18.7565 100.114 18.7565ZM18.4487 23.5027H16.4734C15.7205 23.5027 15.485 23.7876 15.485 24.4519C15.344 27.4423 13.0391 29.9105 9.88717 29.9105C6.82927 29.9105 4.43026 27.4423 4.28926 24.4519C4.28926 23.7876 4.05417 23.5027 3.30157 23.5027H1.32557C0.619865 23.5027 0.384766 23.7876 0.384766 24.4046C0.384766 29.3884 4.52436 33.6125 9.88717 33.6125C15.2499 33.6125 19.3895 29.3884 19.3895 24.4046C19.3895 23.7876 19.1544 23.5027 18.4487 23.5027Z" fill="#01062E"/>
</svg>
