<svg width="130" height="34" viewBox="0 0 130 34" fill="none" xmlns="http://www.w3.org/2000/svg">
<path fill-rule="evenodd" clip-rule="evenodd" d="M28.342 11.4562C29.6522 13.1112 30.8245 14.7663 31.859 16.5592C31.9969 16.8351 31.9969 17.2488 31.9279 17.5247C31.79 17.8005 31.5142 17.9384 31.1693 18.0074L28.5489 18.2832C28.273 18.3522 28.0661 18.5591 28.0661 18.766C28.0661 18.766 28.2041 25.5241 27.2386 32.2132C27.1697 32.627 26.7559 32.9718 26.3421 33.0407C26.1247 33.0951 24.3646 33.0209 23.5615 32.9871C23.3458 32.978 23.1992 32.9718 23.17 32.9718C23.032 32.9718 22.9631 32.8339 22.9631 32.6959C23.3768 29.2479 24.0664 20.9037 23.4458 13.7319C23.4458 13.5939 23.3079 12.0078 22.7562 11.801C22.1355 11.5251 21.6528 12.1458 21.6528 12.1458C21.6528 12.1458 17.1014 17.5247 17.7221 26.2137C17.7221 26.2137 17.791 27.0412 18.4806 27.1791C18.8846 27.2599 19.3596 27.317 19.753 27.3644C20.0311 27.3979 20.2688 27.4264 20.4115 27.455C20.4115 27.455 20.6184 27.455 20.6184 27.6618C20.6184 27.8687 20.4805 29.8686 20.2047 32.627C20.2047 32.7649 20.1357 32.8339 19.9978 32.8339H16.6187H13.2397C13.1017 32.8339 13.0328 32.6959 13.0328 32.627C12.8949 31.1099 12.7569 28.9721 12.688 27.0412C12.688 26.9722 12.7569 26.8343 12.8259 26.7654C13.8603 26.0758 14.5499 24.9034 14.481 23.6621C14.481 21.5933 14.481 16.7661 14.6878 13.5939C14.7568 13.456 14.6878 12.9733 14.2051 12.9733C13.8603 12.9733 13.6534 13.2491 13.6534 13.5939C13.6534 13.5939 13.3776 17.6626 13.3776 20.5589C13.3776 20.5589 13.3776 21.4554 12.5501 21.4554C11.7225 21.4554 11.7225 20.6279 11.7225 20.6279C11.7225 20.6279 11.7915 16.6972 11.8605 13.7319V13.456C11.7915 13.2491 11.7225 13.0423 11.3777 13.0423C10.8261 13.0423 10.8261 13.6629 10.8261 13.6629C10.8261 13.6629 10.5502 17.1799 10.5502 20.6968C10.5502 20.6968 10.5502 21.5244 9.72269 21.5244C8.89519 21.5244 8.8952 20.6968 8.8952 20.6968C8.8952 20.6968 8.9641 16.1455 9.171 13.6629C9.171 13.6629 9.24 13.0423 8.6883 12.9733C8.1366 12.9043 8.1366 13.525 8.1366 13.525C8.1366 13.525 7.7918 18.0074 7.8608 23.8001C7.8608 25.0413 8.4814 26.1447 9.5848 26.7654C9.7227 26.7654 9.7916 26.9033 9.7916 27.0412C9.8214 27.1006 9.8511 27.6081 9.8973 28.3981C9.9584 29.4417 10.0484 30.9785 10.2054 32.627V32.6959C10.2054 32.8339 10.1365 32.9028 9.9985 32.9028C7.9759 32.9499 6.8195 32.9969 6.2012 33.0221C5.9132 33.0338 5.7417 33.0407 5.654 33.0407C4.9644 33.0407 4.8265 32.2822 4.8265 32.2822C4.1369 25.1103 4.0679 23.0415 3.999 18.766C3.999 18.766 3.999 18.3522 3.5163 18.2832C3.1025 18.2832 0.412996 18.0764 0.137196 17.5247C-0.207604 17.042 0.206196 16.4903 0.206196 16.4903C6.4126 6.21518 14.5499 1.52588 15.1016 1.24998C15.1016 1.24998 15.1016 1.18108 15.1706 1.18108C15.6533 0.836285 16.2739 0.905185 16.8256 1.11208C16.8601 1.14658 16.8946 1.16378 16.929 1.18108C16.9635 1.19828 16.998 1.21558 17.0325 1.24998C18.4807 2.14648 21.1011 4.07739 21.5839 4.49119C21.7218 4.56009 21.8597 4.56009 21.9287 4.49119C21.9287 4.45669 21.9459 4.43949 21.9631 4.42219C21.9804 4.40499 21.9976 4.38768 21.9976 4.35328V3.04299C21.9976 2.83609 22.0666 2.62918 22.1355 2.49128C22.2735 2.21548 22.5493 2.00858 23.032 2.00858C23.9647 2.00858 24.7988 2.10718 25.4095 2.17928C25.5211 2.19248 25.6256 2.20478 25.7215 2.21548C26.48 2.35338 26.6869 2.90508 26.7559 3.45678C26.7651 3.52138 26.7855 3.69118 26.8152 3.93858L26.8153 3.93969C27.0074 5.54119 27.5885 10.3856 28.0661 11.0424C28.1006 11.0769 28.1523 11.1458 28.2041 11.2148C28.2558 11.2838 28.3075 11.3527 28.342 11.3872V11.4562ZM41.6508 11.9389H45.7885C47.4435 11.9389 47.4435 11.9389 47.3056 13.8698L45.7195 22.9036C45.1678 26.0757 43.7197 28.6962 40.3406 29.7996C40.1337 29.8685 39.5131 30.0065 39.1683 30.0065C38.8235 30.0065 38.6166 29.8685 38.2028 28.9031C38.1602 28.7966 38.1209 28.7 38.0849 28.6114C37.8879 28.1271 37.7891 27.8843 37.7891 27.5929C37.7891 27.317 37.927 27.0412 38.5476 26.9033C40.9612 26.2136 41.7198 24.9724 42.0646 23.1794L43.4438 15.18H40.9612C39.72 15.18 39.72 15.111 39.9958 13.525C40.3406 11.9389 40.3406 11.9389 41.6508 11.9389ZM59.8569 11.9389C58.9814 11.9389 58.569 11.9389 58.334 12.143C58.1247 12.3248 58.0559 12.6684 57.926 13.3181L56.6847 20.5589C56.3399 22.6967 55.7882 23.938 53.7194 23.938C51.7196 23.938 50.961 22.6967 51.3058 20.8347L52.4781 13.8698C52.8229 11.9389 52.754 11.9389 51.03 11.9389C49.3749 11.9389 49.306 11.9389 49.0991 13.2491L47.8578 20.4899C47.0992 24.6276 49.7197 27.1791 53.3746 27.1791C57.4433 27.1791 59.5121 25.3172 60.2017 20.9727L61.374 13.8698C61.6499 11.9389 61.5809 11.9389 59.8569 11.9389ZM69.5806 22.5587C69.5806 23.1794 68.822 23.8 67.5118 23.869C66.1326 23.938 64.8913 23.869 62.7535 23.7311C61.744 23.5965 61.7197 23.7246 61.4627 25.0768L61.4432 25.1792C61.1688 26.8259 61.2357 26.8342 62.323 26.9701L62.3397 26.9722C63.7879 27.1791 65.4429 27.317 67.3738 27.248C70.8908 27.1101 73.0975 25.3861 73.0975 22.4208C73.0975 19.8693 71.1667 18.697 68.2703 17.8694C66.7532 17.3867 66.0636 17.0419 66.0636 16.2834C66.0636 15.7317 66.6153 15.111 68.2703 15.111C69.7185 15.111 70.9598 15.18 71.9252 15.249C72.6838 15.3179 73.0286 15.18 73.3044 13.8008C73.5803 12.4216 73.3734 12.1457 72.4769 12.0078C71.4425 11.9389 69.8564 11.8699 68.4772 11.8699C65.1671 11.8699 62.5466 13.5939 62.5466 16.7661C62.5466 19.4555 64.8913 20.352 67.3738 21.1106L67.5753 21.1775C68.7181 21.556 69.5806 21.8418 69.5806 22.5587ZM85.788 11.9389H76.341C75.745 11.9389 75.42 11.9389 75.211 12.0943C74.959 12.2808 74.8735 12.6912 74.6855 13.5939C74.4096 15.249 74.4786 15.249 75.651 15.249H78.754L77.03 25.2482C76.685 27.1791 76.754 27.1791 78.478 27.1791C79.354 27.1791 79.766 27.1791 80.001 26.9749C80.211 26.7932 80.279 26.4495 80.409 25.7999L82.202 15.249H85.167C86.478 15.249 86.478 15.249 86.822 13.5939C86.936 12.6884 86.987 12.2783 86.807 12.0926C86.658 11.9389 86.35 11.9389 85.788 11.9389ZM103.604 14.9556C103.395 15.111 103.07 15.111 102.474 15.111L96.957 15.0421L96.475 17.8005H100.681C102.405 17.8005 102.405 17.8005 102.198 19.3866C101.992 20.9037 101.992 20.9037 100.681 20.9037H95.923L95.44 23.8H101.164C102.405 23.8 102.405 23.8 102.129 25.4551C102.113 25.5306 102.098 25.6025 102.083 25.671C101.932 26.3719 101.858 26.7144 101.646 26.8816C101.444 27.0412 101.116 27.0412 100.474 27.0412H93.854C91.441 27.0412 91.372 27.0412 91.854 24.4207L93.647 14.2145L93.681 14.0189C94.059 11.8009 94.059 11.8009 96.406 11.8009H103.164C104.405 11.8009 104.474 11.8009 104.129 13.456C103.941 14.3587 103.856 14.7691 103.604 14.9556ZM109.647 20.4899L111.853 15.6627C111.928 15.4378 111.963 15.3351 112.034 15.2883C112.093 15.249 112.179 15.249 112.336 15.249C112.612 15.249 112.612 15.249 112.681 15.7317L113.371 20.4899H109.647ZM115.577 13.8008C115.424 12.9428 115.339 12.4661 115.056 12.2012C114.702 11.8699 114.037 11.8699 112.543 11.8699C111.136 11.8699 110.526 11.8699 110.124 12.1587C109.817 12.3794 109.631 12.7689 109.302 13.456L103.647 25.2482C102.82 26.9032 102.958 27.1101 105.026 27.1101C106.681 27.1101 106.681 27.1101 107.302 25.593L108.199 23.5931H113.715L113.991 25.593C114.198 27.1101 114.267 27.1101 115.922 27.1101C117.784 27.1101 117.922 26.9722 117.577 25.1792L115.577 13.8008ZM119.371 11.9389H128.887C129.449 11.9389 129.757 11.9389 129.9 12.0922C130.072 12.2778 130.004 12.6878 129.853 13.5939C129.508 15.249 129.508 15.249 128.198 15.249H125.233L123.44 25.7999C123.31 26.4495 123.241 26.7932 123.032 26.9749C122.797 27.1791 122.384 27.1791 121.509 27.1791C119.785 27.1791 119.716 27.1791 120.061 25.2482L121.785 15.249H118.681C117.509 15.249 117.371 15.249 117.716 13.5939C118.061 11.9389 118.061 11.9389 119.371 11.9389Z" fill="#01062E"/>
</svg>
