<svg width="226" height="48" viewBox="0 0 226 48" fill="none" xmlns="http://www.w3.org/2000/svg">
<path d="M17 9C8.729 9 2 15.729 2 24C2 32.271 8.729 39 17 39C19.528 39 21.908 38.3668 24 37.2578C19.248 34.7378 16 29.744 16 24C16 18.256 19.248 13.2622 24 10.7422C21.908 9.63319 19.528 9 17 9ZM24 10.7422C25.041 11.2942 26.0038 11.9702 26.8828 12.7422C28.1688 12.2702 29.551 12 31 12C37.617 12 43 17.383 43 24C43 30.617 37.617 36 31 36C29.551 36 28.1688 35.7298 26.8828 35.2578C26.0048 36.0298 25.042 36.7058 24 37.2578C26.092 38.3668 28.472 39 31 39C39.271 39 46 32.271 46 24C46 15.729 39.271 9 31 9C28.472 9 26.092 9.63319 24 10.7422ZM26.8828 35.2578C30.0118 32.5068 32 28.485 32 24C32 19.515 30.0118 15.4932 26.8828 12.7422C22.2908 14.4282 19 18.831 19 24C19 29.169 22.2908 33.5718 26.8828 35.2578Z" fill="white"/>
<path d="M57.848 34V16.12H63.704C65.56 16.12 67.168 16.496 68.528 17.248C69.904 17.984 70.968 19.024 71.72 20.368C72.472 21.712 72.848 23.272 72.848 25.048C72.848 26.808 72.472 28.368 71.72 29.728C70.968 31.072 69.904 32.12 68.528 32.872C67.168 33.624 65.56 34 63.704 34H57.848ZM60.68 31.48H63.752C65.016 31.48 66.112 31.216 67.04 30.688C67.984 30.16 68.712 29.416 69.224 28.456C69.736 27.496 69.992 26.36 69.992 25.048C69.992 23.736 69.728 22.608 69.2 21.664C68.688 20.704 67.968 19.96 67.04 19.432C66.112 18.904 65.016 18.64 63.752 18.64H60.68V31.48ZM81.6371 34.288C80.3891 34.288 79.2451 33.992 78.2051 33.4C77.1811 32.808 76.3651 32 75.7571 30.976C75.1491 29.952 74.8451 28.792 74.8451 27.496C74.8451 26.184 75.1491 25.024 75.7571 24.016C76.3651 22.992 77.1811 22.192 78.2051 21.616C79.2291 21.024 80.3731 20.728 81.6371 20.728C82.9171 20.728 84.0611 21.024 85.0691 21.616C86.0931 22.192 86.9011 22.992 87.4931 24.016C88.1011 25.024 88.4051 26.184 88.4051 27.496C88.4051 28.808 88.1011 29.976 87.4931 31C86.8851 32.024 86.0691 32.832 85.0451 33.424C84.0211 34 82.8851 34.288 81.6371 34.288ZM81.6371 31.768C82.4051 31.768 83.0851 31.584 83.6771 31.216C84.2691 30.848 84.7331 30.344 85.0691 29.704C85.4211 29.048 85.5971 28.312 85.5971 27.496C85.5971 26.68 85.4211 25.952 85.0691 25.312C84.7331 24.672 84.2691 24.168 83.6771 23.8C83.0851 23.432 82.4051 23.248 81.6371 23.248C80.8851 23.248 80.2051 23.432 79.5971 23.8C79.0051 24.168 78.5331 24.672 78.1811 25.312C77.8451 25.952 77.6771 26.68 77.6771 27.496C77.6771 28.312 77.8451 29.048 78.1811 29.704C78.5331 30.344 79.0051 30.848 79.5971 31.216C80.2051 31.584 80.8851 31.768 81.6371 31.768ZM96.4344 34.144C95.0744 34.144 94.0184 33.76 93.2664 32.992C92.5144 32.224 92.1384 31.144 92.1384 29.752V23.464H89.8584V21.016H90.2184C90.8264 21.016 91.2984 20.84 91.6344 20.488C91.9704 20.136 92.1384 19.656 92.1384 19.048V18.04H94.8504V21.016H97.8024V23.464H94.8504V29.632C94.8504 30.08 94.9224 30.464 95.0664 30.784C95.2104 31.088 95.4424 31.328 95.7624 31.504C96.0824 31.664 96.4984 31.744 97.0104 31.744C97.1384 31.744 97.2824 31.736 97.4424 31.72C97.6024 31.704 97.7544 31.688 97.8984 31.672V34C97.6744 34.032 97.4264 34.064 97.1544 34.096C96.8824 34.128 96.6424 34.144 96.4344 34.144ZM109.137 34.288C107.873 34.288 106.697 34.056 105.609 33.592C104.537 33.128 103.601 32.488 102.801 31.672C102.017 30.84 101.401 29.864 100.953 28.744C100.505 27.624 100.281 26.392 100.281 25.048C100.281 23.72 100.497 22.496 100.929 21.376C101.377 20.24 102.001 19.264 102.801 18.448C103.601 17.616 104.537 16.976 105.609 16.528C106.681 16.064 107.857 15.832 109.137 15.832C110.401 15.832 111.529 16.048 112.521 16.48C113.529 16.912 114.377 17.48 115.065 18.184C115.753 18.872 116.249 19.624 116.553 20.44L114.009 21.64C113.625 20.68 113.009 19.904 112.161 19.312C111.329 18.704 110.321 18.4 109.137 18.4C107.953 18.4 106.905 18.68 105.993 19.24C105.081 19.8 104.369 20.576 103.857 21.568C103.361 22.56 103.113 23.72 103.113 25.048C103.113 26.376 103.361 27.544 103.857 28.552C104.369 29.544 105.081 30.32 105.993 30.88C106.905 31.424 107.953 31.696 109.137 31.696C110.321 31.696 111.329 31.4 112.161 30.808C113.009 30.216 113.625 29.44 114.009 28.48L116.553 29.68C116.249 30.48 115.753 31.232 115.065 31.936C114.377 32.64 113.529 33.208 112.521 33.64C111.529 34.072 110.401 34.288 109.137 34.288ZM125.063 34.288C123.767 34.288 122.615 33.992 121.607 33.4C120.615 32.792 119.839 31.976 119.279 30.952C118.719 29.912 118.439 28.752 118.439 27.472C118.439 26.16 118.719 25 119.279 23.992C119.855 22.984 120.623 22.192 121.583 21.616C122.543 21.024 123.631 20.728 124.847 20.728C125.823 20.728 126.695 20.896 127.463 21.232C128.231 21.568 128.879 22.032 129.407 22.624C129.935 23.2 130.335 23.864 130.607 24.616C130.895 25.368 131.039 26.168 131.039 27.016C131.039 27.224 131.031 27.44 131.015 27.664C130.999 27.888 130.967 28.096 130.919 28.288H120.575V26.128H129.383L128.087 27.112C128.247 26.328 128.191 25.632 127.919 25.024C127.663 24.4 127.263 23.912 126.719 23.56C126.191 23.192 125.567 23.008 124.847 23.008C124.127 23.008 123.487 23.192 122.927 23.56C122.367 23.912 121.935 24.424 121.631 25.096C121.327 25.752 121.207 26.552 121.271 27.496C121.191 28.376 121.311 29.144 121.631 29.8C121.967 30.456 122.431 30.968 123.023 31.336C123.631 31.704 124.319 31.888 125.087 31.888C125.871 31.888 126.535 31.712 127.079 31.36C127.639 31.008 128.079 30.552 128.399 29.992L130.607 31.072C130.351 31.68 129.951 32.232 129.407 32.728C128.879 33.208 128.239 33.592 127.487 33.88C126.751 34.152 125.943 34.288 125.063 34.288ZM133.686 34V21.016H136.278V23.56L135.966 23.224C136.286 22.408 136.798 21.792 137.502 21.376C138.206 20.944 139.022 20.728 139.95 20.728C140.91 20.728 141.758 20.936 142.494 21.352C143.23 21.768 143.806 22.344 144.222 23.08C144.638 23.816 144.846 24.664 144.846 25.624V34H142.158V26.344C142.158 25.688 142.038 25.136 141.798 24.688C141.558 24.224 141.214 23.872 140.766 23.632C140.334 23.376 139.838 23.248 139.278 23.248C138.718 23.248 138.214 23.376 137.766 23.632C137.334 23.872 136.998 24.224 136.758 24.688C136.518 25.152 136.398 25.704 136.398 26.344V34H133.686ZM153.364 34.144C152.004 34.144 150.948 33.76 150.196 32.992C149.444 32.224 149.068 31.144 149.068 29.752V23.464H146.788V21.016H147.148C147.756 21.016 148.228 20.84 148.564 20.488C148.9 20.136 149.068 19.656 149.068 19.048V18.04H151.78V21.016H154.732V23.464H151.78V29.632C151.78 30.08 151.852 30.464 151.996 30.784C152.14 31.088 152.372 31.328 152.692 31.504C153.012 31.664 153.428 31.744 153.94 31.744C154.068 31.744 154.212 31.736 154.372 31.72C154.532 31.704 154.684 31.688 154.828 31.672V34C154.604 34.032 154.356 34.064 154.084 34.096C153.812 34.128 153.572 34.144 153.364 34.144ZM157.475 34V21.016H160.067V23.632L159.827 23.248C160.115 22.4 160.579 21.792 161.219 21.424C161.859 21.04 162.627 20.848 163.523 20.848H164.315V23.32H163.187C162.291 23.32 161.563 23.6 161.003 24.16C160.459 24.704 160.187 25.488 160.187 26.512V34H157.475ZM166.17 34V21.016H168.882V34H166.17ZM166.17 19.24V16.12H168.882V19.24H166.17ZM178.221 34.288C176.925 34.288 175.773 33.992 174.765 33.4C173.773 32.792 172.981 31.976 172.389 30.952C171.813 29.928 171.525 28.768 171.525 27.472C171.525 26.192 171.813 25.04 172.389 24.016C172.965 22.992 173.757 22.192 174.765 21.616C175.773 21.024 176.925 20.728 178.221 20.728C179.101 20.728 179.925 20.888 180.693 21.208C181.461 21.512 182.125 21.936 182.685 22.48C183.261 23.024 183.685 23.656 183.957 24.376L181.581 25.48C181.309 24.808 180.869 24.272 180.261 23.872C179.669 23.456 178.989 23.248 178.221 23.248C177.485 23.248 176.821 23.432 176.229 23.8C175.653 24.152 175.197 24.656 174.861 25.312C174.525 25.952 174.357 26.68 174.357 27.496C174.357 28.312 174.525 29.048 174.861 29.704C175.197 30.344 175.653 30.848 176.229 31.216C176.821 31.584 177.485 31.768 178.221 31.768C179.005 31.768 179.685 31.568 180.261 31.168C180.853 30.752 181.293 30.2 181.581 29.512L183.957 30.64C183.701 31.328 183.285 31.952 182.709 32.512C182.149 33.056 181.485 33.488 180.717 33.808C179.949 34.128 179.117 34.288 178.221 34.288Z" fill="white"/>
</svg>
