<svg width="138" height="31" viewBox="0 0 138 31" fill="none" xmlns="http://www.w3.org/2000/svg">
<path d="M0 7.48352V14.4924H7.00891H14.0178V7.48352V0.474612H7.00604H0V7.48352Z" fill="#01062E"/>
<path d="M15.4927 0.549263C15.4496 0.580873 15.418 3.74192 15.418 7.55817V14.4895H22.4269H29.4358V7.48058V0.471668H22.5045C18.6853 0.474542 15.5243 0.506158 15.4927 0.549263Z" fill="#01062E"/>
<path d="M127.974 5.21843C126.841 5.46557 125.646 6.30755 125.137 7.23575C124.695 8.05475 124.522 8.89675 124.522 10.2014V11.3509L123.476 11.3825L122.419 11.4141L122.387 12.621L122.355 13.8395H123.445H124.522V18.9604V24.0813H126.031H127.54V18.9604V13.8395H129.749H131.959V17.0982C131.971 20.9892 132.046 21.722 132.52 22.6818C132.919 23.4577 133.543 23.975 134.365 24.202C135.054 24.3859 136.554 24.3543 137.33 24.1359L138 23.9405V22.7335V21.5266L137.385 21.7306C136.393 22.064 135.618 21.8599 135.23 21.1386C135.057 20.8369 135.034 20.3944 135.003 17.3109L134.971 13.8395H136.48H138V12.6009V11.3624H136.491H134.982V9.51747V7.67256L134.692 7.74727C134.52 7.77888 133.842 7.98579 133.184 8.18982L131.965 8.56627V9.98875V11.4112L129.744 11.3796L127.522 11.348L127.554 10.0865C127.597 8.70708 127.738 8.30764 128.318 7.87659C128.718 7.58635 129.643 7.50875 130.281 7.72428L130.778 7.8967V6.61505C130.778 5.52592 130.755 5.33338 130.594 5.27878C130.27 5.15234 128.468 5.12073 127.974 5.21843Z" fill="#01062E"/>
<path d="M60.85 6.28429C60.2897 6.62913 60.0195 7.10329 60.0195 7.76136C60.0195 8.81888 60.8184 9.49707 61.9708 9.39936C62.9507 9.31315 63.557 8.68669 63.557 7.74987C63.557 7.10329 63.3415 6.72683 62.7495 6.31589C62.284 6.00553 61.3328 5.98256 60.85 6.28429Z" fill="#01062E"/>
<path d="M38.2715 15.2447V24.0842H39.7256H41.1797L41.1567 17.2908C41.1337 13.5492 41.1567 10.4974 41.1883 10.4974C41.2199 10.4974 42.4699 13.5579 43.9815 17.2908L46.7201 24.0928L47.7977 24.0612L48.8754 24.0296L51.5393 17.3138C53.0049 13.6153 54.2348 10.5635 54.2664 10.5319C54.298 10.4888 54.3325 13.5291 54.3325 17.2707V24.0842H55.8412H57.3499V15.2447V6.40525H55.2751H53.1945L50.726 12.463C49.3668 15.8051 48.1598 18.7477 48.0535 19.0064L47.838 19.492L46.9012 17.1212C46.3839 15.8281 45.2201 12.8854 44.3148 10.5778L42.6653 6.40525H40.467H38.2772V15.2447H38.2715Z" fill="#01062E"/>
<path d="M70.2926 11.3086C68.1029 11.8058 66.3901 13.3691 65.6574 15.5674C65.324 16.5387 65.2378 18.6624 65.4849 19.7084C65.8729 21.3378 67.0482 22.9097 68.4075 23.6224C70.0886 24.496 72.6002 24.5822 74.4652 23.8494L75.0917 23.6023L75.1463 22.2229C75.1779 21.4671 75.1894 20.855 75.1779 20.855C75.1664 20.855 74.8445 21.0274 74.4566 21.2315C72.6548 22.2344 70.6403 22.062 69.465 20.8205C68.5799 19.8923 68.235 18.5561 68.4621 16.9813C68.6776 15.4841 69.5397 14.3174 70.7897 13.8547C71.9651 13.4122 73.6347 13.6162 74.7152 14.3519C74.9192 14.4812 75.1146 14.599 75.1463 14.599C75.1779 14.599 75.1894 13.9524 75.1692 13.1535L75.1376 11.7081L74.4163 11.4696C73.4738 11.1592 71.3501 11.073 70.2926 11.3086Z" fill="#01062E"/>
<path d="M83.124 11.265C82.0664 11.4173 81.236 12.0294 80.7101 13.0553L80.4399 13.5725L80.4284 12.4633V11.3541L78.9514 11.3857L77.4628 11.4173L77.4312 17.7451L77.4082 24.0845H78.9054H80.4141L80.4457 20.1705L80.4773 16.2681L80.779 15.6215C81.2532 14.6186 81.8021 14.1128 82.6239 13.9605C83.1728 13.8628 84.0694 13.9835 84.5436 14.2306L84.8453 14.3915V12.9375C84.8453 11.8914 84.8022 11.4604 84.716 11.3972C84.4918 11.265 83.6412 11.1903 83.124 11.265Z" fill="#01062E"/>
<path d="M89.8175 11.3077C87.4783 11.8365 85.8174 13.4745 85.2254 15.8367C84.9782 16.8166 84.9667 18.7908 85.2139 19.8138C85.7197 21.9605 87.3375 23.587 89.5043 24.1588C90.4325 24.3974 92.3176 24.3974 93.3091 24.1359C95.2402 23.6502 96.8034 22.291 97.4701 20.5466C97.8581 19.4805 98.0305 18.3253 97.9558 17.1298C97.8466 15.1786 97.3293 13.9171 96.2316 12.8078C95.5419 12.1296 95.0448 11.8164 94.0102 11.4485C93.2142 11.1583 90.8204 11.0836 89.8175 11.3077ZM92.9872 13.8854C93.7085 14.2102 94.3551 14.9631 94.6166 15.7505C94.7775 16.2476 94.8206 16.6873 94.8206 17.831C94.8091 19.0925 94.7775 19.3713 94.562 19.9115C94.2487 20.7104 93.7976 21.2162 93.1079 21.5725C92.6337 21.8197 92.4182 21.8542 91.5877 21.8542C90.5216 21.8542 89.9382 21.6702 89.2916 21.1329C88.2772 20.2593 87.8146 18.1787 88.2456 16.3453C88.5474 15.0952 89.1077 14.3395 90.079 13.8883C90.8434 13.5205 92.2228 13.5205 92.9872 13.8854Z" fill="#01062E"/>
<path d="M102.561 11.3078C101.288 11.6642 100.156 12.5579 99.7165 13.5493C99.3602 14.3568 99.3602 15.8253 99.728 16.5897C100.171 17.4949 100.665 17.8828 102.573 18.7995C103.533 19.2622 104.406 19.7478 104.513 19.8657C104.794 20.1789 104.869 20.9864 104.642 21.3312C104.027 22.2681 101.742 22.1732 100.027 21.1272L99.4004 20.7508V22.2048V23.6503L99.7883 23.8112C100.984 24.3084 103.291 24.4693 104.553 24.1446C105.944 23.7882 106.967 23.0353 107.484 21.9778C107.7 21.5238 107.743 21.2766 107.743 20.4145C107.743 19.5725 107.711 19.3139 107.516 18.9489C106.975 17.9259 106.286 17.4087 104.346 16.5351C102.924 15.9086 102.536 15.5752 102.449 14.9287C102.245 13.4516 104.475 13.0205 106.654 14.1212L107.171 14.3913L107.139 13.0119L107.108 11.6441L106.461 11.44C105.579 11.1584 103.349 11.0837 102.561 11.3078Z" fill="#01062E"/>
<path d="M113.794 11.351C112.274 11.7274 110.95 12.6441 110.171 13.8511C109.05 15.6098 108.803 18.4749 109.587 20.6014C110.559 23.1992 113.306 24.6878 116.424 24.2998C118.203 24.0843 119.174 23.6417 120.263 22.5325C121.579 21.2077 122.085 19.837 122.085 17.6156C122.085 15.4489 121.579 14.0264 120.392 12.8281C119.594 12.0407 118.904 11.6527 117.772 11.3625C116.705 11.0837 114.872 11.0837 113.794 11.351ZM117.257 13.9172C117.861 14.2419 118.421 14.8885 118.711 15.6328C118.915 16.173 118.958 16.4748 118.958 17.6702C118.97 19.8801 118.516 20.9146 117.254 21.5526C116.683 21.8342 116.499 21.8658 115.691 21.8658C114.527 21.8543 113.803 21.5756 113.2 20.8859C112.498 20.0784 112.294 19.4088 112.283 17.834C112.283 15.6788 112.769 14.6212 114.085 13.9517C114.731 13.6269 114.806 13.6183 115.789 13.6499C116.565 13.6815 116.921 13.7448 117.257 13.9172Z" fill="#01062E"/>
<path d="M60.2665 17.7251V24.0874H61.7752H63.2839L63.2609 17.7481L63.2293 11.4202L61.7522 11.3886L60.2637 11.357V17.7251H60.2665Z" fill="#01062E"/>
<path d="M0 23.0067V30.0156H7.00891H14.0178V23.0067V15.9978H7.00604H0V23.0067Z" fill="#01062E"/>
<path d="M15.4381 22.9751L15.4697 29.961L22.4556 29.9926L29.43 30.0156V23.0067V15.9978H22.4211H15.418L15.4381 22.9751Z" fill="#01062E"/>
</svg>
