<svg width="128" height="128" viewBox="0 0 128 128" fill="none" xmlns="http://www.w3.org/2000/svg">
<path d="M13.4186 76.5943L12.8834 73.9387C12.6271 72.6682 13.4569 71.4197 14.7271 71.1637C15.9972 70.9072 17.2459 71.7372 17.5021 73.0072L17.8164 74.5662L20.4721 74.0307L20.6934 75.1277L13.4186 76.5943ZM16.4629 73.2167C16.3346 72.5817 15.6411 72.1207 14.9481 72.2607C14.2554 72.4002 13.7944 73.0937 13.9224 73.7292L14.2369 75.2877L16.7771 74.7757L16.4629 73.2167Z" fill="white"/>
<path d="M11.9785 66.2083L11.9473 65.2663L19.2708 62.1948L19.3098 63.3723L17.6243 64.0766L17.7218 67.0198L19.4505 67.6108L19.4895 68.7878L11.9785 66.2083ZM16.5783 64.5238L13.67 65.6808L16.6485 66.6428L16.5783 64.5238Z" fill="white"/>
<path d="M12.1357 58.8118L12.5615 55.8978C12.7405 54.6738 13.876 53.8278 15.0997 54.0068C16.79 54.2535 16.9594 55.945 16.9594 55.945L20.2542 54.5813L20.0752 55.805L16.9142 57.0695L16.727 58.3517L19.641 58.7775L19.4793 59.8847L12.1357 58.8118ZM15.942 56.3918C16.027 55.8088 15.5792 55.2078 14.938 55.1141C14.297 55.0203 13.6958 55.4683 13.6108 56.0511L13.3468 57.8578L15.678 58.1983L15.942 56.3918Z" fill="white"/>
<path d="M15.338 48.6779L14.6435 50.8052L13.6357 50.4762L15.3725 45.1582L16.38 45.4875L15.6855 47.6145L21.731 49.5889L21.3835 50.6524L15.338 48.6779H15.338Z" fill="white"/>
<path d="M16.8857 41.6461L17.3357 40.8186L23.706 40.1951L19.0515 37.6636L19.5858 36.6812L26.1025 40.2249L25.6525 41.0524L19.282 41.6759L23.9367 44.2071L23.4025 45.1899L16.8857 41.6461Z" fill="white"/>
<path d="M22.1621 32.9191L25.2519 29.1323L26.0731 29.8023L23.6906 32.7223L25.2419 33.9881L27.4382 31.2961L28.2594 31.9663L26.0631 34.6581L27.7969 36.0728L30.2539 33.0616L31.0751 33.7316L27.9108 37.6096L22.1621 32.9191V32.9191Z" fill="white"/>
<path d="M28.2988 26.0325L30.5331 24.1165C31.4716 23.3117 32.8829 23.4199 33.6876 24.3585C34.7988 25.6545 33.8158 27.0402 33.8158 27.0402L37.1936 28.176L36.2554 28.9808L33.0434 27.8578L32.0601 28.7008L33.9761 30.935L33.1271 31.6633L28.2988 26.0325ZM32.7558 26.7085C33.2026 26.3252 33.2599 25.5782 32.8383 25.0864C32.4168 24.5949 31.6698 24.5377 31.2228 24.921L29.8375 26.1087L31.3703 27.8962L32.7558 26.7085Z" fill="white"/>
<path d="M41.5986 16.9903L42.4524 16.5923L48.1489 22.1213L47.0816 22.6188L45.7731 21.345L43.1051 22.5893L43.2399 24.4103L42.1726 24.908L41.5986 16.9903ZM44.9516 20.5587L42.7471 18.3388L43.0309 21.4545L44.9516 20.5587Z" fill="white"/>
<path d="M48.5059 14.2182L50.6731 13.6645C52.4981 13.1983 54.5031 14.3872 55.0129 16.3832C55.5229 18.3795 54.3341 20.3843 52.5091 20.8505L50.3419 21.4042L48.5059 14.2182ZM52.2468 19.8239C53.4444 19.5179 54.3081 18.1429 53.9293 16.6602C53.5506 15.1772 52.1331 14.3852 50.9353 14.6912L49.8518 14.9679L51.163 20.1007L52.2468 19.8239Z" fill="white"/>
<path d="M57.1191 12.2898L58.2941 12.2083L60.7446 17.765L62.4066 11.924L63.5816 11.8428L61.3911 19.4323L60.3336 19.5053L57.1191 12.2897V12.2898Z" fill="white"/>
<path d="M67.1239 12.0288L68.2404 12.1068L67.7234 19.5093L66.6074 19.4313L67.1239 12.0288Z" fill="white"/>
<path d="M70.9597 17.5667L72.0556 17.7907C71.8906 18.5984 72.2576 19.1545 73.1807 19.3432C74.1617 19.5437 74.7177 19.1764 74.8357 18.5997C75.1656 16.9842 71.1352 17.0015 71.6541 14.463C71.8666 13.4245 73.0476 12.644 74.4902 12.9389C75.8752 13.2222 76.6552 14.4035 76.3957 15.6727L75.2997 15.4487C75.4527 14.6987 75.0397 14.0732 74.2897 13.9197C73.4822 13.7547 72.8567 14.1677 72.7502 14.687C72.4437 16.1872 76.4742 16.1697 75.9317 18.8237C75.7192 19.8622 74.5382 20.6424 72.9802 20.324C71.4227 20.0055 70.6881 18.8937 70.9597 17.5667Z" fill="white"/>
<path d="M79.0557 17.9059C79.8602 15.9442 82.0117 15.0439 83.7557 15.7589C85.4993 16.4739 86.3992 18.6253 85.5953 20.5871C84.7907 22.5486 82.6393 23.4489 80.8958 22.7339C79.1518 22.0189 78.2517 19.8674 79.0557 17.9059ZM84.5597 20.1624C85.1627 18.6911 84.5203 17.1544 83.3757 16.6854C82.2312 16.2161 80.6947 16.8592 80.0913 18.3304C79.4883 19.8016 80.1312 21.3384 81.2752 21.8076C82.4198 22.2769 83.9562 21.6339 84.5597 20.1624Z" fill="white"/>
<path d="M90.608 19.1832L93.065 20.8045C94.0969 21.4852 94.3809 22.8717 93.6999 23.9037C92.76 25.3289 91.1569 24.7649 91.1569 24.7649L90.9944 28.3254L89.9624 27.6444L90.1584 24.2471L89.0774 23.5339L87.4564 25.9909L86.5225 25.3749L90.608 19.1832ZM91.1845 23.6545C91.676 23.9787 92.41 23.8282 92.7665 23.2877C93.1229 22.7472 92.9724 22.0132 92.4815 21.6889L90.958 20.6839L89.661 22.6494L91.1845 23.6545Z" fill="white"/>
<path d="M96.0022 28.8621L97.3722 23.9414L98.2332 24.7444L97.1927 28.3627L97.2357 28.4029L100.773 27.1137L101.634 27.9169L96.8197 29.6251L94.8522 31.7344L94.0342 30.9714L96.0022 28.8621Z" fill="white"/>
<path d="M107.038 34.603L108.585 37.1088C109.204 38.111 108.897 39.408 107.945 39.9958C107.143 40.4908 106.34 40.0868 106.34 40.0868C106.34 40.0868 106.446 41.2673 105.343 41.948C104.391 42.5358 103.013 42.2098 102.302 41.057L100.724 38.501L107.038 34.603ZM103.204 40.5C103.575 41.1015 104.304 41.2743 104.856 40.9338C105.407 40.5935 105.58 39.864 105.208 39.2625L104.218 37.6588L102.214 38.8963L103.204 40.5ZM105.979 38.7176C106.289 39.2188 106.937 39.3721 107.388 39.0938C107.839 38.8154 107.993 38.1669 107.683 37.6656L106.724 36.112L105.02 37.1638L105.979 38.7176Z" fill="white"/>
<path d="M108.05 43.737C110.036 42.993 112.159 43.959 112.82 45.724C113.481 47.489 112.516 49.6118 110.53 50.3557C108.544 51.0997 106.421 50.134 105.76 48.369C105.099 46.604 106.064 44.481 108.05 43.737ZM110.137 49.3077C111.627 48.7498 112.316 47.2335 111.882 46.0752C111.448 44.917 109.932 44.2269 108.443 44.785C106.954 45.343 106.264 46.8592 106.698 48.0175C107.132 49.1757 108.648 49.8658 110.137 49.3077Z" fill="white"/>
<path d="M115.233 54.7324L115.391 55.6611L108.551 59.6926L108.353 58.5316L109.928 57.6066L109.434 54.7042L107.642 54.3524L107.444 53.1914L115.233 54.7324ZM110.904 57.0224L113.628 55.4834L110.548 54.9326L110.904 57.0224Z" fill="white"/>
<path d="M116.089 62.1193L116.043 65.0623C116.023 66.2988 115.006 67.2833 113.77 67.2638C112.063 67.2368 111.677 65.5817 111.677 65.5817L108.587 67.3578L108.607 66.1218L111.577 64.4615L111.598 63.1662L108.654 63.1195L108.672 62.001L116.089 62.1193ZM112.628 65.0078C112.619 65.5968 113.14 66.1348 113.788 66.1453C114.435 66.1558 114.974 65.6343 114.983 65.0453L115.012 63.2208L112.657 63.1833L112.628 65.0078Z" fill="white"/>
<path d="M115.594 71.4342L115.165 73.6297C114.804 75.4782 112.87 76.7797 110.848 76.3847C108.826 75.9898 107.524 74.0557 107.885 72.2072L108.314 70.0117L115.594 71.4342ZM108.925 72.4102C108.688 73.6237 109.56 74.9937 111.062 75.2872C112.564 75.5806 113.888 74.6397 114.125 73.4261L114.339 72.3286L109.14 71.3126L108.925 72.4102Z" fill="white"/>
<path d="M101.547 96.3827C102.113 96.3827 102.571 95.9243 102.571 95.3587C102.571 94.7932 102.113 94.3347 101.547 94.3347C100.982 94.3347 100.523 94.7932 100.523 95.3587C100.523 95.9243 100.982 96.3827 101.547 96.3827Z" fill="white"/>
<path d="M26.7974 96.3827C27.363 96.3827 27.8214 95.9243 27.8214 95.3587C27.8214 94.7932 27.363 94.3347 26.7974 94.3347C26.2319 94.3347 25.7734 94.7932 25.7734 95.3587C25.7734 95.9243 26.2319 96.3827 26.7974 96.3827Z" fill="white"/>
<path d="M37.3131 104.934C38.4155 102.91 40.8468 102.194 42.7018 103.204C44.5568 104.215 45.2733 106.646 44.1708 108.67C43.0683 110.694 40.6368 111.41 38.7818 110.399C36.9268 109.389 36.2106 106.957 37.3131 104.934ZM42.8216 107.935C43.5565 106.586 43.1215 105.11 41.9975 104.497C40.8733 103.885 39.397 104.32 38.6621 105.669C37.9271 107.018 38.3621 108.494 39.4863 109.106C40.6103 109.719 42.0865 109.284 42.8216 107.935Z" fill="white"/>
<path d="M45.888 107.302L46.9148 107.664L46.965 108.292C46.965 108.292 47.7815 107.901 48.7477 108.24C50.1367 108.729 50.9195 110.362 50.3457 111.993C49.772 113.623 48.1392 114.406 46.7502 113.917C45.8442 113.599 45.492 112.864 45.492 112.864L44.6419 115.28L43.2529 114.791L45.888 107.302ZM48.9568 111.504C49.2755 110.598 48.884 109.782 48.099 109.506C47.314 109.23 46.4975 109.621 46.1788 110.527C45.86 111.432 46.2515 112.249 47.0365 112.525C47.8215 112.801 48.638 112.41 48.9568 111.504Z" fill="white"/>
<path d="M51.7793 113.218L52.3278 110.783L51.4541 110.587L51.7211 109.401L52.0956 109.485C52.5326 109.583 52.8386 109.39 52.9371 108.953L53.1198 108.141L54.3684 108.423L54.0589 109.796L55.3074 110.077L55.0121 111.388L53.7636 111.107L53.2291 113.479C53.1166 113.978 53.3586 114.361 53.8578 114.473C54.1076 114.529 54.2466 114.495 54.2466 114.495L53.9651 115.744C53.9651 115.744 53.6251 115.798 53.2504 115.714C52.1269 115.461 51.498 114.466 51.7793 113.218Z" fill="white"/>
<path d="M56.3283 110.228L57.7848 110.444L56.9223 116.269L55.4658 116.054L56.3283 110.228ZM56.4901 108.699C56.5556 108.256 56.9918 107.932 57.4351 107.998C57.8783 108.064 58.2021 108.5 58.1363 108.943C58.0708 109.386 57.6346 109.71 57.1913 109.644C56.7481 109.579 56.4243 109.143 56.4901 108.699Z" fill="white"/>
<path d="M58.956 110.758L60.0437 110.779L60.2885 111.36C60.2885 111.36 60.8767 110.731 61.7087 110.748C62.9242 110.771 63.3572 111.548 63.3572 111.548C63.3572 111.548 64.0759 110.794 65.0999 110.814C66.3794 110.839 67.1949 111.687 67.1639 113.287L67.0949 116.806L65.6234 116.777L65.6899 113.386C65.7034 112.682 65.2644 112.225 64.7524 112.215C64.2404 112.205 63.7839 112.644 63.7701 113.348L63.7038 116.739L62.2321 116.711L62.2984 113.32C62.3121 112.616 61.8728 112.159 61.3611 112.149C60.8491 112.139 60.3926 112.578 60.3788 113.282L60.3126 116.673L58.8408 116.644L58.956 110.758Z" fill="white"/>
<path d="M68.1158 109.135C68.0678 108.69 68.4089 108.267 68.8544 108.219C69.2998 108.172 69.7223 108.512 69.7704 108.958C69.8184 109.403 69.4774 109.826 69.0319 109.874C68.5864 109.922 68.1639 109.581 68.1158 109.135ZM68.3433 110.656L69.8068 110.499L70.4358 116.353L68.9723 116.51L68.3433 110.656Z" fill="white"/>
<path d="M71.6023 115.014L73.4968 111.323L70.9828 111.809L70.7158 110.426L75.0523 109.588L75.2833 110.782L73.3888 114.473L76.0283 113.963L76.2959 115.346L71.8334 116.208L71.6023 115.014Z" fill="white"/>
<path d="M76.6431 112.262C76.1291 110.679 76.9921 108.986 78.5136 108.492C79.9741 108.018 81.5666 108.779 82.1201 110.483C82.1991 110.726 82.237 111.05 82.237 111.05L78.3421 112.315C78.642 112.823 79.2061 113.111 79.9366 112.874C80.6671 112.637 80.8326 112.112 80.8326 112.112L82.2936 111.637C82.2661 112.588 81.6496 113.798 80.3716 114.213C78.8501 114.707 77.1566 113.844 76.6431 112.262ZM80.6431 110.492C80.3236 109.922 79.6786 109.594 78.9481 109.831C78.2181 110.068 77.8891 110.713 77.9651 111.361L80.6431 110.492Z" fill="white"/>
<path d="M81.1514 105.272L82.5009 104.684L85.7194 112.077L84.3704 112.664L81.1514 105.272H81.1514Z" fill="white"/>
<path d="M88.5942 113.007L88.0086 111.941C88.5691 111.633 88.7067 111.192 88.6481 110.713L88.6061 110.371L83.9307 106.513L85.2772 105.774L88.4162 108.43L87.7452 104.418L89.0912 103.678C89.0912 103.678 89.9022 109.805 89.9437 110.147C90.1172 111.659 89.9147 112.354 89.0737 112.816C88.8492 112.939 88.5942 113.007 88.5942 113.007Z" fill="white"/>
<path d="M53.1522 74.1242C62.2383 74.1242 69.6041 66.7584 69.6041 57.6722C69.6041 48.586 62.2383 41.2202 53.1522 41.2202C44.066 41.2202 36.7002 48.586 36.7002 57.6722C36.7002 66.7584 44.066 74.1242 53.1522 74.1242Z" fill="white" fill-opacity="0.5"/>
<path d="M73.9432 74.1242C83.0294 74.1242 90.3952 66.7584 90.3952 57.6722C90.3952 48.586 83.0294 41.2202 73.9432 41.2202C64.857 41.2202 57.4912 48.586 57.4912 57.6722C57.4912 66.7584 64.857 74.1242 73.9432 74.1242Z" fill="white"/>
<path d="M64.7926 45.8931C64.4178 45.5181 64.0283 45.1671 63.6278 44.8359C63.1706 45.2046 62.7275 45.5994 62.3028 46.0243C55.8873 52.4435 55.8873 62.8511 62.3028 69.2704C62.6776 69.6454 63.0671 69.9963 63.4675 70.3275C63.9248 69.9588 64.3679 69.564 64.7926 69.1391C71.2081 62.7199 71.2081 52.3123 64.7926 45.8931Z" fill="#3704FF"/>
<path d="M50.4424 96.365C50.4424 96.3511 50.4459 96.3282 50.4528 96.2969C50.4593 96.2653 50.4698 96.2427 50.4832 96.2289L53.3187 93.3905C53.373 93.3348 53.4492 93.256 53.5483 93.1547C53.6464 93.0534 53.7435 92.9369 53.8386 92.8039C53.9337 92.6715 54.0154 92.5262 54.0837 92.3692C54.1514 92.2122 54.1857 92.0536 54.1857 91.8925C54.1857 91.7601 54.1584 91.6153 54.1041 91.4578C54.0493 91.3008 53.9676 91.156 53.859 91.023C53.7505 90.8906 53.611 90.7806 53.4407 90.6932C53.2709 90.6062 53.0667 90.5622 52.8292 90.5622C52.632 90.5622 52.4552 90.5975 52.2989 90.6671C52.142 90.7372 52.0066 90.8297 51.891 90.9448C51.775 91.0599 51.6868 91.1908 51.6256 91.3376C51.5644 91.4844 51.534 91.6378 51.534 91.7984C51.534 91.8332 51.5165 91.8505 51.4827 91.8505H50.6162C50.5818 91.8505 50.5649 91.8332 50.5649 91.7984C50.5649 91.4844 50.6212 91.1959 50.7332 90.9341C50.8452 90.6722 51.0036 90.4492 51.2073 90.2641C51.4115 90.079 51.651 89.9342 51.9264 89.8294C52.2018 89.7245 52.5026 89.6724 52.8293 89.6724C53.1963 89.6724 53.5245 89.7317 53.8133 89.8503C54.1021 89.9689 54.3451 90.1275 54.5423 90.327C54.7395 90.5259 54.8909 90.7612 54.9965 91.0338C55.1016 91.3058 55.1544 91.5923 55.1544 91.8924C55.1544 92.1579 55.112 92.4023 55.0269 92.6258C54.9417 92.8494 54.8396 93.0519 54.7211 93.2334C54.6021 93.415 54.4776 93.5735 54.3486 93.7096C54.2197 93.8461 54.1106 93.9597 54.0225 94.0502L51.7785 96.1762C51.7651 96.1905 51.7596 96.2079 51.7636 96.2289C51.7666 96.2499 51.7855 96.2601 51.8194 96.2601H55.1036C55.1374 96.2601 55.1544 96.2775 55.1544 96.3128V97.0984C55.1544 97.1331 55.1374 97.1505 55.1036 97.1505H50.4937C50.4594 97.1505 50.4424 97.1331 50.4424 97.0984L50.4424 96.365Z" fill="white"/>
<path d="M62.0896 93.4636C62.0896 94.0016 62.0438 94.5023 61.9522 94.9666C61.8606 95.431 61.7092 95.8345 61.4986 96.1762C61.2874 96.5183 61.0086 96.7858 60.662 96.9776C60.3153 97.1694 59.8836 97.2655 59.3667 97.2655C58.8498 97.2655 58.4185 97.1694 58.0715 96.9776C57.7249 96.7858 57.4445 96.5183 57.2304 96.1762C57.0162 95.8346 56.8629 95.431 56.7712 94.9666C56.6796 94.5023 56.6338 94.0016 56.6338 93.4636C56.6338 92.926 56.6796 92.4254 56.7712 91.9605C56.8629 91.4966 57.0162 91.0952 57.2304 90.7561C57.4445 90.4175 57.7249 90.1521 58.0715 89.9603C58.4186 89.768 58.8498 89.6724 59.3667 89.6724C59.8836 89.6724 60.3154 89.768 60.662 89.9603C61.0086 90.1521 61.2874 90.4175 61.4986 90.7561C61.7092 91.0952 61.8606 91.4966 61.9522 91.9605C62.0438 92.4254 62.0896 92.9261 62.0896 93.4636ZM57.6635 93.4636C57.6635 94.0712 57.7143 94.5877 57.8164 95.0137C57.8234 95.0418 57.8383 95.0577 57.8622 95.0607C57.8861 95.0643 57.905 95.052 57.9185 95.0244L60.4273 91.0547C60.4477 91.02 60.4443 90.9882 60.4174 90.9606C60.1385 90.6952 59.7884 90.5622 59.3667 90.5622C58.7412 90.5622 58.301 90.8139 58.046 91.3166C57.791 91.8193 57.6635 92.5353 57.6635 93.4636ZM61.0697 93.4636C61.0697 93.1495 61.0563 92.8631 61.0289 92.6049C61.002 92.3466 60.9577 92.1093 60.8964 91.8924C60.869 91.8295 60.8352 91.8265 60.7943 91.8822L58.2855 95.8724C58.2651 95.9077 58.2686 95.9389 58.2959 95.967C58.5474 96.2391 58.9045 96.3751 59.3666 96.3751C59.6793 96.3751 59.9428 96.3107 60.1569 96.1818C60.371 96.0524 60.5463 95.8622 60.6823 95.6106C60.8182 95.3595 60.9169 95.0541 60.9781 94.6941C61.0394 94.3346 61.0697 93.9244 61.0697 93.4636Z" fill="white"/>
<path d="M64.0479 96.365C64.0479 96.3511 64.0513 96.3282 64.0583 96.2969C64.0648 96.2653 64.0752 96.2427 64.0887 96.2289L66.9242 93.3905C66.9785 93.3348 67.0547 93.256 67.1538 93.1547C67.2519 93.0534 67.349 92.9369 67.4441 92.8039C67.5392 92.6715 67.6209 92.5262 67.6891 92.3692C67.7568 92.2122 67.7912 92.0536 67.7912 91.8925C67.7912 91.7601 67.7638 91.6153 67.7095 91.4578C67.6548 91.3008 67.5731 91.156 67.4645 91.023C67.3559 90.8906 67.2165 90.7806 67.0462 90.6932C66.8764 90.6062 66.6722 90.5622 66.4347 90.5622C66.2375 90.5622 66.0607 90.5975 65.9043 90.6671C65.7475 90.7372 65.612 90.8297 65.4965 90.9448C65.3805 91.0599 65.2923 91.1908 65.2311 91.3376C65.1698 91.4844 65.1394 91.6378 65.1394 91.7984C65.1394 91.8332 65.122 91.8505 65.0881 91.8505H64.2216C64.1873 91.8505 64.1703 91.8332 64.1703 91.7984C64.1703 91.4844 64.2266 91.1959 64.3387 90.9341C64.4507 90.6722 64.6091 90.4492 64.8128 90.2641C65.0169 90.079 65.2565 89.9342 65.5319 89.8294C65.8073 89.7245 66.1081 89.6724 66.4347 89.6724C66.8017 89.6724 67.1299 89.7317 67.4188 89.8503C67.7076 89.9689 67.9506 90.1275 68.1478 90.327C68.345 90.5259 68.4964 90.7612 68.602 91.0338C68.7071 91.3058 68.7598 91.5923 68.7598 91.8924C68.7598 92.1579 68.7175 92.4023 68.6324 92.6258C68.5472 92.8494 68.4451 93.0519 68.3266 93.2334C68.2076 93.415 68.0831 93.5735 67.9541 93.7096C67.8251 93.8461 67.716 93.9597 67.6279 94.0502L65.384 96.1762C65.3705 96.1905 65.3651 96.2079 65.3691 96.2289C65.3721 96.2499 65.391 96.2601 65.4248 96.2601H68.7091C68.7429 96.2601 68.7598 96.2775 68.7598 96.3128V97.0984C68.7598 97.1331 68.7429 97.1505 68.7091 97.1505H64.0992C64.0648 97.1505 64.0479 97.1331 64.0479 97.0984L64.0479 96.365Z" fill="white"/>
<path d="M72.7785 92.9086H73.1355C73.523 92.9086 73.8372 92.7987 74.0787 92.5788C74.3202 92.3589 74.4408 92.0811 74.4408 91.7462C74.4408 91.5923 74.4104 91.4439 74.3491 91.3007C74.2879 91.1575 74.2013 91.0322 74.0892 90.9238C73.9766 90.8154 73.8392 90.7285 73.6759 90.662C73.5131 90.5954 73.3327 90.5622 73.1355 90.5622C72.9518 90.5622 72.78 90.5991 72.6206 90.6722C72.4607 90.7458 72.3248 90.84 72.2122 90.955C72.1002 91.0706 72.0136 91.2015 71.9523 91.3478C71.891 91.4946 71.8606 91.6449 71.8606 91.7984C71.8606 91.8332 71.8437 91.8505 71.8093 91.8505H70.9429C70.9085 91.8505 70.8916 91.8332 70.8916 91.7984C70.8916 91.491 70.9458 91.2082 71.0549 90.9499C71.1635 90.6916 71.3183 90.4682 71.519 90.2794C71.7192 90.0912 71.9573 89.9429 72.2326 89.8345C72.508 89.7261 72.8093 89.6724 73.1355 89.6724C73.4751 89.6724 73.7849 89.7245 74.0637 89.8294C74.3421 89.9342 74.5821 90.079 74.7823 90.2641C74.9831 90.4492 75.1379 90.6691 75.2465 90.9239C75.3551 91.1786 75.4098 91.4527 75.4098 91.7462C75.4098 91.9907 75.369 92.205 75.2873 92.3901C75.2057 92.5752 75.1091 92.7307 74.9965 92.856C74.8845 92.9818 74.7724 93.078 74.6604 93.1445C74.5478 93.211 74.4612 93.2544 74.3999 93.2754C74.3661 93.282 74.3491 93.2999 74.3491 93.3275C74.3491 93.3557 74.3661 93.3731 74.3999 93.3797C74.4886 93.4078 74.5991 93.4651 74.7316 93.5526C74.8641 93.64 74.993 93.7566 75.1191 93.9034C75.2451 94.0502 75.3521 94.2282 75.4403 94.4379C75.5289 94.647 75.5732 94.8879 75.5732 95.1605C75.5732 95.4679 75.5169 95.7486 75.4049 96.0034C75.2923 96.2586 75.1325 96.4785 74.9253 96.6636C74.7177 96.8487 74.4627 96.9935 74.1604 97.0983C73.8576 97.2026 73.516 97.2553 73.1355 97.2553C72.7546 97.2553 72.4214 97.1991 72.1361 97.0876C71.8502 96.9761 71.6122 96.8242 71.4219 96.6319C71.2317 96.4401 71.0873 96.2166 70.9887 95.9619C70.8901 95.7067 70.8408 95.4397 70.8408 95.1605C70.8408 95.1257 70.8577 95.1078 70.8916 95.1078H71.7586C71.7925 95.1078 71.8094 95.1257 71.8094 95.1605C71.8094 95.3001 71.8368 95.4418 71.8911 95.5845C71.9453 95.7277 72.027 95.8571 72.1361 95.9721C72.2447 96.0872 72.3826 96.1818 72.549 96.2549C72.7158 96.3281 72.911 96.3649 73.1356 96.3649C73.3463 96.3649 73.54 96.3337 73.7167 96.2708C73.8935 96.2079 74.0484 96.1225 74.1809 96.0141C74.3134 95.9057 74.4169 95.7783 74.4921 95.6315C74.5668 95.4853 74.6042 95.3277 74.6042 95.1605C74.6042 94.9508 74.5668 94.7626 74.4921 94.5949C74.4169 94.4271 74.3134 94.2844 74.1809 94.1653C74.0484 94.0466 73.892 93.9561 73.7118 93.8932C73.5315 93.8303 73.3393 93.7986 73.1356 93.7986H72.7785C72.7447 93.7986 72.7277 93.7812 72.7277 93.7464V92.9609C72.7277 92.9261 72.7446 92.9086 72.7785 92.9086Z" fill="white"/>
</svg>
