<svg width="145" height="34" viewBox="0 0 145 34" fill="none" xmlns="http://www.w3.org/2000/svg">
<path d="M11.5508 18.3819V22.4178C14.62 22.4178 17.5683 21.2336 19.7433 19.1311C21.9184 17.0286 23.1509 14.1527 23.1509 11.1802H18.9942C18.9942 13.0894 18.1967 14.926 16.8192 16.2794C15.4175 17.6086 13.5325 18.3819 11.5508 18.3819Z" fill="#01062E"/>
<path d="M11.5518 29.4996C9.59424 29.4996 7.70923 28.7505 6.33172 27.3971C4.95421 26.0438 4.1567 24.2313 4.1567 22.3221C4.1567 20.4129 4.93004 18.6004 6.33172 17.247C7.70923 15.8937 9.59424 15.1445 11.5518 15.1445V11.1328C10.0292 11.1328 8.5309 11.4228 7.15339 11.9787C5.75171 12.5345 4.49504 13.3562 3.40753 14.3953C2.34419 15.4345 1.47418 16.667 0.894174 18.0204C0.314169 19.3737 0.0241669 20.8237 0 22.2979C0 23.7721 0.290002 25.2221 0.870007 26.5754C1.45001 27.9288 2.29585 29.1613 3.35919 30.2005C4.42253 31.2396 5.70338 32.0613 7.10506 32.6172C8.50673 33.173 10.0051 33.463 11.5034 33.463H11.5276V29.4996H11.5518Z" fill="#01062E"/>
<path d="M11.5508 29.4998V33.5115C14.5958 33.5115 17.5442 32.3274 19.695 30.249C21.8459 28.1707 23.0784 25.319 23.0784 22.3464H18.9458C18.9458 24.2556 18.1725 26.0681 16.7708 27.4215C15.3933 28.7265 13.5083 29.4757 11.5508 29.4998Z" fill="#01062E"/>
<path d="M11.5508 7.16902V11.1807C14.5958 11.1807 17.5442 9.99654 19.695 7.91819C21.8459 5.81567 23.0784 2.98815 23.0784 0.015625H18.9458C18.9458 1.92481 18.1725 3.73732 16.7708 5.09067C15.3933 6.39568 13.5083 7.16902 11.5508 7.16902Z" fill="#01062E"/>
<path d="M23.127 7.16902V11.1807C26.172 11.1807 29.1203 9.99654 31.2712 7.91819C33.422 5.81567 34.6545 2.98815 34.6545 0.015625H30.522C30.522 1.92481 29.7487 3.73732 28.347 5.09067C26.9695 6.39568 25.1086 7.16902 23.127 7.16902Z" fill="#01062E"/>
<path d="M53.891 16.7151H56.0177L56.5252 17.8026C56.7911 17.561 57.0811 17.3676 57.3952 17.1985C57.7336 17.0293 58.0719 16.9084 58.4102 16.7876C58.8452 16.6426 59.3044 16.5943 59.7636 16.5943C60.4644 16.5943 61.1653 16.7393 61.8178 17.0051C62.4703 17.2951 63.0503 17.6818 63.5336 18.1893C64.0411 18.721 64.4278 19.3251 64.7178 20.0018C65.2978 21.476 65.2978 23.0952 64.7178 24.5693C64.452 25.246 64.0411 25.8502 63.5336 26.3819C63.0503 26.8894 62.4703 27.3002 61.8178 27.566C61.1653 27.856 60.4644 28.001 59.7636 28.001C59.3286 28.001 58.9177 27.9527 58.5069 27.8319C58.1927 27.7352 57.8786 27.6144 57.5644 27.4694C57.2744 27.3244 57.0086 27.131 56.7669 26.9135V31.7711H53.891V16.7151ZM59.4011 25.3185C59.7877 25.3185 60.1744 25.2702 60.5128 25.1252C60.8753 24.9802 61.1894 24.7627 61.4553 24.4968C62.0111 23.941 62.2769 23.216 62.2769 22.2977C62.3011 21.8868 62.2286 21.5002 62.0836 21.1135C61.9386 20.7268 61.7211 20.3885 61.4311 20.0985C61.1653 19.8326 60.8511 19.6393 60.4886 19.4943C60.1261 19.3493 59.7636 19.2768 59.3769 19.2768C58.9902 19.2768 58.6277 19.3493 58.2652 19.4943C57.9027 19.6393 57.5886 19.8326 57.3227 20.0985C56.7669 20.6543 56.5011 21.3793 56.5011 22.2977C56.5011 23.216 56.7669 23.9652 57.3227 24.4968C57.5886 24.7627 57.9027 24.9802 58.2652 25.1252C58.6519 25.2702 59.0144 25.3427 59.4011 25.3185ZM72.0403 28.001C71.5087 28.001 70.977 27.9044 70.4695 27.711C70.0103 27.5419 69.5753 27.2519 69.237 26.8894C68.8987 26.5269 68.6087 26.0919 68.4395 25.6327C68.2461 25.101 68.1495 24.5452 68.1495 23.9893V19.2526H66.4095V16.9568H67.1586C68.077 16.9568 68.5362 16.5218 68.5362 15.6276V14.0568H71.0495V16.7393H73.5629V19.2768H71.0495V23.8927C71.0253 24.086 71.0495 24.2793 71.122 24.4727C71.1945 24.666 71.2912 24.8352 71.412 24.9802C71.5328 25.1252 71.702 25.246 71.8712 25.3427C72.0403 25.4394 72.2337 25.4877 72.427 25.4877C72.4995 25.4877 72.572 25.4877 72.6687 25.4877C72.7654 25.4877 72.8862 25.4877 72.9829 25.4877C73.0554 25.4877 73.152 25.4635 73.2245 25.4394C73.297 25.4152 73.3695 25.391 73.4179 25.3668V27.7835C73.297 27.8319 73.152 27.8802 73.007 27.9044C72.717 27.9769 72.3787 28.001 72.0403 28.001ZM77.4296 15.3859C77.0429 15.3859 76.6562 15.2651 76.3662 15.0476C76.052 14.8059 75.8587 14.4918 75.762 14.1293C75.6895 13.7668 75.7379 13.3801 75.907 13.0418C76.0762 12.7034 76.3662 12.4376 76.7287 12.2926C77.0912 12.1476 77.4779 12.1234 77.8646 12.2201C78.2271 12.3167 78.5654 12.5584 78.7829 12.8726C79.0004 13.1868 79.0971 13.5493 79.0729 13.9359C79.0246 14.2984 78.8554 14.6609 78.5896 14.9268C78.4446 15.0718 78.2754 15.1926 78.0821 15.2893C77.8404 15.3376 77.6471 15.3859 77.4296 15.3859ZM75.9312 16.7151H78.8071V27.8802H75.9312V16.7151ZM81.5621 16.7151H83.6888L84.1963 17.8026C84.4379 17.5851 84.7038 17.3676 84.9696 17.1985C85.2355 17.0293 85.5255 16.9084 85.8155 16.7876C86.178 16.6668 86.5646 16.5943 86.9513 16.5943C87.4588 16.5701 87.9663 16.6668 88.4496 16.8118C88.8121 16.9326 89.1505 17.1018 89.4646 17.3193C89.7547 17.5126 89.9963 17.7543 90.1897 18.0443C90.4555 17.7543 90.7697 17.5126 91.108 17.3193C91.4463 17.126 91.8088 16.9568 92.1955 16.8118C92.6305 16.6668 93.0897 16.5701 93.573 16.5943C94.8297 16.5943 95.8205 16.9809 96.5697 17.7543C97.3189 18.5276 97.7055 19.6876 97.7055 21.2102V27.8802H94.8297V21.4518C94.8539 20.8718 94.6605 20.2918 94.2739 19.8568C94.1289 19.6876 93.9355 19.5426 93.7422 19.446C93.5489 19.3493 93.3072 19.2768 93.0897 19.2768C92.8722 19.2526 92.6305 19.2768 92.413 19.3493C92.1955 19.4218 92.0022 19.5185 91.833 19.6635C91.7605 19.7118 91.7122 19.7843 91.6638 19.8326C91.2772 20.2676 91.0597 20.8476 91.108 21.4277V27.856H88.2321V21.4277C88.2563 20.8476 88.063 20.2676 87.6763 19.8326C87.5313 19.6635 87.338 19.5185 87.1446 19.4218C86.9513 19.3251 86.7096 19.2526 86.4921 19.2526C86.2746 19.2285 86.033 19.2526 85.8155 19.3251C85.598 19.3976 85.4046 19.4943 85.2354 19.6393C85.1629 19.6876 85.1146 19.7601 85.0663 19.8085C84.6796 20.2435 84.4621 20.8235 84.5104 21.4035V27.8319H81.6346L81.5621 16.7151ZM101.838 15.3859C101.451 15.3859 101.065 15.2651 100.775 15.0476C100.461 14.8059 100.267 14.4918 100.171 14.1293C100.098 13.7668 100.146 13.3801 100.316 13.0418C100.485 12.7034 100.775 12.4376 101.137 12.2926C101.5 12.1476 101.886 12.1234 102.273 12.2201C102.636 12.3167 102.974 12.5584 103.191 12.8726C103.409 13.1868 103.506 13.5493 103.481 13.9359C103.433 14.3226 103.264 14.6609 102.998 14.9268C102.853 15.0718 102.684 15.1926 102.491 15.2893C102.249 15.3376 102.056 15.3859 101.838 15.3859ZM100.34 16.7151H103.216V27.8802H100.34V16.7151ZM105.318 25.5602L110.321 19.3735H105.318V16.7151H113.946V19.011L108.943 25.2219H114.187V27.8802H105.294V25.5602H105.318ZM121.486 28.001C120.712 28.001 119.963 27.856 119.262 27.5419C118.586 27.2519 117.957 26.841 117.426 26.3094C116.894 25.7777 116.459 25.1735 116.169 24.4968C115.855 23.796 115.71 23.0468 115.71 22.2735C115.71 21.5002 115.855 20.751 116.169 20.0501C116.459 19.3735 116.894 18.7693 117.426 18.2376C117.957 17.7301 118.562 17.2951 119.262 17.0051C119.939 16.7151 120.688 16.5701 121.437 16.5459C122.187 16.5459 122.912 16.6909 123.612 16.9568C124.265 17.2226 124.869 17.6335 125.352 18.1168C125.86 18.6485 126.271 19.2526 126.537 19.9293C126.827 20.6785 126.972 21.4518 126.972 22.2493C126.972 22.3702 126.972 22.491 126.947 22.636C126.923 22.7568 126.923 22.8777 126.899 22.9985C126.875 23.1193 126.875 23.2402 126.851 23.361H118.852C118.972 23.8927 119.262 24.376 119.697 24.7385C120.205 25.1252 120.833 25.3427 121.486 25.2943C121.8 25.2943 122.138 25.2702 122.452 25.1735C122.694 25.101 122.912 25.0043 123.105 24.8835C123.298 24.7627 123.467 24.6177 123.612 24.4485H126.609C126.44 24.9077 126.198 25.3185 125.908 25.7052C125.594 26.1402 125.207 26.5269 124.772 26.841C124.313 27.1794 123.806 27.4452 123.274 27.6627C122.718 27.9044 122.114 28.001 121.486 28.001ZM124.241 21.4518C124.12 20.8235 123.782 20.2676 123.274 19.8568C122.767 19.446 122.138 19.2285 121.486 19.2285C120.833 19.2285 120.205 19.446 119.697 19.8568C119.19 20.2676 118.852 20.8235 118.731 21.4518H124.241ZM129.122 12.5826H131.998V27.8802H129.122V12.5826ZM136.373 31.8919C136.252 31.8919 136.107 31.8919 135.986 31.8677C135.889 31.8677 135.768 31.8436 135.672 31.8194C135.575 31.8194 135.478 31.7711 135.382 31.7469V29.451C135.913 29.4752 136.421 29.3302 136.856 29.0402C137.194 28.7502 137.484 28.4119 137.653 28.001L137.895 27.3969L133.497 16.7151H136.493L139.369 23.9893L142.003 16.7151H145C144.178 18.7451 143.429 20.606 142.777 22.2493C142.487 22.9502 142.221 23.651 141.931 24.3277C141.665 25.0043 141.423 25.6327 141.182 26.1885C140.964 26.7444 140.771 27.2035 140.626 27.5902C140.481 27.9527 140.384 28.1702 140.36 28.2427C140.118 28.8227 139.828 29.3785 139.514 29.9344C139.273 30.3452 138.983 30.7319 138.62 31.0702C138.33 31.3361 137.968 31.5536 137.605 31.6986C137.218 31.8194 136.783 31.8919 136.373 31.8919ZM43.2334 11.1567C41.5176 11.1567 39.8501 11.6401 38.4001 12.5826C36.9742 13.5009 35.8626 14.8301 35.2101 16.3526C34.5575 17.8993 34.3884 19.591 34.7267 21.2102C35.0651 22.8535 35.8867 24.3518 37.0951 25.5118C38.3034 26.696 39.8501 27.4935 41.5418 27.8077C43.2334 28.1219 44.9735 27.9769 46.5685 27.3244C48.1635 26.696 49.5168 25.6085 50.4593 24.231C51.4018 22.8535 51.9335 21.2101 51.9335 19.5668C51.9335 18.4551 51.716 17.3676 51.281 16.3526C50.846 15.3376 50.1935 14.3951 49.396 13.6218C48.5985 12.8484 47.6318 12.2201 46.5685 11.8092C45.5051 11.3742 44.3693 11.1567 43.2334 11.1567ZM43.2334 25.0768C42.1218 25.101 41.0101 24.7868 40.0676 24.1827C39.1251 23.5785 38.4001 22.7327 37.9409 21.7418C37.5059 20.751 37.3851 19.6393 37.5784 18.576C37.7959 17.5126 38.3034 16.5218 39.1009 15.7484C39.8743 14.9751 40.8893 14.4434 42.0009 14.2259C43.0884 14.0084 44.2485 14.1051 45.2876 14.5159C46.3268 14.9268 47.221 15.6276 47.8493 16.5218C48.4777 17.416 48.816 18.4793 48.8402 19.5668V19.6393C48.8402 21.0893 48.2602 22.4668 47.1968 23.506C46.1576 24.4727 44.7318 25.0527 43.2334 25.0768Z" fill="#01062E"/>
</svg>
