<svg width="64" height="64" viewBox="0 0 64 64" fill="none" xmlns="http://www.w3.org/2000/svg">
<g clip-path="url(#clip0_4091_1948)">
<path d="M32 64C49.6731 64 64 49.6731 64 32C64 14.3269 49.6731 0 32 0C14.3269 0 0 14.3269 0 32C0 49.6731 14.3269 64 32 64Z" fill="white"/>
<path d="M6.71176 38.2971L6.44413 36.9694C6.31601 36.3341 6.73088 35.7099 7.36602 35.5819C8.00102 35.4536 8.62538 35.8686 8.75351 36.5036L8.91064 37.2831L10.2385 37.0154L10.3491 37.5639L6.71176 38.2971ZM8.23388 36.6083C8.16975 36.2909 7.823 36.0604 7.4765 36.1303C7.13014 36.2001 6.89963 36.5469 6.96363 36.8646L7.1209 37.6438L8.39101 37.3878L8.23388 36.6083Z" fill="#3704FF"/>
<path d="M5.9912 33.1041L5.97559 32.6332L9.63733 31.0974L9.65684 31.6862L8.81409 32.0383L8.86283 33.5099L9.72721 33.8054L9.74672 34.3939L5.9912 33.1041ZM8.29108 32.2619L6.83695 32.8404L8.3262 33.3214L8.29108 32.2619Z" fill="#3704FF"/>
<path d="M6.06934 29.4059L6.2822 27.9489C6.3717 27.3369 6.93945 26.9139 7.55132 27.0034C8.39645 27.1268 8.48119 27.9725 8.48119 27.9725L10.1286 27.2906L10.0391 27.9025L8.45858 28.5347L8.36496 29.1759L9.82196 29.3887L9.74109 29.9424L6.06934 29.4059ZM7.97247 28.1959C8.01496 27.9044 7.79109 27.6039 7.47048 27.557C7.14996 27.5102 6.84934 27.7342 6.80685 28.0255L6.67485 28.9289L7.84047 29.0991L7.97247 28.1959Z" fill="#3704FF"/>
<path d="M7.67046 24.339L7.32322 25.4026L6.81934 25.2381L7.68771 22.5791L8.19147 22.7437L7.84423 23.8072L10.867 24.7945L10.6932 25.3262L7.67048 24.339H7.67046Z" fill="#3704FF"/>
<path d="M8.44531 20.8231L8.67031 20.4093L11.8554 20.0976L9.52819 18.8318L9.79533 18.3406L13.0537 20.1125L12.8287 20.5262L9.64344 20.838L11.9708 22.1036L11.7037 22.5949L8.44531 20.8231Z" fill="#3704FF"/>
<path d="M11.083 16.4595L12.6279 14.5662L13.0385 14.9012L11.8473 16.3612L12.6229 16.994L13.721 15.648L14.1317 15.9832L13.0335 17.329L13.9004 18.0364L15.1289 16.5308L15.5395 16.8658L13.9574 18.8048L11.083 16.4596V16.4595Z" fill="#3704FF"/>
<path d="M14.1514 13.0162L15.2685 12.0582C15.7377 11.6559 16.4434 11.71 16.8457 12.1792C17.4014 12.8272 16.9099 13.5201 16.9099 13.5201L18.5988 14.088L18.1296 14.4904L16.5236 13.9289L16.032 14.3504L16.99 15.4675L16.5655 15.8316L14.1514 13.0162ZM16.3799 13.3542C16.6033 13.1626 16.6319 12.7891 16.4211 12.5432C16.2104 12.2975 15.8369 12.2688 15.6134 12.4605L14.9207 13.0544L15.6871 13.9481L16.3799 13.3542Z" fill="#3704FF"/>
<path d="M20.8027 8.49513L21.2296 8.29614L24.0779 11.0606L23.5442 11.3094L22.89 10.6725L21.556 11.2946L21.6234 12.2051L21.0897 12.454L20.8027 8.49513ZM22.4792 10.2794L21.377 9.16938L21.5188 10.7272L22.4792 10.2794Z" fill="#3704FF"/>
<path d="M24.2539 7.1091L25.3375 6.83224C26.25 6.59913 27.2525 7.19361 27.5074 8.19162C27.7624 9.18974 27.168 10.1921 26.2555 10.4253L25.1719 10.7021L24.2539 7.1091ZM26.1244 9.91197C26.7232 9.75896 27.155 9.07147 26.9656 8.33009C26.7763 7.58859 26.0675 7.19258 25.4686 7.3456L24.9269 7.48396L25.5825 10.0503L26.1244 9.91197Z" fill="#3704FF"/>
<path d="M28.5625 6.1449L29.15 6.10415L30.3752 8.88251L31.2062 5.96201L31.7937 5.92139L30.6985 9.71613L30.1697 9.75263L28.5625 6.14487V6.1449Z" fill="#3704FF"/>
<path d="M33.5639 6.0144L34.1222 6.05339L33.8637 9.75464L33.3057 9.71565L33.5639 6.0144Z" fill="#3704FF"/>
<path d="M35.4828 8.78335L36.0308 8.89535C35.9482 9.29922 36.1317 9.57724 36.5933 9.6716C37.0838 9.77185 37.3618 9.58822 37.4208 9.29986C37.5857 8.4921 35.5705 8.50073 35.83 7.23148C35.9362 6.71224 36.5268 6.32199 37.248 6.46947C37.9405 6.61109 38.3305 7.20173 38.2008 7.83636L37.6528 7.72436C37.7293 7.34937 37.5228 7.03661 37.1478 6.95987C36.744 6.87736 36.4313 7.08387 36.378 7.34348C36.2248 8.09361 38.24 8.08486 37.9688 9.41186C37.8625 9.9311 37.272 10.3212 36.493 10.162C35.7143 10.0027 35.347 9.44685 35.4828 8.78335Z" fill="#3704FF"/>
<path d="M39.5303 8.95294C39.9326 7.97208 41.0083 7.52195 41.8803 7.87943C42.7521 8.23693 43.2021 9.31267 42.8001 10.2936C42.3978 11.2743 41.3221 11.7244 40.4503 11.3669C39.5783 11.0094 39.1283 9.9337 39.5303 8.95294ZM42.2823 10.0812C42.5838 9.34557 42.2626 8.57718 41.6903 8.34269C41.118 8.10806 40.3498 8.42958 40.0481 9.16519C39.7466 9.90081 40.0681 10.6692 40.6401 10.9038C41.2123 11.1384 41.9806 10.8169 42.2823 10.0812Z" fill="#3704FF"/>
<path d="M45.3045 9.5916L46.533 10.4022C47.049 10.7426 47.191 11.4359 46.8505 11.9518C46.3805 12.6645 45.579 12.3825 45.579 12.3825L45.4977 14.1627L44.9817 13.8222L45.0797 12.1236L44.5392 11.7669L43.7287 12.9954L43.2617 12.6874L45.3045 9.5916ZM45.5927 11.8272C45.8385 11.9894 46.2055 11.9141 46.3837 11.6439C46.5619 11.3736 46.4867 11.0066 46.2412 10.8445L45.4795 10.342L44.831 11.3247L45.5927 11.8272Z" fill="#3704FF"/>
<path d="M48.0026 14.4311L48.6876 11.9707L49.1181 12.3722L48.5978 14.1813L48.6193 14.2015L50.3878 13.5568L50.8183 13.9584L48.4113 14.8126L47.4276 15.8672L47.0186 15.4857L48.0026 14.4311Z" fill="#3704FF"/>
<path d="M53.5205 17.3015L54.294 18.5544C54.6035 19.0555 54.45 19.704 53.974 19.9979C53.573 20.2454 53.1713 20.0434 53.1713 20.0434C53.1713 20.0434 53.2243 20.6336 52.673 20.974C52.1968 21.2679 51.508 21.1049 51.1523 20.5285L50.3633 19.2505L53.5205 17.3015ZM51.6032 20.25C51.7887 20.5508 52.1535 20.6371 52.4293 20.4669C52.7048 20.2968 52.7913 19.932 52.6055 19.6313L52.1105 18.8294L51.1083 19.4482L51.6032 20.25ZM52.991 19.3588C53.1457 19.6094 53.47 19.686 53.6955 19.5469C53.921 19.4077 53.9978 19.0834 53.843 18.8328L53.3635 18.056L52.5115 18.5819L52.991 19.3588Z" fill="#3704FF"/>
<path d="M54.027 21.8685C55.0197 21.4965 56.0812 21.9795 56.412 22.862C56.7425 23.7445 56.2597 24.8059 55.2668 25.1779C54.274 25.5499 53.2125 25.067 52.8818 24.1845C52.5513 23.302 53.034 22.2405 54.027 21.8685ZM55.0705 24.6539C55.8153 24.3749 56.16 23.6167 55.943 23.0376C55.726 22.4585 54.968 22.1135 54.2232 22.3925C53.4787 22.6715 53.1337 23.4296 53.3507 24.0087C53.5678 24.5879 54.326 24.9329 55.0705 24.6539Z" fill="#3704FF"/>
<path d="M57.6188 27.3662L57.6978 27.8306L54.2781 29.8463L54.1791 29.2658L54.9666 28.8033L54.7194 27.3521L53.8234 27.1762L53.7246 26.5957L57.6188 27.3662ZM55.4543 28.5112L56.8166 27.7417L55.2763 27.4663L55.4543 28.5112Z" fill="#3704FF"/>
<path d="M58.0472 31.0597L58.0239 32.5311C58.0139 33.1494 57.5057 33.6416 56.8874 33.6319C56.0339 33.6184 55.8411 32.7909 55.8411 32.7909L54.2959 33.6789L54.3059 33.0609L55.7912 32.2307L55.8014 31.5831L54.3297 31.5597L54.3387 31.0005L58.0472 31.0597ZM56.3166 32.5039C56.3119 32.7984 56.5726 33.0674 56.8964 33.0727C57.2201 33.0779 57.4894 32.8172 57.4939 32.5227L57.5086 31.6104L56.3311 31.5917L56.3166 32.5039Z" fill="#3704FF"/>
<path d="M57.7993 35.7171L57.5848 36.8149C57.4043 37.7391 56.4373 38.3898 55.4263 38.1924C54.4153 37.9949 53.7646 37.0279 53.9451 36.1036L54.1596 35.0059L57.7993 35.7171ZM54.4651 36.2051C54.3466 36.8118 54.7825 37.4968 55.5335 37.6436C56.2845 37.7903 56.9463 37.3198 57.0648 36.7131L57.172 36.1643L54.5723 35.6563L54.4651 36.2051Z" fill="#3704FF"/>
<path d="M50.7737 48.1915C51.0565 48.1915 51.2857 47.9623 51.2857 47.6795C51.2857 47.3967 51.0565 47.1675 50.7737 47.1675C50.4909 47.1675 50.2617 47.3967 50.2617 47.6795C50.2617 47.9623 50.4909 48.1915 50.7737 48.1915Z" fill="#3704FF"/>
<path d="M13.3977 48.1915C13.6805 48.1915 13.9097 47.9623 13.9097 47.6795C13.9097 47.3967 13.6805 47.1675 13.3977 47.1675C13.115 47.1675 12.8857 47.3967 12.8857 47.6795C12.8857 47.9623 13.115 48.1915 13.3977 48.1915Z" fill="#3704FF"/>
<path d="M18.6556 52.4668C19.2068 51.4551 20.4224 51.0968 21.3499 51.602C22.2774 52.1073 22.6357 53.3231 22.0844 54.3348C21.5332 55.3468 20.3174 55.7048 19.3899 55.1995C18.4624 54.6943 18.1043 53.4785 18.6556 52.4668ZM21.4098 53.9673C21.7773 53.2928 21.5598 52.5548 20.9978 52.2485C20.4357 51.9423 19.6975 52.1598 19.3301 52.8343C18.9626 53.5088 19.1801 54.2468 19.7422 54.553C20.3042 54.8593 21.0423 54.642 21.4098 53.9673Z" fill="#3704FF"/>
<path d="M22.9416 53.6514L23.4549 53.8319L23.48 54.1461C23.48 54.1461 23.8883 53.9504 24.3714 54.1204C25.0659 54.3649 25.4573 55.1811 25.1704 55.9966C24.8835 56.8119 24.0672 57.2031 23.3727 56.9589C22.9197 56.7994 22.7435 56.4321 22.7435 56.4321L22.3185 57.6399L21.624 57.3956L22.9416 53.6514ZM24.4759 55.7521C24.6353 55.2991 24.4396 54.8911 24.0471 54.7529C23.6546 54.6149 23.2463 54.8104 23.0869 55.2634C22.9275 55.7164 23.1233 56.1246 23.5158 56.2626C23.9083 56.4009 24.3166 56.2051 24.4759 55.7521Z" fill="#3704FF"/>
<path d="M25.8892 56.6088L26.1634 55.3916L25.7266 55.2933L25.8601 54.7003L26.0473 54.7423C26.2658 54.7916 26.4188 54.6948 26.4681 54.4763L26.5594 54.0706L27.1837 54.2113L27.0289 54.8981L27.6532 55.0385L27.5056 55.694L26.8813 55.5533L26.6141 56.7393C26.5578 56.989 26.6788 57.1803 26.9284 57.2365C27.0533 57.2645 27.1228 57.2475 27.1228 57.2475L26.9821 57.8718C26.9821 57.8718 26.8121 57.899 26.6247 57.8568C26.0629 57.7303 25.7485 57.2331 25.8892 56.6088Z" fill="#3704FF"/>
<path d="M28.1647 55.1141L28.8929 55.2221L28.4616 58.1346L27.7334 58.0269L28.1647 55.1141ZM28.2455 54.3496C28.2783 54.1281 28.4964 53.9661 28.718 53.9991C28.9396 54.0319 29.1015 54.2499 29.0686 54.4716C29.0359 54.6931 28.8178 54.8551 28.5961 54.8221C28.3745 54.7894 28.2127 54.5714 28.2455 54.3496Z" fill="#3704FF"/>
<path d="M29.4775 55.3787L30.0214 55.3894L30.1437 55.6799C30.1437 55.6799 30.4379 55.3655 30.8539 55.3737C31.4616 55.3854 31.6781 55.774 31.6781 55.774C31.6781 55.774 32.0375 55.3967 32.5495 55.4067C33.1892 55.4192 33.597 55.8435 33.5815 56.6432L33.5469 58.4027L32.8112 58.3884L32.8445 56.6927C32.8512 56.3409 32.6317 56.1124 32.3757 56.1074C32.1197 56.1024 31.8914 56.3219 31.8846 56.6739L31.8514 58.3694L31.1156 58.3552L31.1487 56.6597C31.1556 56.3077 30.9359 56.0794 30.6801 56.0744C30.4241 56.0695 30.1958 56.2889 30.1889 56.6409L30.1558 58.3364L29.4199 58.3219L29.4775 55.3787Z" fill="#3704FF"/>
<path d="M34.0569 54.5676C34.0329 54.3452 34.2035 54.1336 34.4262 54.1096C34.6489 54.0859 34.8602 54.2561 34.8842 54.4789C34.9082 54.7016 34.7377 54.9129 34.515 54.9369C34.2922 54.9609 34.081 54.7904 34.0569 54.5676ZM34.1707 55.3279L34.9024 55.2494L35.2169 58.1764L34.4852 58.2551L34.1707 55.3279Z" fill="#3704FF"/>
<path d="M35.8007 57.507L36.7479 55.6612L35.4909 55.9042L35.3574 55.213L37.5257 54.7937L37.6412 55.3907L36.6939 57.2365L38.0137 56.9815L38.1474 57.6727L35.9162 58.104L35.8007 57.507Z" fill="#3704FF"/>
<path d="M38.3206 56.1307C38.0636 55.3394 38.4951 54.4929 39.2558 54.2459C39.9861 54.0087 40.7823 54.3892 41.0591 55.2412C41.0986 55.3629 41.1175 55.5249 41.1175 55.5249L39.1701 56.1574C39.32 56.4114 39.6021 56.5554 39.9673 56.4367C40.3326 56.3182 40.4153 56.0557 40.4153 56.0557L41.1458 55.8184C41.1321 56.2939 40.8238 56.8987 40.1848 57.1062C39.4241 57.3532 38.5773 56.9217 38.3206 56.1307ZM40.3206 55.2457C40.1608 54.9609 39.8383 54.7967 39.4731 54.9152C39.1081 55.0339 38.9436 55.3564 38.9816 55.6804L40.3206 55.2457Z" fill="#3704FF"/>
<path d="M40.5742 52.6358L41.249 52.342L42.8582 56.0383L42.1837 56.3321L40.5742 52.6358H40.5742Z" fill="#3704FF"/>
<path d="M44.2966 56.5034L44.0038 55.9703C44.2841 55.8163 44.3528 55.5958 44.3236 55.3564L44.3026 55.1854L41.9648 53.2566L42.6381 52.8869L44.2076 54.2151L43.8721 52.2089L44.5451 51.8389C44.5451 51.8389 44.9506 54.9024 44.9714 55.0736C45.0581 55.8293 44.9569 56.1769 44.5364 56.4081C44.4241 56.4696 44.2966 56.5034 44.2966 56.5034Z" fill="#3704FF"/>
<path d="M26.5766 37.0621C31.1197 37.0621 34.8026 33.3792 34.8026 28.8361C34.8026 24.293 31.1197 20.6101 26.5766 20.6101C22.0335 20.6101 18.3506 24.293 18.3506 28.8361C18.3506 33.3792 22.0335 37.0621 26.5766 37.0621Z" fill="#3704FF" fill-opacity="0.5"/>
<path d="M36.9721 37.0621C41.5152 37.0621 45.1981 33.3792 45.1981 28.8361C45.1981 24.293 41.5152 20.6101 36.9721 20.6101C32.429 20.6101 28.7461 24.293 28.7461 28.8361C28.7461 33.3792 32.429 37.0621 36.9721 37.0621Z" fill="#3704FF"/>
<path d="M32.3968 22.9465C32.2094 22.759 32.0146 22.5836 31.8144 22.418C31.5858 22.6023 31.3642 22.7997 31.1519 23.0121C27.9442 26.2218 27.9442 31.4256 31.1519 34.6352C31.3393 34.8227 31.5341 34.9981 31.7342 35.1637C31.9629 34.9794 32.1844 34.782 32.3968 34.5696C35.6045 31.3599 35.6045 26.1561 32.3968 22.9465Z" fill="white"/>
<path d="M25.2207 48.1825C25.2207 48.1756 25.2224 48.1641 25.2259 48.1485C25.2292 48.1326 25.2344 48.1214 25.2411 48.1145L26.6589 46.6952C26.686 46.6674 26.7241 46.628 26.7737 46.5774C26.8227 46.5267 26.8713 46.4684 26.9188 46.4019C26.9664 46.3357 27.0072 46.2631 27.0413 46.1846C27.0752 46.1061 27.0924 46.0268 27.0924 45.9462C27.0924 45.88 27.0787 45.8077 27.0515 45.7289C27.0242 45.6504 26.9833 45.578 26.929 45.5115C26.8747 45.4453 26.805 45.3903 26.7199 45.3466C26.635 45.3031 26.5329 45.2811 26.4141 45.2811C26.3155 45.2811 26.2271 45.2988 26.1489 45.3335C26.0705 45.3686 26.0028 45.4148 25.945 45.4724C25.887 45.5299 25.8429 45.5954 25.8123 45.6688C25.7817 45.7422 25.7665 45.8189 25.7665 45.8992C25.7665 45.9166 25.7578 45.9253 25.7408 45.9253H25.3076C25.2904 45.9253 25.2819 45.9166 25.2819 45.8992C25.2819 45.7422 25.3101 45.598 25.3661 45.467C25.4221 45.3361 25.5013 45.2246 25.6032 45.132C25.7052 45.0395 25.825 44.9671 25.9627 44.9147C26.1004 44.8623 26.2508 44.8362 26.4141 44.8362C26.5976 44.8362 26.7617 44.8658 26.9062 44.9252C27.0506 44.9845 27.1721 45.0638 27.2707 45.1635C27.3693 45.263 27.445 45.3806 27.4978 45.5169C27.5503 45.6529 27.5767 45.7961 27.5767 45.9462C27.5767 46.0789 27.5555 46.2012 27.513 46.3129C27.4704 46.4247 27.4193 46.5259 27.3601 46.6167C27.3006 46.7075 27.2383 46.7868 27.1738 46.8548C27.1093 46.9231 27.0548 46.9798 27.0107 47.0251L25.8888 48.0881C25.882 48.0953 25.8793 48.104 25.8813 48.1145C25.8828 48.1249 25.8923 48.1301 25.9092 48.1301H27.5513C27.5682 48.1301 27.5767 48.1388 27.5767 48.1564V48.5492C27.5767 48.5666 27.5682 48.5753 27.5513 48.5753H25.2464C25.2292 48.5753 25.2207 48.5666 25.2207 48.5492L25.2207 48.1825Z" fill="#3704FF"/>
<path d="M31.0443 46.7318C31.0443 47.0008 31.0214 47.2511 30.9756 47.4833C30.9298 47.7155 30.8541 47.9173 30.7488 48.0881C30.6432 48.2592 30.5038 48.3929 30.3305 48.4888C30.1572 48.5847 29.9413 48.6328 29.6829 48.6328C29.4244 48.6328 29.2088 48.5847 29.0352 48.4888C28.8619 48.3929 28.7218 48.2592 28.6147 48.0881C28.5076 47.9173 28.4309 47.7155 28.3851 47.4833C28.3393 47.2511 28.3164 47.0008 28.3164 46.7318C28.3164 46.463 28.3393 46.2127 28.3851 45.9802C28.4309 45.7483 28.5076 45.5476 28.6147 45.378C28.7218 45.2087 28.8619 45.076 29.0352 44.9801C29.2088 44.884 29.4244 44.8362 29.6829 44.8362C29.9413 44.8362 30.1572 44.884 30.3305 44.9801C30.5038 45.076 30.6432 45.2087 30.7488 45.378C30.8541 45.5476 30.9298 45.7483 30.9756 45.9802C31.0214 46.2127 31.0443 46.463 31.0443 46.7318ZM28.8313 46.7318C28.8313 47.0356 28.8567 47.2938 28.9077 47.5069C28.9112 47.5209 28.9187 47.5289 28.9306 47.5304C28.9426 47.5322 28.952 47.526 28.9588 47.5122L30.2132 45.5274C30.2234 45.51 30.2216 45.4941 30.2082 45.4803C30.0688 45.3476 29.8937 45.2811 29.6828 45.2811C29.3701 45.2811 29.15 45.4069 29.0225 45.6583C28.895 45.9096 28.8313 46.2676 28.8313 46.7318ZM30.5344 46.7318C30.5344 46.5748 30.5277 46.4316 30.514 46.3024C30.5005 46.1733 30.4784 46.0547 30.4477 45.9462C30.434 45.9148 30.4171 45.9132 30.3967 45.9411L29.1423 47.9362C29.1321 47.9538 29.1338 47.9694 29.1475 47.9835C29.2732 48.1195 29.4518 48.1876 29.6828 48.1876C29.8392 48.1876 29.9709 48.1554 30.078 48.0909C30.185 48.0262 30.2727 47.9311 30.3407 47.8053C30.4086 47.6797 30.4579 47.5271 30.4886 47.347C30.5192 47.1673 30.5344 46.9622 30.5344 46.7318Z" fill="#3704FF"/>
<path d="M32.0234 48.1825C32.0234 48.1756 32.0252 48.1641 32.0287 48.1485C32.0319 48.1326 32.0371 48.1214 32.0439 48.1145L33.4616 46.6952C33.4887 46.6674 33.5269 46.628 33.5764 46.5774C33.6255 46.5267 33.674 46.4684 33.7216 46.4019C33.7691 46.3357 33.81 46.2631 33.8441 46.1846C33.8779 46.1061 33.8951 46.0268 33.8951 45.9462C33.8951 45.88 33.8814 45.8077 33.8543 45.7289C33.8269 45.6504 33.786 45.578 33.7318 45.5115C33.6775 45.4453 33.6078 45.3903 33.5226 45.3466C33.4377 45.3031 33.3356 45.2811 33.2168 45.2811C33.1183 45.2811 33.0299 45.2988 32.9517 45.3335C32.8733 45.3686 32.8055 45.4148 32.7478 45.4724C32.6897 45.5299 32.6457 45.5954 32.615 45.6688C32.5844 45.7422 32.5692 45.8189 32.5692 45.8992C32.5692 45.9166 32.5605 45.9253 32.5436 45.9253H32.1103C32.0931 45.9253 32.0847 45.9166 32.0847 45.8992C32.0847 45.7422 32.1128 45.598 32.1688 45.467C32.2249 45.3361 32.3041 45.2246 32.4059 45.132C32.508 45.0395 32.6277 44.9671 32.7654 44.9147C32.9032 44.8623 33.0535 44.8362 33.2169 44.8362C33.4004 44.8362 33.5645 44.8658 33.7089 44.9252C33.8533 44.9845 33.9748 45.0638 34.0734 45.1635C34.172 45.263 34.2477 45.3806 34.3005 45.5169C34.353 45.6529 34.3794 45.7961 34.3794 45.9462C34.3794 46.0789 34.3583 46.2012 34.3157 46.3129C34.2731 46.4247 34.2221 46.5259 34.1628 46.6167C34.1033 46.7075 34.0411 46.7868 33.9766 46.8548C33.9121 46.9231 33.8575 46.9798 33.8135 47.0251L32.6915 48.0881C32.6848 48.0953 32.682 48.104 32.684 48.1145C32.6855 48.1249 32.695 48.1301 32.7119 48.1301H34.354C34.371 48.1301 34.3794 48.1388 34.3794 48.1564V48.5492C34.3794 48.5666 34.371 48.5753 34.354 48.5753H32.0491C32.0319 48.5753 32.0235 48.5666 32.0235 48.5492L32.0234 48.1825Z" fill="#3704FF"/>
<path d="M36.3888 46.4543H36.5673C36.761 46.4543 36.9181 46.3993 37.0389 46.2894C37.1596 46.1794 37.2199 46.0406 37.2199 45.8731C37.2199 45.7961 37.2047 45.722 37.1741 45.6504C37.1435 45.5787 37.1001 45.5161 37.0441 45.4619C36.9878 45.4077 36.9191 45.3642 36.8375 45.331C36.756 45.2977 36.6659 45.2811 36.5673 45.2811C36.4754 45.2811 36.3895 45.2995 36.3098 45.3361C36.2299 45.3729 36.1619 45.42 36.1056 45.4775C36.0496 45.5353 36.0063 45.6008 35.9757 45.6739C35.945 45.7473 35.9298 45.8225 35.9298 45.8992C35.9298 45.9166 35.9214 45.9253 35.9042 45.9253H35.4709C35.4538 45.9253 35.4453 45.9166 35.4453 45.8992C35.4453 45.7455 35.4724 45.6041 35.527 45.475C35.5812 45.3458 35.6587 45.2341 35.759 45.1397C35.8591 45.0456 35.9782 44.9715 36.1158 44.9173C36.2535 44.863 36.4042 44.8362 36.5673 44.8362C36.7371 44.8362 36.8919 44.8623 37.0314 44.9147C37.1706 44.9671 37.2906 45.0395 37.3907 45.132C37.491 45.2246 37.5685 45.3346 37.6228 45.4619C37.677 45.5893 37.7044 45.7263 37.7044 45.8731C37.7044 45.9953 37.684 46.1025 37.6432 46.1951C37.6024 46.2876 37.554 46.3654 37.4978 46.428C37.4418 46.4909 37.3857 46.539 37.3297 46.5722C37.2734 46.6055 37.2301 46.6272 37.1995 46.6377C37.1826 46.641 37.1741 46.65 37.1741 46.6638C37.1741 46.6778 37.1826 46.6865 37.1995 46.6899C37.2438 46.7039 37.2991 46.7326 37.3653 46.7763C37.4316 46.82 37.496 46.8783 37.559 46.9517C37.622 47.0251 37.6756 47.1141 37.7196 47.2189C37.764 47.3235 37.7861 47.444 37.7861 47.5803C37.7861 47.7339 37.758 47.8743 37.7019 48.0017C37.6457 48.1293 37.5657 48.2392 37.4622 48.3318C37.3584 48.4244 37.2309 48.4967 37.0797 48.5492C36.9283 48.6013 36.7575 48.6277 36.5673 48.6277C36.3768 48.6277 36.2102 48.5995 36.0675 48.5438C35.9246 48.488 35.8056 48.4121 35.7105 48.316C35.6154 48.2201 35.5432 48.1083 35.4939 47.981C35.4446 47.8534 35.4199 47.7199 35.4199 47.5803C35.4199 47.5629 35.4284 47.5539 35.4453 47.5539H35.8788C35.8957 47.5539 35.9042 47.5629 35.9042 47.5803C35.9042 47.6501 35.9179 47.7209 35.9451 47.7922C35.9722 47.8638 36.013 47.9285 36.0676 47.9861C36.1219 48.0436 36.1908 48.0909 36.274 48.1275C36.3574 48.164 36.455 48.1825 36.5673 48.1825C36.6726 48.1825 36.7695 48.1669 36.8579 48.1354C36.9462 48.104 37.0237 48.0612 37.0899 48.007C37.1562 47.9528 37.208 47.8892 37.2456 47.8158C37.2829 47.7426 37.3016 47.6639 37.3016 47.5803C37.3016 47.4754 37.2829 47.3813 37.2456 47.2974C37.208 47.2136 37.1562 47.1422 37.0899 47.0826C37.0237 47.0233 36.9455 46.978 36.8554 46.9466C36.7653 46.9152 36.6691 46.8993 36.5673 46.8993H36.3888C36.3719 46.8993 36.3634 46.8906 36.3634 46.8732V46.4804C36.3634 46.463 36.3718 46.4543 36.3888 46.4543Z" fill="#3704FF"/>
</g>
<defs>
<clipPath id="clip0_4091_1948">
<rect width="64" height="64" fill="white"/>
</clipPath>
</defs>
</svg>
