<svg width="64" height="51" viewBox="0 0 64 51" fill="none" xmlns="http://www.w3.org/2000/svg">
<path d="M27.3155 3.5737L24.9933 0C8.92618 10.8097 0 23.9438 0 34.7536C0 45.2059 7.67794 50.1205 14.1933 50.1205C22.4054 50.1205 28.2067 43.1503 28.2067 35.8257C28.2067 29.6617 24.2792 24.3898 19.0121 22.4228C17.4953 21.8854 16.0671 21.4394 16.0671 18.8491C16.0671 15.5442 18.4779 10.6325 27.3155 3.5737ZM62.7518 3.5737L60.4295 0C44.5395 10.8097 35.4362 23.9438 35.4362 34.7536C35.4362 45.2059 43.2913 50.1205 49.8067 50.1205C58.1073 50.1205 64 43.1503 64 35.8257C64 29.6617 59.9839 24.3898 54.5368 22.4228C53.0201 21.8854 51.6804 21.4394 51.6804 18.8491C51.6804 15.5442 54.1798 10.6296 62.7489 3.57085L62.7518 3.5737Z" fill="#3704FF"/>
</svg>
