<svg width="148" height="30" viewBox="0 0 148 30" fill="none" xmlns="http://www.w3.org/2000/svg">
<path fill-rule="evenodd" clip-rule="evenodd" d="M111.801 15.5323C112.051 15.5323 112.558 15.5388 112.899 15.6021C112.603 17.1013 111.54 18.2294 109.787 18.2294C108.922 18.2294 108.414 17.6509 108.414 17.1366C108.414 16.1518 109.843 15.4682 111.801 15.5323ZM35.6272 15.5323C35.8779 15.5323 36.384 15.5388 36.7255 15.6021C36.4298 17.1013 35.3891 18.2294 33.6364 18.2294C32.7715 18.2294 32.2406 17.6509 32.2406 17.1366C32.2406 16.1518 33.6693 15.4682 35.6272 15.5323ZM125.37 12.0911C126.736 12.0911 127.315 13.2565 127.315 14.3697C127.315 15.8466 126.162 17.8574 124.226 17.8574C122.928 17.8574 122.258 16.9255 122.258 15.5556C122.258 13.8209 123.435 12.0911 125.37 12.0911ZM67.433 11.8353C69.0263 11.8353 69.5609 12.9357 69.5609 14.0907C69.5609 16.6176 68.3618 18.1132 66.449 18.1132C65.0605 18.1346 64.2295 17.1236 64.2295 15.6254C64.2295 13.848 65.4523 11.8353 67.433 11.8353ZM139.579 11.7192C141.081 11.7192 141.593 12.7059 141.593 13.9047H136.559C136.856 12.8352 137.804 11.7192 139.579 11.7192ZM26.3599 11.4634C26.1382 11.4681 25.9184 11.4908 25.6963 11.5099C22.8581 11.7535 21.7791 13.7151 20.2277 16.2298C19.0222 18.1828 15.1048 25.1926 13.4088 28.2273C15.394 29.1936 17.2475 29.2485 19.2666 28.5992C20.6532 28.1529 21.3616 27.7892 22.1497 27.2042C22.4125 27.0088 22.6404 26.8053 22.8132 26.5532L22.8819 26.4603C22.9048 26.4276 22.9287 26.4007 22.9505 26.3672C25.5006 22.3273 27.3293 16.1573 28.1905 12.8352C28.2939 12.4371 28.3928 12.0194 28.488 11.6261C27.7068 11.4971 27.025 11.4493 26.3599 11.4634ZM11.6927 11.3703C11.3762 11.3798 11.0522 11.3913 10.6858 11.4401C5.8066 12.0949 2.0127 13.37 0 14.1605C0.0925 14.5929 0.1913 14.8607 0.2059 14.9046C0.2069 14.9074 0.2288 14.9974 0.2288 14.9974C1.066 17.8433 3.8095 21.1309 8.3749 24.763C8.5468 24.8996 8.7135 25.0307 8.8783 25.1583C11.5682 21.0966 13.0399 18.0192 14.0723 14.7651C14.8748 12.2334 13.9079 11.3032 11.6927 11.3703ZM41.5077 9.39396L44.1163 20.508C43.6384 21.6437 42.8981 22.3448 41.7367 22.3448C40.9624 22.3448 40.3838 22.169 39.8603 22.0192L38.9908 24.8327C39.7651 25.0671 40.76 25.2977 42.217 25.2977C44.8356 25.2977 46.1812 23.989 47.3884 22.0192L55.1682 9.39396H50.8207L46.7935 16.4391H46.7477L45.6723 9.39396H41.5077ZM139.534 9.13816C134.252 9.13816 132.44 13.1282 132.44 15.7183C132.44 18.5233 134.589 20.8103 138.55 20.8103C139.735 20.8103 141.257 20.5898 142.691 20.1824L143.218 17.4622C142.08 17.9755 140.603 18.2294 139.511 18.2294C137.006 18.2294 136.353 17.289 136.307 16.0904H144.705C144.865 15.4272 145.002 14.4479 145.002 13.9978C145.002 10.6161 142.653 9.13816 139.534 9.13816ZM112.053 9.13816C110.208 9.13816 108.911 9.40336 107.705 9.78916L107.293 12.5794C108.659 11.9162 109.657 11.7192 111.137 11.7192C112.481 11.7192 113.311 12.3452 113.311 13.1373C113.311 13.2871 113.311 13.4528 113.265 13.6024C112.696 13.5596 111.889 13.4862 111.069 13.4862C107.448 13.4862 104.524 14.8386 104.524 17.5784C104.524 19.7406 105.956 20.8103 108.506 20.8103C110.099 20.8103 111.621 20.281 112.487 18.9967V18.9502L112.533 18.9967L112.35 20.5545H115.691C116.146 17.1933 117.201 14.6841 117.201 12.9283C117.201 10.1873 114.876 9.13816 112.053 9.13816ZM82.9924 9.13816C81.3075 9.13816 79.9914 10.3901 79.3314 11.6959H79.2856L79.7435 9.39396H75.9449C75.8315 10.4004 75.6464 11.3369 75.4416 12.3004L73.5882 20.5545H77.6839L78.8509 15.4161C79.1475 13.7672 80.1872 12.3469 81.9172 12.3469C82.6915 12.3469 83.2699 12.4491 83.7934 12.8352L84.732 9.41726C84.186 9.20326 83.5389 9.13816 82.9924 9.13816ZM67.6387 9.13816C62.9938 9.13816 59.9735 11.801 59.9735 15.7183C59.9735 18.5233 61.7573 20.8103 66.1515 20.8103C70.5915 20.8103 73.7941 18.7829 73.7941 14.1372C73.7941 11.3331 71.6688 9.13816 67.6387 9.13816ZM35.8789 9.13816C34.0346 9.13816 32.7384 9.40336 31.5312 9.78916L31.1194 12.5794C32.485 11.9162 33.4836 11.7192 34.9636 11.7192C36.3063 11.7192 37.1602 12.3452 37.1602 13.1373C37.1602 13.2871 37.1602 13.4528 37.1144 13.6024C36.5451 13.5596 35.715 13.4862 34.8949 13.4862C31.275 13.4862 28.3737 14.8386 28.3737 17.5784C28.3737 19.7406 29.7821 20.8103 32.332 20.8103C33.9257 20.8103 35.4486 20.281 36.3136 18.9967V18.9502L36.3594 18.9967L36.1762 20.5545H39.517C39.9729 17.1933 41.0273 14.6841 41.0273 12.9283C41.0273 10.1873 38.7025 9.13816 35.8789 9.13816ZM146.192 7.69656H146.627C146.829 7.69656 146.85 7.81746 146.833 7.90596C146.797 8.07156 146.692 8.13856 146.513 8.13856H146.101L146.192 7.69656ZM145.918 7.39446L145.575 9.06836H145.918L146.055 8.41736H146.398C146.654 8.41736 146.651 8.51336 146.604 8.74296C146.568 8.91596 146.575 8.98846 146.581 9.06836H146.947L146.97 9.02206C146.904 8.99416 146.896 8.94196 146.947 8.69646C147.014 8.38396 146.956 8.33646 146.833 8.27796C147.009 8.22106 147.138 8.06676 147.176 7.88276C147.206 7.73756 147.203 7.39446 146.764 7.39446H145.918ZM146.398 6.99926C147.117 6.99926 147.68 7.59626 147.68 8.32446C147.68 9.05276 147.117 9.64976 146.398 9.64976C145.682 9.64976 145.094 9.05276 145.094 8.32446C145.094 7.59626 145.682 6.99926 146.398 6.99926ZM146.398 6.69686C145.514 6.69686 144.796 7.42586 144.796 8.32446C144.796 9.22386 145.514 9.95206 146.398 9.95206C147.282 9.95206 148 9.22386 148 8.32446C148 7.42586 147.282 6.69686 146.398 6.69686ZM87.271 5.60416L83.8163 20.5545H87.683L90.452 8.30126H90.498L91.07 20.5545H95.097L101.321 8.30126H101.367L98.484 20.5545H102.625L105.989 5.60416H99.216L94.228 15.6484H94.182L93.93 5.60416H87.271ZM129.649 4.48806L128.207 11.2076H128.161C127.547 10.0088 126.115 9.13816 124.043 9.13816C119.99 9.13816 118.025 12.5449 118.025 16.2066C118.025 18.7112 119.891 20.8103 122.441 20.8103C124.719 20.8103 125.696 20.0058 126.743 18.7642H126.789L126.468 20.5545H130.244C130.289 20.1053 130.359 19.5445 130.495 18.8804L133.676 4.48806H129.649ZM57.0446 4.48806L53.4979 20.5545H57.6394L61.1861 4.48806H57.0446ZM16.4751 0.000561502C10.1795 0.0443615 4.7698 2.66006 1.6018 6.41786C13.1178 3.97096 22.5606 4.86846 29.5863 6.02266C29.6137 5.82086 29.6567 5.62546 29.6777 5.44146C29.6834 5.39396 29.6761 5.34926 29.6777 5.30176V5.16236C29.7228 4.26396 29.2531 3.40836 28.4651 2.99996C24.3478 0.863461 20.2523 -0.0256385 16.4751 0.000561502Z" fill="#01062E"/>
</svg>
