<svg width="128" height="22" viewBox="0 0 128 22" fill="none" xmlns="http://www.w3.org/2000/svg">
<mask id="mask0_4091_1726" style="mask-type:luminance" maskUnits="userSpaceOnUse" x="0" y="0" width="128" height="22">
<path d="M127.5 0.5H0.5V21.5H127.5V0.5Z" fill="white"/>
</mask>
<g mask="url(#mask0_4091_1726)">
<path fill-rule="evenodd" clip-rule="evenodd" d="M12.61 11.3783C12.61 11.219 12.6156 10.9062 12.6156 10.9062C7.9395 10.1685 4.5602 8.1444 4.4668 5.7646C3.3155 7.2079 2.6623 8.8607 2.6623 10.6218C2.6623 15.804 8.3218 20.0502 15.5153 20.4286C13.8488 19.3728 12.61 15.7192 12.61 11.3783ZM0.5 10.9999C0.5 5.2014 7.679 0.5 16.5354 0.5C25.3915 0.5 32.5707 5.2014 32.5707 10.9999C32.5707 16.7985 25.3914 21.5 16.5354 21.5C7.679 21.5 0.5 16.7983 0.5 10.9999ZM20.239 8.2566C23.566 7.7334 25.8949 6.5329 25.8949 5.136C25.8949 3.2611 21.704 1.7429 16.5354 1.7429C11.3663 1.7429 7.1759 3.2612 7.1759 5.136C7.1759 6.5329 9.5043 7.7334 12.8317 8.2566C13.3715 4.6222 14.8261 2.0154 16.5354 2.0154C18.245 2.0154 19.6993 4.6221 20.239 8.2566ZM17.5555 20.4285C24.7487 20.0502 30.4089 15.8039 30.4089 10.6217C30.4089 8.8607 29.7549 7.2079 28.6037 5.7645C28.5101 8.1442 25.1317 10.1684 20.4551 10.9061C20.4551 10.9061 20.461 11.2189 20.461 11.3782C20.461 15.7191 19.2213 19.3727 17.5555 20.4285ZM18.7578 8.4343C18.4028 6.1032 17.5416 4.4577 16.5354 4.4577C15.5291 4.4577 14.6681 6.1032 14.3126 8.4343C15.8145 8.5582 17.2945 8.5602 18.7578 8.4343ZM14.1392 11.0959C14.198 14.4715 15.2477 17.1639 16.5354 17.1639C17.8225 17.1639 18.8724 14.4716 18.9319 11.0959C17.2868 11.2396 15.6808 11.2395 14.1392 11.0959Z" fill="#01062E"/>
<path fill-rule="evenodd" clip-rule="evenodd" d="M72.887 18.6608H76.299V12.9148L82.167 3.5284H78.239L74.593 9.8889L70.9468 3.5284H67.0177L72.887 12.9148V18.6608ZM50.8938 11.0001C50.8938 6.5681 54.4689 2.9751 58.8788 2.9751C63.2883 2.9751 66.8631 6.568 66.8631 11.0001C66.8631 15.4326 63.2883 19.0251 58.8788 19.0251C54.4689 19.0251 50.8938 15.4326 50.8938 11.0001ZM58.8788 16.0824C61.3403 16.0824 63.3366 13.8067 63.3366 11.0001C63.3366 8.1936 61.3404 5.9176 58.8788 5.9176C56.4169 5.9176 54.4205 8.1936 54.4205 11.0001C54.4205 13.8066 56.4169 16.0824 58.8788 16.0824ZM45.3406 18.6608H41.9766V6.3187H37.2832V3.5284H50.0334V6.3187H45.3406V18.6608ZM116.113 15.2561L114.819 18.6608H110.891L117.102 3.5283H121.288L127.5 18.6608H123.57L122.277 15.2561H116.113ZM119.21 7.1642H119.181L117.078 12.7024H121.311L119.21 7.1642ZM107.351 18.6608H103.987V6.3187H99.293V3.5284H112.043V6.3187H107.351V18.6608ZM82.323 11.0001C82.323 6.5681 85.898 2.9751 90.306 2.9751C94.717 2.9751 98.292 6.568 98.292 11.0001C98.292 15.4326 94.717 19.0251 90.306 19.0251C85.898 19.0251 82.323 15.4326 82.323 11.0001ZM90.306 16.0824C92.769 16.0824 94.765 13.8067 94.765 11.0001C94.765 8.1936 92.769 5.9176 90.306 5.9176C87.845 5.9176 85.849 8.1936 85.849 11.0001C85.849 13.8066 87.845 16.0824 90.306 16.0824Z" fill="#01062E"/>
</g>
</svg>
