<svg width="140" height="24" viewBox="0 0 140 24" fill="none" xmlns="http://www.w3.org/2000/svg">
<mask id="mask0_4091_1733" style="mask-type:luminance" maskUnits="userSpaceOnUse" x="0" y="0" width="140" height="24">
<path d="M139.5 0H0.5V24H139.5V0Z" fill="white"/>
</mask>
<g mask="url(#mask0_4091_1733)">
<path d="M16.6035 2.53348C19.4767 -0.348822 24.1803 -0.348822 27.0534 2.53348C29.9266 5.41588 29.9266 10.1113 27.0534 12.9936L16.9511 23.1282C15.7925 24.2904 13.9157 24.2904 12.7804 23.1282L24.9681 10.9248C25.8022 10.088 26.2656 8.97228 26.2656 7.78678C26.2656 6.60128 25.8022 5.48558 24.9681 4.64878C23.2303 2.92868 20.4267 2.92868 18.6889 4.64878L10.6719 12.6682L6.8487 8.83278C6.2695 8.25168 6.2695 7.32188 6.8487 6.74078C7.428 6.15968 8.3548 6.15968 8.9341 6.74078L10.6719 8.48408L16.6035 2.53348ZM132.41 6.69428C136.835 6.69428 139.5 9.53008 139.5 14.1558C139.5 14.7137 139.43 15.2948 139.43 15.3645H129.143C129.212 17.2706 130.834 18.642 132.757 18.642C134.565 18.642 135.561 17.7355 136.024 16.457L139.291 17.4333C138.55 19.9205 136.279 22.0125 132.734 22.0125C128.772 22.0125 125.296 19.1534 125.296 14.2953C125.343 9.69288 128.726 6.69428 132.41 6.69428ZM63.3153 6.69428C67.8799 6.69428 69.5713 9.27448 69.5713 12.18V19.2696C69.5713 20.0367 69.664 21.0594 69.7567 21.5476H66.1884C66.1189 21.1757 66.0494 20.3853 66.0494 19.8275C65.308 20.9897 63.9177 21.966 61.8092 21.966C58.7275 21.966 56.8507 19.874 56.8507 17.6192C56.8507 15.0391 58.7507 13.5979 61.1373 13.226L64.6824 12.7146C65.4933 12.5984 65.7714 12.2033 65.7714 11.6919C65.7714 10.6691 64.9836 9.80908 63.3616 9.80908C61.7397 9.80908 60.7202 10.9016 60.6043 12.1568L57.1519 11.4362C57.3836 9.18148 59.4458 6.69428 63.3153 6.69428ZM99.021 0.348476V16.6895C99.021 17.9447 99.716 18.2933 100.689 18.2933C100.898 18.2933 101.106 18.2933 101.361 18.2701V21.5941C100.828 21.7103 100.365 21.78 99.763 21.78C96.959 21.78 95.198 20.1297 95.198 17.3403V0.348476H99.021ZM41.8594 2.83568V7.13598H44.7557V10.5994H41.8594V16.643C41.8594 17.8982 42.4387 18.3166 43.5508 18.3166C44.0143 18.3166 44.5472 18.2468 44.7557 18.2004V21.4314C44.4081 21.5708 43.6899 21.78 42.5545 21.78C39.7509 21.78 37.9899 20.1064 37.9899 17.3171V10.5994H35.3716V7.13598H36.1131C37.6424 7.13598 38.3375 6.13638 38.3375 4.85798V2.83568H41.8594ZM87.297 6.74078C90.865 6.74078 92.487 9.29768 92.487 12.459V21.5476H88.594V13.1563C88.594 11.5524 87.807 10.274 85.93 10.274C84.238 10.274 83.242 11.5757 83.242 13.2493V21.5243H79.3493V7.11268H83.126V8.90248C84.007 7.41488 85.721 6.74078 87.297 6.74078ZM118.253 6.74078C121.821 6.74078 123.443 9.29768 123.443 12.459V21.5476H119.55V13.1563C119.55 11.5524 118.762 10.274 116.886 10.274C115.194 10.274 114.198 11.5757 114.198 13.2493V21.5243H110.305V7.11268H114.082V8.90248C114.962 7.41488 116.677 6.74078 118.253 6.74078ZM54.9739 7.01968C55.2983 7.01968 55.5763 7.06618 55.8776 7.08948V10.9945C55.4142 10.9016 55.0666 10.8783 54.6959 10.8783C52.7032 10.8783 50.9886 11.8546 50.9886 14.9461V21.5243H47.0959V7.11268H50.8727V9.25118C51.7764 7.36838 53.7459 7.01968 54.9739 7.01968ZM76.3835 7.13598V21.5476H72.4908V7.13598H76.3835ZM107.339 7.13598V21.5476H103.447V7.13598H107.339ZM2.6549 2.53348C5.4122 -0.232622 9.8377 -0.348824 12.7572 2.20808L10.6487 4.30008C8.9109 2.90538 6.3621 3.02168 4.7402 4.62548C3.0024 6.34558 3.0024 9.18148 4.7402 10.9016L10.6719 16.8289L20.7742 6.71758C21.3535 6.13638 22.2803 6.13638 22.8596 6.71758C23.4388 7.29868 23.4388 8.22838 22.8596 8.80958L10.6719 21.013L2.6549 12.9936C1.2646 11.5989 0.5 9.73928 0.5 7.76358C0.5 5.78778 1.2646 3.95138 2.6549 2.53348ZM65.7714 15.0623L62.5043 15.5505C61.508 15.6899 60.7202 16.2478 60.7202 17.3636C60.7202 18.2236 61.3226 19.0372 62.597 19.0372C64.2421 19.0372 65.7714 18.2468 65.7714 15.6899V15.0623ZM132.433 9.83228C130.417 9.83228 129.305 11.3665 129.212 12.6914H135.631C135.607 11.2502 134.657 9.83228 132.433 9.83228ZM74.414 -0.000122385C75.7579 -0.000122385 76.8005 1.06908 76.8005 2.41728C76.8005 3.69578 75.7579 4.78828 74.414 4.78828C73.0701 4.78828 72.0274 3.69578 72.0274 2.41728C72.0274 1.06908 73.1164 -0.0234224 74.414 -0.000122385ZM105.393 -0.000122385C106.737 -0.000122385 107.78 1.06908 107.78 2.41728C107.78 3.69578 106.737 4.78828 105.393 4.78828C104.049 4.78828 103.006 3.69578 103.006 2.41728C103.006 1.06908 104.072 -0.0234224 105.393 -0.000122385Z" fill="#01062E"/>
</g>
</svg>
