<svg width="98" height="42" viewBox="0 0 98 42" fill="none" xmlns="http://www.w3.org/2000/svg">
<path d="M97.2267 36.309C97.3157 36.2393 97.3857 36.1502 97.4337 36.0487C97.4837 35.9087 97.5057 35.7605 97.4977 35.6122V21.3241C97.5047 21.1732 97.4827 21.0224 97.4337 20.8796C97.3877 20.7803 97.3167 20.6947 97.2267 20.6313C97.0077 20.4658 96.5007 20.383 95.7037 20.383C94.9067 20.383 94.3917 20.4658 94.1567 20.6313C94.0667 20.6947 93.9957 20.7803 93.9497 20.8796C93.9047 21.0232 93.8867 21.1739 93.8967 21.3241V35.6202C93.8847 35.7469 93.9007 35.8747 93.9437 35.9946C93.9867 36.1144 94.0567 36.2232 94.1487 36.313C94.3667 36.4785 94.8827 36.5612 95.6957 36.5612C96.5087 36.5612 97.0187 36.4771 97.2267 36.309ZM86.4437 36.3891C87.1967 36.1475 87.8867 35.7487 88.4697 35.2197C88.9987 34.7357 89.4037 34.1346 89.6517 33.4658C89.9057 32.7519 90.0317 31.9999 90.0247 31.2432V21.3241C90.0407 21.196 90.0257 21.0662 89.9827 20.9446C89.9387 20.823 89.8677 20.7131 89.7737 20.6233C89.5357 20.4578 89.0287 20.375 88.2507 20.375C87.4727 20.375 86.9577 20.4578 86.7037 20.6233C86.6097 20.6834 86.5367 20.7699 86.4927 20.8716C86.4387 21.0164 86.4117 21.1697 86.4117 21.3241V31.1992C86.4087 31.6081 86.3397 32.0138 86.2047 32.4006C86.0427 32.8388 85.7207 33.2014 85.3017 33.4177C84.7337 33.7088 84.0977 33.8469 83.4587 33.8182C83.0007 33.8278 82.5437 33.7642 82.1057 33.6299C81.7637 33.5237 81.4507 33.3415 81.1907 33.0973C80.9497 32.8654 80.7697 32.5797 80.6637 32.2644C80.5497 31.9194 80.4937 31.5582 80.4977 31.1952V21.3241C80.5137 21.196 80.4987 21.0662 80.4557 20.9446C80.4117 20.823 80.3407 20.7131 80.2467 20.6233C80.0087 20.4578 79.5017 20.375 78.7237 20.375C77.9457 20.375 77.4307 20.4578 77.1767 20.6233C77.0827 20.6834 77.0097 20.7699 76.9657 20.8716C76.9227 21.0184 76.9067 21.1716 76.9167 21.3241V31.2392C76.9097 31.9958 77.0357 32.7479 77.2897 33.4618C77.5317 34.1348 77.9317 34.7414 78.4567 35.2317C79.0407 35.755 79.7307 36.1483 80.4817 36.385C82.4257 36.9457 84.4917 36.9457 86.4357 36.385L86.4437 36.3891ZM68.7757 36.309C68.8627 36.2399 68.9307 36.1505 68.9737 36.0487C69.0207 35.908 69.0407 35.7601 69.0347 35.6122V23.4184H72.6397C72.8587 23.4244 73.0767 23.3987 73.2877 23.3423C73.3707 23.315 73.4477 23.2715 73.5137 23.2145C73.5797 23.1574 73.6337 23.0879 73.6727 23.01C73.8017 22.7324 73.8867 22.4365 73.9237 22.133C73.9757 21.8366 74.0057 21.5367 74.0127 21.236C74.0177 21.0916 74.0017 20.9472 73.9647 20.8075C73.9327 20.7049 73.8657 20.6168 73.7737 20.5592C73.6967 20.5152 73.6107 20.4854 73.5227 20.4711C73.3657 20.4488 73.2077 20.4395 73.0487 20.4431H61.8247C61.6057 20.4371 61.3877 20.4628 61.1767 20.5192C61.0897 20.5444 61.0087 20.5868 60.9397 20.644C60.8697 20.7011 60.8127 20.7718 60.7717 20.8515C60.6467 21.0928 60.5617 21.3524 60.5207 21.6204C60.4607 21.9468 60.4307 22.2778 60.4317 22.6095C60.4317 22.7602 60.4557 22.91 60.5007 23.054C60.5327 23.1586 60.6027 23.2473 60.6987 23.3023C60.9257 23.3992 61.1737 23.4391 61.4197 23.4184H65.4337V35.6042C65.4177 35.734 65.4337 35.8658 65.4817 35.9879C65.5287 36.1101 65.6057 36.2189 65.7047 36.305C65.9237 36.4705 66.4397 36.5532 67.2527 36.5532C68.0657 36.5532 68.5717 36.4731 68.7717 36.313L68.7757 36.309Z" fill="#01062E"/>
<path d="M3.00736 11.697H15.6411C16.8887 11.697 17.8122 12.0975 18.1768 13.8234C18.5818 15.7576 18.4279 17.1031 16.2163 17.2553L12.2467 17.5356C15.1712 35.7562 32.2241 41.6989 41.5121 22.0647C43.0513 18.8171 43.5373 18.2244 45.2346 18.6369C47.515 19.1975 47.827 20.3668 46.7333 23.6305C38.7172 47.8338 11.7323 50.2605 6.43816 17.9481L3.22606 18.1763C0.605356 18.3606 0.500054 16.1741 0.500054 14.9727C0.491954 12.558 1.39516 11.697 3.00736 11.697Z" fill="#01062E"/>
<path d="M48.9168 9.2584C51.5029 9.2584 53.5993 7.1859 53.5993 4.6292C53.5993 2.0726 51.5029 0 48.9168 0C46.3308 0 44.2344 2.0726 44.2344 4.6292C44.2344 7.1859 46.3308 9.2584 48.9168 9.2584Z" fill="#01062E"/>
</svg>
