<svg width="18" height="16" viewBox="0 0 18 16" fill="none" xmlns="http://www.w3.org/2000/svg">
<path fill-rule="evenodd" clip-rule="evenodd" d="M17.3751 0.287756C16.6551 0.720613 15.8871 1.05576 15.0231 1.19976C14.3511 0.480613 13.392 -0.000244141 12.3351 -0.000244141C10.32 -0.000244141 8.63914 1.67976 8.63914 3.79261C8.63914 4.08061 8.68714 4.36861 8.73514 4.65661C5.66314 4.51261 2.97514 2.97661 1.15114 0.719756C0.815143 1.29661 0.671143 1.91976 0.671143 2.63976C0.671143 3.93661 1.34314 5.08861 2.30314 5.80776C1.67914 5.80776 1.15114 5.61661 0.623143 5.32861V5.37661C0.623143 7.19976 1.87114 8.73575 3.59914 9.07176C3.31114 9.16776 2.97514 9.21576 2.64 9.21576C2.39914 9.21576 2.15914 9.21576 1.96714 9.16776C2.44714 10.6566 3.79114 11.7606 5.42314 11.8078C4.176 12.8158 2.59114 13.4406 0.863143 13.4406C0.575143 13.4406 0.287143 13.4406 0 13.3918C1.63114 14.4486 3.55114 15.0718 5.66314 15.0718C12.4311 15.0718 16.176 9.31176 16.176 4.31976V3.84061C16.8951 3.31176 17.5191 2.63976 18 1.87261C17.3271 2.16061 16.6071 2.40061 15.8871 2.44861C16.5111 1.87261 17.0871 1.15261 17.3751 0.287756Z" fill="#01062E"/>
</svg>
