<svg width="136" height="41" viewBox="0 0 136 41" fill="none" xmlns="http://www.w3.org/2000/svg">
<path d="M0 20.1593C0 8.98301 9.09699 -0.0490051 20.2083 0.0159734C31.3196 0.0809519 40.4166 9.11296 40.3517 20.2243C40.2867 31.3356 31.3196 40.3676 20.1433 40.3676C9.03201 40.3676 0 31.2706 0 20.1593ZM19.7535 27.047C18.194 27.112 16.6345 26.9821 15.075 26.6572C13.9704 26.3972 12.9957 25.6825 12.5409 24.5778C12.086 23.5382 11.8911 21.9137 11.8911 19.7045C11.8911 18.5348 11.956 17.4302 12.086 16.2606C12.216 15.156 12.3459 14.2463 12.4759 13.5315L12.6058 12.8167V12.7518C12.6058 12.5568 12.4759 12.3619 12.2809 12.3619L9.6818 11.972H9.61682C9.42188 11.972 9.29193 12.102 9.22695 12.2969C9.16197 12.4918 9.16197 12.5568 9.09699 13.0117C8.96703 13.7914 8.83708 14.5062 8.64214 15.6108C8.51218 16.7804 8.38223 18.015 8.31725 19.1846C8.25227 20.0294 8.25227 20.8741 8.31725 21.6538C8.38223 23.8631 8.7721 25.6175 9.48686 26.9171C10.2016 28.2166 11.3712 29.1913 13.0607 29.7761C14.7501 30.3609 17.0244 30.6209 20.0134 30.6209H20.4033C23.3923 30.6209 25.6665 30.3609 27.356 29.7761C29.0454 29.1913 30.215 28.2166 30.9298 26.9171C31.6445 25.6175 32.0344 23.7981 32.0994 21.6538C32.1644 20.8091 32.1644 19.9644 32.0994 19.1846C32.0344 18.015 31.9694 16.7804 31.7745 15.6108C31.6445 14.5062 31.5146 13.7914 31.3196 13.0117C31.2547 12.6218 31.1897 12.4918 31.1897 12.2969C31.1247 12.102 30.9947 11.972 30.7998 11.972H30.6699L28.0707 12.3619C27.8758 12.4269 27.7458 12.5568 27.7458 12.7518V12.8167L27.8758 13.5315C28.0057 14.2463 28.1357 15.156 28.2656 16.2606C28.3956 17.4302 28.4606 18.5348 28.4606 19.7045C28.4606 21.9137 28.2656 23.5382 27.8108 24.5778C27.3559 25.6175 26.3813 26.3972 25.2766 26.6572C23.7172 26.9821 22.1577 27.112 20.5982 27.047H19.7535Z" fill="#01062E"/>
<path d="M125.993 21.5893C125.993 18.1455 126.968 15.6763 130.997 15.6763C135.025 15.6763 136 18.0805 136 21.5893C136 25.0982 135.025 27.5024 130.997 27.5024C127.033 27.5024 125.993 25.0332 125.993 21.5893ZM133.466 21.5893C133.466 19.1851 133.141 17.8206 130.997 17.8206C128.852 17.8206 128.527 19.1851 128.527 21.5893C128.527 23.9935 128.852 25.3581 130.997 25.3581C133.141 25.3581 133.466 23.9935 133.466 21.5893Z" fill="#01062E"/>
<path d="M56.8561 27.0473C56.9211 27.1773 57.051 27.2423 57.116 27.2423H58.0257C58.2206 27.2423 58.3506 27.1123 58.3506 26.9174V16.3259C58.3506 16.1309 58.2206 16.001 58.0257 16.001H56.1413C55.9464 16.001 55.8164 16.1309 55.8164 16.3259V24.7081C55.0367 25.1629 54.127 25.3579 53.2173 25.3579C52.0477 25.3579 51.4629 24.8381 51.4629 23.6684V16.3259C51.4629 16.1309 51.3329 16.001 51.138 16.001H49.2536C49.0587 16.001 48.9287 16.1309 48.9287 16.3259V23.9284C48.9287 26.0726 49.9684 27.5022 52.8274 27.5022C54.127 27.5022 55.4266 27.1123 56.4662 26.3326L56.8561 27.0473Z" fill="#01062E"/>
<path d="M77.8437 19.2501C77.8437 17.1058 76.8041 15.6763 74.1399 15.6763C72.8404 15.6763 71.6058 16.0661 70.5661 16.7809C70.1113 16.0661 69.2016 15.6763 67.7071 15.6763C66.4725 15.6763 65.3029 16.1311 64.3282 16.8459L64.0033 16.1311C63.9383 16.0012 63.8084 15.9362 63.7434 15.9362H62.8337C62.6387 15.9362 62.5088 16.0661 62.5088 16.2611V26.8526C62.5088 27.0475 62.6387 27.1775 62.8337 27.1775H64.7181C64.913 27.1775 65.043 27.0475 65.043 26.8526V18.4703C65.7577 18.0155 66.6024 17.8206 67.3822 17.8206C68.4218 17.8206 69.0066 18.2104 69.0066 19.2501V26.8526C69.0066 27.0475 69.1366 27.1775 69.3315 27.1775H71.2159C71.4108 27.1775 71.5408 27.0475 71.5408 26.8526V18.4703C72.2556 18.0155 73.1003 17.8206 73.88 17.8206C74.8547 17.8206 75.5045 18.2104 75.5045 19.2501V26.8526C75.5045 27.0475 75.6344 27.1775 75.8294 27.1775H77.7138C77.9087 27.1775 78.0386 27.0475 78.0386 26.8526L77.8437 19.2501Z" fill="#01062E"/>
<path d="M83.5621 26.3321C84.6018 27.1119 85.9013 27.5018 87.2009 27.5018C90.5148 27.5018 91.6844 25.2925 91.6844 21.5887C91.6844 17.8849 90.4498 15.6757 87.2009 15.6757C86.1613 15.6757 85.0566 16.0006 84.2119 16.5854V13.2065C84.2119 13.0115 84.0819 12.8816 83.887 12.8816H82.0026C81.8077 12.8816 81.6777 13.0115 81.6777 13.2065V26.852C81.6777 27.0469 81.8077 27.1769 82.0026 27.1769H82.9123C83.0423 27.1769 83.1722 27.1119 83.1722 26.9819L83.5621 26.3321ZM86.6161 25.3575C85.7714 25.3575 84.9267 25.1625 84.2119 24.7077V18.5347C84.9267 18.0799 85.7714 17.8849 86.6161 17.8849C88.8254 17.8849 89.1503 19.5744 89.1503 21.6537C89.1503 23.668 88.8254 25.3575 86.6161 25.3575Z" fill="#01062E"/>
<path d="M101.042 17.8857C100.782 17.8208 100.457 17.8208 100.197 17.8208C99.2223 17.7558 98.1826 18.0157 97.3379 18.4706V26.8528C97.3379 27.0477 97.2079 27.1777 97.013 27.1777H95.1286C94.9337 27.1777 94.8037 27.0477 94.8037 26.8528V16.3263C94.8037 16.1313 94.9337 16.0014 95.1286 16.0014H96.0383C96.1683 16.0014 96.2982 16.0663 96.2982 16.1963L96.6231 16.9111C97.6628 16.1313 98.8974 15.7415 100.197 15.7415C100.522 15.7415 100.782 15.7415 101.107 15.8064C101.302 15.8064 101.432 16.0663 101.432 16.2613V17.6258C101.367 17.7558 101.237 17.8857 101.042 17.8857Z" fill="#01062E"/>
<path d="M107.474 22.0442C106.369 22.1741 105.72 22.629 105.72 23.7986C105.72 24.6433 106.11 25.488 107.474 25.488C108.319 25.488 109.164 25.2281 109.878 24.7733V21.8492L107.474 22.0442ZM110.463 26.3327C109.488 27.1125 108.319 27.5024 107.084 27.5024C104.16 27.5024 103.186 25.683 103.186 23.9285C103.186 21.5243 104.745 20.4847 107.279 20.2897L109.813 20.0948V19.51C109.813 18.3404 109.294 17.8855 107.604 17.8855C106.564 17.8855 105.525 18.0805 104.55 18.4054C104.485 18.4054 104.485 18.4054 104.42 18.4054C104.225 18.4054 104.095 18.2754 104.095 18.0805V16.586C104.095 16.456 104.16 16.3261 104.29 16.2611C105.395 15.8712 106.564 15.6763 107.734 15.6763C111.438 15.6763 112.283 17.3007 112.283 19.7049V26.8526C112.283 27.0475 112.153 27.1775 111.958 27.1775H111.048C110.918 27.1775 110.788 27.1125 110.788 26.9825L110.463 26.3327Z" fill="#01062E"/>
<path d="M123.264 24.9032C123.329 24.9032 123.329 24.9032 123.394 24.9032C123.589 24.9032 123.719 25.0332 123.719 25.2281V26.7226C123.719 26.8526 123.654 26.9825 123.524 27.0475C122.614 27.3724 121.639 27.5673 120.6 27.5024C116.636 27.5024 115.401 25.0982 115.401 21.5893C115.401 18.0805 116.636 15.6763 120.6 15.6763C121.574 15.6763 122.549 15.8062 123.459 16.1311C123.589 16.1961 123.654 16.3261 123.654 16.456V17.9505C123.654 18.1455 123.524 18.2754 123.329 18.2754C123.264 18.2754 123.264 18.2754 123.199 18.2754C122.419 18.0155 121.509 17.8855 120.665 17.9505C118.455 17.9505 117.871 19.445 117.871 21.5893C117.871 23.7986 118.52 25.2281 120.665 25.2281C121.574 25.2931 122.419 25.1631 123.264 24.9032Z" fill="#01062E"/>
</svg>
